<svg width="750" height="745" viewBox="0 0 750 745" fill="none" xmlns="http://www.w3.org/2000/svg">
<path style="mix-blend-mode:multiply" opacity="0.1" d="M182.201 136.4C189.655 89.7901 157.931 45.9601 111.345 38.5027C64.7579 31.0454 20.9496 62.7847 13.496 109.395C6.04236 156.004 37.7659 199.834 84.3525 207.292C130.939 214.749 174.747 183.01 182.201 136.4Z" fill="url(#paint0_linear_1489_6844)"/>
<path style="mix-blend-mode:multiply" opacity="0.1" d="M739.134 173.116C744.844 137.533 720.64 104.055 685.074 98.3431C649.508 92.6308 616.047 116.846 610.338 152.43C604.628 188.014 628.832 221.491 664.398 227.203C699.964 232.916 733.425 208.7 739.134 173.116Z" fill="url(#paint1_linear_1489_6844)"/>
<path style="mix-blend-mode:multiply" opacity="0.1" d="M724.989 399.465C719.714 362.558 702.322 325.606 670.87 298.19C641.434 272.515 599.341 269.821 567.51 248.057C533.393 224.726 547.598 185.344 556.546 155.334C567.618 118.134 567.834 78.4586 542.233 44.6707C492.236 -21.294 383.998 -7.42438 332.579 42.342C300.622 73.274 292.593 124.315 278.424 162.276C257.953 217.11 216.131 252.89 157.943 282.562C117.488 303.198 75.1253 324.347 57.2835 362.148C32.8344 413.95 53.9888 472.68 99.5204 512.326C142.963 550.156 203.834 571.7 265.245 585.291C329.752 599.571 396.834 606.176 463.682 604.829C518.054 603.73 573.361 597.11 621.899 577.133C658.105 562.224 694.077 538.849 712.44 508.811C721.568 493.887 722.126 474.701 724.665 458.209C727.654 438.731 727.78 418.959 725.007 399.451L724.989 399.465Z" fill="url(#paint2_linear_1489_6844)"/>
<path d="M564.104 167.196H215.179C197.073 167.196 182.396 181.867 182.396 199.965V421.021C182.396 439.119 197.073 453.79 215.179 453.79H564.104C582.21 453.79 596.888 439.119 596.888 421.021V199.965C596.888 181.867 582.21 167.196 564.104 167.196Z" fill="#005CFB"/>
<path d="M551.1 176.18H224.003C205.897 176.18 191.22 190.852 191.22 208.95V414.904C191.22 433.002 205.897 447.674 224.003 447.674H551.1C569.206 447.674 583.884 433.002 583.884 414.904V208.95C583.884 190.852 569.206 176.18 551.1 176.18Z" fill="#F5F5FD"/>
<path d="M568.53 206.956H205.18C205.18 200.157 205.017 193.302 204.907 186.585C264.737 186.585 324.576 186.494 384.424 186.312C442.751 186.312 501.106 186.475 559.46 186.312C566.864 186.312 570.088 188.032 568.885 196.17C568.569 199.756 568.45 203.357 568.53 206.956Z" fill="#5A96FC"/>
<path d="M278.807 364.959H333.446C345.794 364.959 348.007 367.362 347.98 380.688C347.98 382.244 347.98 383.828 347.98 385.385C347.543 393.195 344.128 396.881 336.724 396.909C298.131 397.018 259.519 397.018 220.889 396.909C213.431 396.909 209.961 393.495 209.333 385.658C209.238 382.259 209.347 378.858 209.661 375.472C209.989 368.126 213.595 364.767 220.589 364.822C239.958 365.068 259.382 364.959 278.807 364.959Z" fill="#DEE5FD"/>
<path d="M243.482 200.512C242.969 200.505 242.463 200.395 241.993 200.19C241.523 199.985 241.098 199.688 240.745 199.317C240.391 198.945 240.115 198.507 239.933 198.028C239.751 197.548 239.667 197.037 239.685 196.525C239.619 195.959 239.688 195.385 239.885 194.85C240.082 194.315 240.402 193.834 240.82 193.446C241.237 193.058 241.74 192.773 242.288 192.616C242.836 192.458 243.414 192.431 243.974 192.538C244.48 192.557 244.975 192.688 245.425 192.92C245.874 193.153 246.267 193.482 246.575 193.883C246.882 194.285 247.098 194.749 247.206 195.244C247.313 195.738 247.311 196.25 247.198 196.743C247.201 197.234 247.108 197.722 246.923 198.177C246.739 198.632 246.466 199.047 246.121 199.397C245.776 199.747 245.365 200.025 244.913 200.216C244.46 200.408 243.974 200.508 243.482 200.512Z" fill="#9AA9D1"/>
<path d="M228.375 200.539C227.353 200.483 226.39 200.04 225.685 199.299C224.979 198.558 224.583 197.575 224.577 196.552C224.512 195.982 224.581 195.405 224.779 194.867C224.978 194.329 225.3 193.845 225.72 193.454C226.14 193.064 226.647 192.777 227.198 192.618C227.749 192.459 228.33 192.431 228.894 192.538C229.402 192.551 229.901 192.676 230.356 192.903C230.81 193.13 231.21 193.455 231.525 193.853C231.84 194.252 232.064 194.715 232.181 195.21C232.297 195.704 232.304 196.218 232.199 196.716C232.211 197.221 232.119 197.723 231.931 198.192C231.743 198.661 231.462 199.087 231.104 199.444C230.747 199.801 230.321 200.083 229.851 200.271C229.382 200.459 228.88 200.55 228.375 200.539Z" fill="#9AA9D1"/>
<path d="M217.119 196.47C216.736 198.709 215.589 200.402 213.349 200.43C212.778 200.475 212.205 200.385 211.677 200.167C211.148 199.949 210.678 199.609 210.305 199.176C209.932 198.742 209.667 198.226 209.531 197.67C209.396 197.115 209.393 196.535 209.524 195.978C209.52 195.464 209.629 194.954 209.844 194.487C210.06 194.019 210.376 193.605 210.77 193.274C211.164 192.943 211.626 192.702 212.124 192.57C212.622 192.438 213.143 192.418 213.649 192.51C215.944 192.565 216.846 194.231 217.119 196.47Z" fill="#9AA9D1"/>
<path d="M331.287 269.354H215.917C212.16 269.354 209.114 272.399 209.114 276.154V279.376C209.114 283.132 212.16 286.176 215.917 286.176H331.287C335.044 286.176 338.09 283.132 338.09 279.376V276.154C338.09 272.399 335.044 269.354 331.287 269.354Z" fill="#B3CEFD"/>
<path d="M331.287 288.715H215.917C212.16 288.715 209.114 291.76 209.114 295.515V298.737C209.114 302.493 212.16 305.537 215.917 305.537H331.287C335.044 305.537 338.09 302.493 338.09 298.737V295.515C338.09 291.76 335.044 288.715 331.287 288.715Z" fill="#B3CEFD"/>
<path d="M331.287 308.896H215.917C212.16 308.896 209.114 311.94 209.114 315.696V318.918C209.114 322.673 212.16 325.717 215.917 325.717H331.287C335.044 325.717 338.09 322.673 338.09 318.918V315.696C338.09 311.94 335.044 308.896 331.287 308.896Z" fill="#B3CEFD"/>
<path d="M331.287 329.486H215.917C212.16 329.486 209.114 332.53 209.114 336.285V339.508C209.114 343.263 212.16 346.307 215.917 346.307H331.287C335.044 346.307 338.09 343.263 338.09 339.508V336.285C338.09 332.53 335.044 329.486 331.287 329.486Z" fill="#B3CEFD"/>
<path d="M325.058 240.49H214.469C211.512 240.49 209.114 242.886 209.114 245.842V248.382C209.114 251.338 211.512 253.734 214.469 253.734H325.058C328.016 253.734 330.413 251.338 330.413 248.382V245.842C330.413 242.886 328.016 240.49 325.058 240.49Z" fill="#DEE5FD"/>
<path d="M346.641 240.49H236.051C233.094 240.49 230.697 242.886 230.697 245.842V248.382C230.697 251.338 233.094 253.734 236.051 253.734H346.641C349.598 253.734 351.996 251.338 351.996 248.382V245.842C351.996 242.886 349.598 240.49 346.641 240.49Z" fill="#9AA9D1"/>
<path d="M491.216 354.172H548.805C558.945 354.172 567.164 345.956 567.164 335.821V327.165C567.164 317.03 558.945 308.814 548.805 308.814H491.216C481.076 308.814 472.857 317.03 472.857 327.165V335.821C472.857 345.956 481.076 354.172 491.216 354.172Z" fill="#7292F7"/>
<path d="M524.737 331.507C524.737 335.287 525.858 338.983 527.96 342.127C530.061 345.27 533.048 347.72 536.542 349.167C540.037 350.614 543.882 350.992 547.591 350.255C551.301 349.517 554.709 347.697 557.383 345.023C560.058 342.35 561.879 338.944 562.617 335.236C563.355 331.528 562.976 327.684 561.529 324.192C560.081 320.699 557.63 317.713 554.485 315.613C551.34 313.512 547.643 312.391 543.861 312.391C538.789 312.391 533.924 314.405 530.338 317.99C526.752 321.575 524.737 326.437 524.737 331.507Z" fill="white"/>
<path d="M515.011 304.062H553.532C560.322 304.062 565.826 298.561 565.826 291.774V286.012C565.826 279.225 560.322 273.724 553.532 273.724H515.011C508.222 273.724 502.718 279.225 502.718 286.012V291.774C502.718 298.561 508.222 304.062 515.011 304.062Z" fill="#9AA9D1"/>
<path d="M519.819 301.605C526.85 301.605 532.55 295.907 532.55 288.879C532.55 281.851 526.85 276.154 519.819 276.154C512.788 276.154 507.088 281.851 507.088 288.879C507.088 295.907 512.788 301.605 519.819 301.605Z" fill="white"/>
<path d="M516.131 263.429H554.652C561.441 263.429 566.945 257.927 566.945 251.14V245.378C566.945 238.591 561.441 233.09 554.652 233.09H516.131C509.341 233.09 503.837 238.591 503.837 245.378V251.14C503.837 257.927 509.341 263.429 516.131 263.429Z" fill="#9AA9D1"/>
<path d="M508.154 248.246C508.148 250.769 508.892 253.237 510.291 255.338C511.689 257.439 513.68 259.078 516.011 260.047C518.342 261.016 520.908 261.273 523.384 260.784C525.861 260.295 528.137 259.082 529.924 257.3C531.711 255.518 532.929 253.245 533.423 250.771C533.918 248.296 533.667 245.731 532.702 243.399C531.737 241.067 530.102 239.074 528.003 237.671C525.904 236.269 523.437 235.52 520.912 235.52C517.533 235.52 514.292 236.86 511.9 239.246C509.508 241.631 508.161 244.868 508.154 248.246Z" fill="white"/>
<path d="M458.323 381.48C461.055 386.941 463.787 392.621 466.519 398.11C469.251 403.599 468.103 405.866 462.885 405.838C445.091 405.693 427.306 405.693 409.53 405.838C395.515 405.838 381.5 405.21 367.485 406.412C360.683 407.012 359.645 404.964 362.732 397.509C365.027 392.048 367.731 386.723 370.245 381.316C372.541 379.709 375.315 378.929 378.113 379.104C402.263 379.104 426.395 379.104 450.51 379.104C453.3 379.046 456.037 379.878 458.323 381.48Z" fill="#C5CFEF"/>
<path d="M458.323 381.48C436.877 382.927 415.377 381.753 393.931 381.944C386.008 381.944 378.086 382.927 370.19 381.371C373.486 373.283 377.254 365.396 381.473 357.749C383.593 356.297 386.117 355.551 388.686 355.619C406.389 355.456 424.201 355.783 441.822 355.428C443.533 355.337 445.228 355.796 446.658 356.739L458.323 381.48Z" fill="#DEE5FD"/>
<path d="M424.884 309.497C429.264 316.989 432.923 324.88 435.812 333.063C433.899 335.357 431.495 334.647 429.255 334.702C418.846 335.057 408.438 334.101 398.029 335.275C397.051 335.459 396.04 335.328 395.142 334.901C394.243 334.474 393.504 333.773 393.029 332.899C395.965 324.978 399.462 317.276 403.493 309.852C410.554 308.553 417.783 308.433 424.884 309.497Z" fill="#DEE5FD"/>
<path d="M435.757 333.063C421.496 333.473 407.235 333.828 392.975 332.899C391.333 335.313 390.011 337.929 389.041 340.682L381.473 357.749C401.362 357.886 421.25 358.077 441.166 358.104C443.035 357.867 444.87 357.409 446.63 356.739C443.953 350.895 436.959 334.947 435.757 333.063Z" fill="#C5CFEF"/>
<path d="M417.043 290.9C415.377 286.995 413.41 286.586 411.716 290.682C408.984 297.154 405.214 302.806 403.52 309.797C410.678 311.326 417.835 312.528 424.966 309.442L417.043 290.9Z" fill="#C5CFEF"/>
<path d="M500.969 125.115C504.329 114.356 515.257 117.551 522.415 113.837C526.349 111.762 531.212 111.106 535.528 109.031C547.166 103.242 554.652 106.3 561.509 118.943H558.367C555.02 118.465 551.633 118.328 548.259 118.534C532.359 119.681 516.896 124.569 500.969 125.115Z" fill="#C5CFEF"/>
<path d="M489.795 125.525L530.201 139.315C530.201 139.315 540.801 143.002 541.948 135.082C543.369 125.279 548.369 119.763 558.34 119.053C555.608 115.748 552.166 116.622 548.751 116.813C534.776 116.952 520.886 119.01 507.471 122.93C514.601 119.05 522.218 116.139 530.119 114.274C537.167 112.608 542.795 111.379 549.735 113.127C554.014 114.224 558.016 116.205 561.482 118.943C571.918 118.097 562.93 114.219 561.919 113.482C552.193 107.529 549.489 99.8281 555.226 89.7515C555.649 88.2028 555.87 86.6055 555.881 85L489.795 125.525Z" fill="#FE7146"/>
<path d="M566.071 115.421C659.887 96.3055 624.781 192.456 611.504 178.42C605.521 172.084 720.126 121.074 677.071 218.562C653.494 272.085 557.356 262.664 665.569 328.912" stroke="white" stroke-width="0.75" stroke-miterlimit="10" stroke-dasharray="2 2"/>
<path d="M157.316 215.34C133.903 215.34 110.873 240.654 111.228 265.804C111.693 290.163 157.945 344.423 157.945 344.423C157.945 344.423 201.984 287.76 201.41 263.292C200.782 237.186 180.866 215.367 157.316 215.34ZM157.726 278.147C149.394 279.158 145.405 273.232 144.94 264.821C144.531 257.394 148.574 252.615 154.994 251.768C162.589 250.758 168.189 254.499 169.637 263.319C170.156 272.495 165.13 277.274 157.726 278.147Z" fill="#FE7146"/>
<path d="M157.152 333.91C160.895 343.577 152.918 354.391 141.717 358.705C130.516 363.02 117.129 362.009 105.436 358.951C100.381 357.883 95.5952 355.802 91.3668 352.834C89.4508 351.566 87.9468 349.767 87.0393 347.657C86.1318 345.546 85.8602 343.217 86.2581 340.955C87.1508 338.625 88.8379 336.684 91.0219 335.475C93.2059 334.266 95.7468 333.867 98.1967 334.347C100.398 334.841 102.393 336.005 103.906 337.678C110.217 344.532 105.245 354.855 97.022 360.152C86.0941 367.171 79.073 365.614 68.8828 371.376C53.5292 380.142 40.4978 408.187 53.0921 430.033C63.856 448.711 89.8916 456.794 112.376 445.981" stroke="#C5CFEF" stroke-width="0.75" stroke-miterlimit="10" stroke-dasharray="2 2"/>
<path d="M382.484 690.439C380.903 692.595 379.784 695.054 379.197 697.661C378.609 700.269 378.566 702.97 379.069 705.595C380.241 707.226 381.879 708.463 383.768 709.145C396.281 712.968 408.165 719.358 421.824 718.512C422.835 717.747 423.873 717.01 424.829 716.163C427.316 714.033 426.714 712.695 423.764 711.712C416.427 709.517 409.607 705.867 403.711 700.98C403.083 700.407 402.537 699.697 401.936 699.041C399.777 695.967 397.375 693.072 394.751 690.385C390.717 689.42 386.509 689.438 382.484 690.439Z" fill="#353264"/>
<path d="M394.477 688.145H382.457C382.457 688.855 382.457 689.565 382.457 690.275C386.636 692.296 391.008 690.74 395.297 691.04C395.051 690.166 394.75 689.156 394.477 688.145Z" fill="#D7976C"/>
<path d="M279.407 633.885C281.093 632.57 283.078 631.694 285.186 631.336C287.294 630.979 289.458 631.151 291.483 631.837L263.945 701.198L260.393 700.079L279.407 633.885Z" fill="#C26346"/>
<path d="M296.919 635.496C300.198 631.891 303.312 631.973 306.29 635.851C300.99 657.97 295.608 680.071 290.144 702.154L286.347 701.362C289.88 679.443 293.404 657.488 296.919 635.496Z" fill="#C26346"/>
<path d="M340.303 637.626C343.499 634.021 346.641 633.639 349.701 637.79C351.176 659.909 352.66 682.028 354.154 704.148L350.056 704.748L340.303 637.626Z" fill="#C26346"/>
<path d="M356.503 638.445C359.699 634.568 362.732 634.786 365.628 638.8C369.871 661.102 374.124 683.421 378.386 705.759L374.452 706.605L356.503 638.445Z" fill="#C26346"/>
<path d="M394.177 622.962C394.11 626.028 393.088 628.996 391.254 631.454C390.711 632.179 390.077 632.83 389.369 633.393C385.472 636.142 380.833 637.646 376.064 637.708H374.398L365.164 637.872L356.776 638.008H349.81H340.494C329.102 638.008 316.535 638.008 305.798 638.008L296.591 637.79C293.86 637.79 291.373 637.653 289.161 637.517C285.821 637.652 282.477 637.349 279.216 636.616L278.67 636.233C247.963 597.156 265.229 532.655 266.54 528.04C267.715 528.04 268.944 527.904 270.201 527.904C279.974 527.791 289.535 530.763 297.52 536.396C298.356 537.027 299.15 537.711 299.897 538.445C301.002 539.515 302.016 540.675 302.93 541.913C309.216 551.194 314.181 561.303 317.682 571.951C318.365 573.89 319.103 575.747 319.922 577.413C323.507 585.762 329.647 592.761 337.461 597.402C344.564 601.354 352.504 603.563 360.628 603.846C365.205 604.01 369.767 604.457 374.288 605.185C377.952 605.746 381.537 606.736 384.97 608.134C387.63 609.225 389.944 611.019 391.663 613.322C393.603 616.143 394.492 619.554 394.177 622.962Z" fill="#FF7E1A"/>
<path d="M278.697 636.179C254.792 620.75 236.461 562.885 247.799 538.035C249.902 533.393 254.792 530.334 260.912 528.887H261.158L263.262 528.45L264.873 528.231C274.511 527.107 284.265 528.895 292.876 533.365C281.998 541.868 273.678 553.208 268.835 566.134C256.213 601.116 276.074 632.219 278.697 636.179Z" fill="#FE7146"/>
<path d="M347.515 486.778C346.74 489.606 345.688 492.35 344.373 494.971V495.216L344.073 495.544C341.934 494.137 340.081 492.34 338.609 490.246C336.115 486.647 334.746 482.39 334.675 478.013V476.975C334.792 477.162 334.93 477.336 335.085 477.494L335.658 478.204C336.846 479.607 338.163 480.896 339.592 482.054C341.995 483.997 344.675 485.571 347.542 486.724L347.515 486.778Z" fill="#BE8260"/>
<path d="M359.317 431.071C356.585 427.602 353.58 427.63 350.52 430.907C349.591 431.917 348.553 432.873 347.57 433.883L336.177 438.771C326.916 442.321 323.31 446.609 323.228 454.227C317.491 455.129 315.688 458.679 318.611 463.621C320.046 466.363 322.313 468.581 325.086 469.957L325.249 471.95C323.173 474.08 325.25 474.927 326.534 475.773C328.883 476.982 331.462 477.68 334.101 477.821C334.511 477.985 337.953 477.275 338.117 475.555C337.844 473.015 333.664 470.366 333.391 469.738C331.478 465.26 337.816 467.199 340.193 467.608C342.352 466.734 341.477 465.096 341.013 463.731C340.556 462.66 340.479 461.465 340.794 460.344C341.456 458.886 342.647 457.735 344.127 457.122C349.345 454.391 353.088 457.122 355.438 454.937C356.366 454.091 357.323 452.207 356.53 447.837C357.982 447.065 359.236 445.97 360.196 444.635C361.156 443.3 361.795 441.763 362.064 440.142C362.334 438.52 362.226 436.859 361.75 435.286C361.273 433.712 360.441 432.27 359.317 431.071Z" fill="#341338"/>
<path d="M391.581 555.785C391.021 559.359 391.021 562.998 391.581 566.571C393.166 566.326 417.781 564.278 423.217 565.889C425.676 566.626 428.162 567.309 430.238 564.988C432.97 560.809 429.173 559.799 426.823 558.079C417.739 555.946 408.473 554.675 399.149 554.283C396.69 554.693 393.958 553.846 391.581 555.785Z" fill="#D7976C"/>
<path d="M400.05 552.918C393.197 548.097 386.638 542.872 380.408 537.27C357.104 516.407 344.728 496.309 343.007 497.401C341.286 498.493 351.668 512.639 357.978 536.915C359.563 543.032 360.492 548.275 361.093 552.071C361.674 552.659 362.295 553.206 362.951 553.709C370.9 556.44 385.243 552.672 389.833 558.243C390.358 558.891 390.851 559.565 391.308 560.263C393.548 560.263 395.789 560.4 398.001 560.427L398.165 559.581C398.435 557.274 399.072 555.024 400.05 552.918Z" fill="#353264"/>
<path d="M403.902 644.316C403.383 647.43 402.755 650.515 402.045 653.628C402.045 654.174 401.69 655.758 401.362 657.998C400.269 665.425 398.138 679.844 395.433 686.234C395.181 686.902 394.861 687.543 394.477 688.145C392.93 689.011 391.217 689.542 389.45 689.702C388.688 689.798 387.917 689.798 387.156 689.702L386.09 689.538C384.83 689.289 383.609 688.876 382.457 688.309C378.714 688.145 377.484 686.07 377.648 682.52C377.719 679.782 377.573 677.043 377.211 674.328C375.611 662.245 375.208 650.034 376.009 637.872C376.333 633.986 376.872 630.12 377.621 626.293C377.949 624.546 378.441 621.842 376.501 621.433C373.769 620.886 329.211 616.135 310.415 613.24C304.951 612.421 301.345 611.138 299.023 608.816C296.277 605.819 294.672 601.953 294.488 597.893C294.488 597.757 294.488 597.593 294.488 597.456C294.488 597.32 294.16 596.419 293.996 595.954C293.313 593.715 292.766 591.694 292.384 589.892C292.22 589.128 292.111 588.39 291.974 587.68C291.43 584.82 291.43 581.884 291.974 579.024C291.959 578.924 291.959 578.823 291.974 578.723C292.344 577.028 293.176 575.469 294.378 574.218C295.841 572.778 297.791 571.94 299.842 571.869C304.76 571.569 311.48 574.354 320.141 577.604C331.054 582.033 342.512 584.981 354.208 586.369L356.23 586.561H356.612C357.723 586.561 358.843 586.615 359.973 586.724H361.065C371.583 587.052 378.632 589.81 393.111 594.043C395.349 594.678 397.445 595.734 399.285 597.156C401.389 598.826 403.09 600.947 404.262 603.362C405.435 605.778 406.05 608.425 406.061 611.11C406.47 622.224 405.747 633.35 403.902 644.316Z" fill="#47447A"/>
<path d="M345.111 503.299C344.875 503.333 344.636 503.333 344.401 503.299C343.78 503.313 343.161 503.221 342.57 503.026C342.575 502.422 342.394 501.831 342.051 501.333C341.904 501.155 341.717 501.015 341.505 500.924C340.685 499.777 339.92 498.575 339.183 497.401C338.445 496.227 337.871 495.298 337.134 494.315C336.083 491.582 334.164 489.27 331.67 487.734C330.604 486.806 329.402 486.041 328.337 485.003C327.097 483.998 326.279 482.567 326.042 480.989C326.51 479.368 327.209 477.823 328.118 476.401C328.543 475.836 329.081 475.365 329.697 475.018C330.312 474.67 330.994 474.453 331.697 474.381C332.728 475.411 333.704 476.496 334.62 477.63C334.699 477.71 334.764 477.802 334.812 477.903C334.856 477.887 334.904 477.887 334.948 477.903C339.031 483.012 342.261 488.748 344.51 494.889C344.495 494.961 344.495 495.035 344.51 495.107C345.029 496.527 345.548 497.838 345.985 499.313C345.997 499.458 345.997 499.604 345.985 499.75C345.996 499.913 345.996 500.077 345.985 500.241C346.286 501.907 346.067 502.944 345.111 503.299Z" fill="#353264"/>
<path d="M366.365 589.455C374.561 591.34 383.003 593.196 391.308 595.272C400.05 597.456 404.121 603.109 404.367 612.093C404.722 626.539 401.635 671.488 407.235 676.894C410.563 677.714 414.062 677.495 417.262 676.266C419.529 666.982 419.256 657.424 420.458 648.03C422.753 629.898 415.814 586.233 411.251 584.922C401.826 582.191 365.491 578.778 363.524 577.14C356.967 574.928 354.727 576.375 354.427 583.202C354.263 587.025 357.295 587.462 366.365 589.455Z" fill="#353264"/>
<path d="M461.957 525.664C458.187 537.134 454.407 548.603 450.619 560.072C450.788 562.657 451.851 565.103 453.625 566.991C455.399 568.879 457.775 570.092 460.345 570.422C462.421 570.422 463.077 568.892 463.733 567.336C468.295 554.665 472.967 542.022 477.201 529.105C478.185 526.101 477.338 524.162 474.469 523.835C470.207 523.452 465.563 521.049 461.957 525.664Z" fill="#9AA9D1"/>
<path d="M408.957 560.536C408.683 562.53 418.846 565.998 418.163 570.231C418.097 570.626 417.938 571.001 417.699 571.323C417.946 571.714 418.296 572.03 418.71 572.237C419.124 572.444 419.587 572.534 420.048 572.497C428.408 571.214 436.768 572.934 445.155 572.497C450.619 572.197 456.301 571.296 461.847 572.743C465.508 568.701 466.054 563.267 468.103 558.516C469.387 555.512 477.037 533.256 479.25 528.204C480.944 524.272 479.823 523.179 475.999 522.743C472.562 522.357 469.103 522.202 465.645 522.278C463.35 522.278 461.656 523.016 461.956 525.774C466.901 522.661 471.737 525.419 477.092 525.774L461.246 570.012L450.81 559.608C420.294 557.751 409.257 558.516 408.957 560.536Z" fill="#DEE5FD"/>
<path d="M461.847 572.716C460.317 570.75 458.159 571.569 456.383 571.541C443.543 571.541 430.676 571.378 417.808 571.323C413.819 572.033 409.612 570.449 405.733 572.443C406.887 572.948 408.113 573.27 409.366 573.398C426.742 572.825 444.335 573.945 461.847 572.716Z" fill="#9AA9D1"/>
<path d="M443.789 570.367L455.646 570.039L449.39 560.673H438.762L443.789 570.367Z" fill="#9AA9D1"/>
<path d="M406.279 678.123C403.294 682.583 402.158 688.026 403.11 693.306C404.173 694.895 405.685 696.131 407.454 696.857C419.038 700.652 430.02 707.042 442.669 706.196C443.598 705.431 444.554 704.694 445.401 703.875C447.696 701.745 447.149 700.407 444.445 699.396C437.571 697.172 431.248 693.514 425.895 688.664C425.313 688.058 424.766 687.42 424.256 686.753C422.267 683.686 420.038 680.782 417.59 678.069C413.877 677.122 409.983 677.141 406.279 678.123Z" fill="#353264"/>
<path d="M355.711 597.402L363.579 577.14C365.464 569.548 371.966 539.51 354.454 514.55C350.838 509.392 346.484 504.792 341.532 500.896C341.969 504.091 342.434 507.259 342.898 510.454L355.711 597.402Z" fill="#FAF4F0"/>
<path d="M302.247 607.205C303.039 606.086 303.831 604.966 304.651 603.901C308.585 598.685 308.585 598.685 308.393 592.486C309.486 592.486 309.65 593.251 309.732 594.043C310.044 596.017 309.882 598.037 309.259 599.936C308.637 601.835 307.573 603.559 306.153 604.966C305.08 605.981 304.217 607.196 303.613 608.543H302.902C302.683 608.33 302.423 608.163 302.137 608.052C302.051 607.921 302.015 607.764 302.035 607.608C302.055 607.453 302.13 607.31 302.247 607.205Z" fill="#353264"/>
<path d="M363.524 577.14H362.65C355.137 577.85 355.574 581.809 356.421 586.479C356.421 586.479 356.421 586.615 356.421 586.697C357.002 589.054 357.177 591.491 356.94 593.906C356.783 595.133 356.333 596.303 355.629 597.32C354.127 599.505 346.668 598.822 337.434 597.511C328.2 596.2 318.037 594.343 309.705 593.906H308.421C301.4 593.661 296.182 594.589 295.335 598.03C294.949 597.912 294.601 597.695 294.324 597.402C292.849 595.955 292.056 592.459 291.811 587.626C291.811 585.386 291.811 582.82 291.811 580.007C291.811 579.57 291.811 579.133 291.811 578.669C292.76 564.478 294.649 550.365 297.466 536.424C297.466 536.424 297.466 536.178 297.466 536.069C300.935 518.182 305.197 502.235 308.038 497.51C312.601 489.891 316.753 485.495 321.097 484.102C322.327 482.573 324.294 482.163 325.851 481.098C326.903 482.087 327.897 483.136 328.829 484.239L329.43 485.003C332.483 487.037 335.37 489.311 338.063 491.803C339.894 493.534 341.635 495.356 343.281 497.265L343.718 497.756C344.51 498.657 345.275 499.613 346.013 500.487L346.832 501.525C346.573 501.961 346.416 502.451 346.373 502.957C346.331 503.463 346.404 503.973 346.586 504.446C346.586 504.774 346.832 505.129 346.941 505.484C346.862 505.558 346.805 505.653 346.778 505.757C346.655 505.965 346.554 506.184 346.477 506.413C346.391 506.873 346.391 507.345 346.477 507.805C347.215 515.26 349.947 522.633 351.722 529.897C352.569 533.365 353.471 536.861 354.454 540.356C355.438 543.851 356.476 547.429 357.623 550.924C353.535 546.799 350.007 542.153 347.133 537.106L346.614 536.233C344.611 532.793 342.876 529.205 341.423 525.501C341.423 525.2 341.177 524.9 341.068 524.6C335.768 510.4 336.56 498.439 332.489 492.54C331.604 491.204 330.352 490.152 328.883 489.509L327.954 489.209C324.929 488.606 321.788 489.079 319.075 490.547C303.367 497.783 312.519 522.961 316.644 533.12C316.835 533.584 317.054 534.075 317.245 534.567C320.874 542.622 325.731 550.065 331.643 556.631C335.221 560.591 343.8 563.895 351.176 567.254C357.869 570.313 363.524 573.426 363.524 577.14Z" fill="#515182"/>
<path d="M376.829 619.002C376.805 617.991 377.178 617.012 377.867 616.271C378.877 615.33 379.525 614.064 379.697 612.694C379.697 611.957 380.107 611.329 381.009 611.629C381.91 611.929 381.719 612.694 381.61 613.349C381.61 614.414 380.489 615.288 380.599 616.408C381.773 616.927 382.156 615.862 382.894 615.671C383.631 615.479 384.287 615.343 384.806 615.944C385.325 616.544 384.997 617.227 384.533 617.773C384.068 618.319 383.331 619.111 382.757 619.712C382.84 619.965 382.94 620.211 383.057 620.449C383.495 621.159 385.079 621.05 384.587 622.306C384.096 623.563 383.003 623.016 382.129 623.016C380.052 623.016 378.987 621.433 377.594 620.286C377.361 620.161 377.167 619.976 377.033 619.75C376.898 619.524 376.827 619.265 376.829 619.002Z" fill="#353264"/>
<path d="M311.809 602.126C312.461 601.588 313.236 601.219 314.065 601.052C314.895 600.885 315.752 600.926 316.562 601.17C318.584 601.443 320.551 602.044 322.545 602.345C327.364 603.121 332.228 603.586 337.107 603.737C339.401 603.737 341.614 604.311 343.854 604.556C351.75 605.458 359.672 606.058 367.568 606.714C374.452 607.26 381.228 607.806 388.221 608.543C388.849 608.558 389.455 608.777 389.948 609.166C390.441 609.555 390.794 610.094 390.953 610.701C391.456 611.844 391.77 613.061 391.882 614.305C392.055 619.195 391.955 624.091 391.582 628.97C390.926 634.813 389.533 640.575 389.205 646.474C388.963 649.297 388.516 652.099 387.866 654.857C387.093 659.696 386.892 664.608 387.265 669.494C387.265 673.29 386.5 676.949 386.473 680.718C386.488 681.111 386.4 681.502 386.218 681.852C386.036 682.202 385.766 682.498 385.435 682.711C384.697 682.52 384.643 682.001 384.724 681.373C385.413 677.238 385.787 673.057 385.845 668.866C385.899 667.614 385.761 666.362 385.435 665.152C385.163 664.401 385.079 663.595 385.189 662.804C385.981 657.342 386.937 652.072 387.593 646.665C388.085 642.514 388.495 638.473 389.205 634.213C390.184 628.503 390.659 622.719 390.625 616.927C390.659 615.903 390.53 614.88 390.243 613.896C389.096 610.182 388.932 610.346 385.052 609.882C379.057 609.582 373.084 608.953 367.158 607.997C366.704 607.942 366.246 607.942 365.792 607.997C357.849 607.798 349.924 607.16 342.051 606.086C338.145 605.649 334.156 605.266 330.167 605.157C323.965 604.738 317.817 603.723 311.809 602.126Z" fill="#353264"/>
<path opacity="0.29" d="M354.673 431.644C354.563 433.001 354.089 434.304 353.3 435.414C352.512 436.524 351.438 437.401 350.192 437.952C346.802 440.114 343.123 441.787 339.264 442.922C336.959 443.557 334.772 444.562 332.79 445.899C331.445 446.657 330.268 447.679 329.329 448.904C328.39 450.129 327.709 451.531 327.326 453.026C327.052 454.131 326.658 455.202 326.151 456.221C325.167 458.269 324.266 458.761 321.671 458.952C321.425 458.133 322.08 458.105 322.572 457.914C323.46 457.501 324.228 456.868 324.802 456.074C325.376 455.281 325.737 454.353 325.85 453.381C326.377 450.828 327.611 448.475 329.414 446.592C331.216 444.708 333.513 443.37 336.041 442.731C338.581 441.775 341.204 440.956 343.717 440C348.079 438.293 351.874 435.398 354.673 431.644Z" fill="#471C45"/>
<path opacity="0.29" d="M358.443 442.731C357.547 443.222 356.688 443.779 355.875 444.397C352.514 447.346 348.498 447.128 344.537 446.609C339.073 445.844 334.811 448.138 333.609 452.07C333.368 452.694 333.076 453.297 332.735 453.873C332.617 453.887 332.498 453.887 332.38 453.873C332.185 453.763 332.038 453.585 331.968 453.373C331.897 453.161 331.908 452.93 331.997 452.726C332.808 449.959 334.655 447.612 337.153 446.172C339.652 444.733 342.61 444.312 345.411 444.998C347.319 445.443 349.305 445.428 351.206 444.953C353.106 444.479 354.866 443.557 356.339 442.267C357.139 441.609 357.68 440.69 357.869 439.673C358.033 439.017 358.088 438.253 357.268 437.925C356.448 437.597 356.23 437.925 355.875 438.58C355.519 439.236 355.383 439.864 354.399 440.164C353.525 438.962 353.962 437.979 354.891 437.051C355.82 436.122 356.339 435.385 357.623 435.849C358.203 436.102 358.694 436.524 359.03 437.06C359.367 437.596 359.533 438.221 359.508 438.853C359.268 440.175 358.911 441.472 358.443 442.731Z" fill="#471C45"/>
<path opacity="0.29" d="M330.85 472.906C329.56 471.571 328.667 469.904 328.271 468.09C327.875 466.277 327.993 464.389 328.61 462.638C329.095 461.414 329.879 460.33 330.891 459.485C331.903 458.641 333.11 458.063 334.402 457.805C337.535 456.983 340.374 455.299 342.598 452.944C343.936 451.442 343.581 450.541 341.723 450.213C340.467 449.968 340.357 450.568 340.494 451.524C340.631 452.48 340.276 452.371 339.702 452.343C339.473 452.345 339.252 452.262 339.081 452.111C338.909 451.96 338.8 451.751 338.773 451.524C338.609 450.486 338.609 449.503 339.756 448.793C340.483 448.467 341.299 448.395 342.072 448.588C342.845 448.781 343.53 449.229 344.018 449.858C344.275 450.086 344.48 450.366 344.621 450.679C344.761 450.992 344.834 451.331 344.834 451.674C344.834 452.017 344.761 452.357 344.621 452.67C344.48 452.983 344.275 453.262 344.018 453.49C342.102 455.426 339.804 456.941 337.27 457.941C335.579 458.579 333.936 459.337 332.353 460.208C330.965 460.904 329.889 462.096 329.338 463.547C328.786 464.998 328.8 466.604 329.375 468.045C329.758 469.711 330.331 471.295 330.85 472.906Z" fill="#471B44"/>
<path opacity="0.29" d="M358.443 442.731C359.461 441.914 360.152 440.76 360.393 439.478C360.634 438.196 360.407 436.87 359.754 435.74C359.18 434.566 358.552 433.446 357.787 431.999C359.265 432.644 360.463 433.799 361.16 435.253C361.857 436.706 362.008 438.362 361.585 439.918C360.246 445.216 356.366 448.111 351.913 450.841C350.777 451.354 349.598 451.765 348.389 452.07C348.635 450.35 349.946 450.213 350.903 449.749C352.874 448.671 354.709 447.36 356.366 445.844C356.942 445.536 357.433 445.091 357.796 444.548C358.158 444.005 358.38 443.381 358.443 442.731Z" fill="#471B44"/>
<path d="M417.18 675.83H406.58C406.58 676.567 406.58 677.277 406.58 677.987C410.268 679.98 414.12 678.451 417.918 678.752C417.672 677.878 417.426 676.867 417.18 675.83Z" fill="#D7976C"/>
<path d="M401.689 578.942C407.372 571.432 412.617 571.514 417.835 579.515L388.986 717.064L382.429 715.508L401.689 578.942Z" fill="#2563AF"/>
<path d="M473.185 579.269C467.502 571.76 462.257 571.842 457.039 579.843L485.888 717.392L492.473 715.835C486.116 670.304 479.687 624.782 473.185 579.269Z" fill="#2563AF"/>
<path d="M489.385 571.268H387.839C385.591 571.268 383.768 573.09 383.768 575.337V577.276C383.768 579.523 385.591 581.345 387.839 581.345H489.385C491.634 581.345 493.456 579.523 493.456 577.276V575.337C493.456 573.09 491.634 571.268 489.385 571.268Z" fill="#2563AF"/>
<path d="M389.396 562.885C388.822 566.448 388.822 570.081 389.396 573.644C390.981 573.426 415.595 571.35 421.059 572.989C423.518 573.726 425.977 574.409 428.053 572.06C430.785 567.882 426.988 566.872 424.638 565.179C415.565 563.035 406.307 561.764 396.991 561.383C394.45 561.547 391.664 560.81 389.396 562.885Z" fill="#D7976C"/>
<path d="M392.647 565.998C390.407 571.869 372.349 570.531 362.596 568.319C341.177 563.486 326.124 547.101 316.781 533.12C318.72 538.253 331.014 569.521 359.099 576.484C372.239 579.734 389.341 577.795 393.439 571.323C395.454 567.895 397.024 564.224 398.111 560.4C395.898 560.4 393.658 560.4 391.418 560.236C392.058 561.034 392.503 561.971 392.717 562.971C392.93 563.972 392.906 565.008 392.647 565.998Z" fill="#353264"/>
<path d="M389.396 555.867C385.025 555.266 361.257 553 361.12 552.208C359.946 545.217 348.881 534.731 345.657 527.467C341.942 519.138 341.723 509.69 337.462 500.159C332.298 488.663 325.632 482.791 314.978 492.704C303.886 502.999 310.169 522.333 316.453 533.174C324.701 547.403 336.971 558.88 351.722 566.162C359.071 569.739 379.643 575.829 387.839 571.623C391.664 569.411 402.318 557.669 389.396 555.867Z" fill="#47447A"/>
<path d="M346.75 538.745C346.477 539.264 346.204 539.81 345.548 539.837C344.892 539.865 344.756 539.236 344.674 538.663C344.662 537.874 344.58 537.088 344.428 536.315C343.909 534.512 343.39 534.266 341.532 534.84C341.237 534.994 340.925 535.113 340.603 535.195C340.274 535.231 339.943 535.143 339.674 534.949C339.265 534.594 339.483 534.157 339.674 533.775C339.866 533.393 340.166 533.283 340.357 533.01C340.881 532.35 341.238 531.574 341.4 530.747C341.561 529.921 341.522 529.067 341.286 528.259C340.958 527.057 340.139 525.692 341.15 524.354C342.016 524.469 342.807 524.908 343.364 525.581C343.921 526.254 344.204 527.113 344.155 527.986C344.346 531.099 346.45 533.283 347.324 536.014C347.324 536.233 347.324 536.478 347.324 536.697C346.777 537.243 347.351 538.308 346.75 538.745Z" fill="#353264"/>
<path d="M302.274 592.923C300.067 593.378 297.959 594.22 296.045 595.408C295.089 595.982 294.351 596.064 293.805 595.627C293.361 595.234 293.039 594.722 292.876 594.152C292.607 593.413 292.432 592.642 292.357 591.858L292.193 589.565C292.002 586.288 291.838 583.011 291.783 579.734C291.756 579.388 291.756 579.041 291.783 578.696C291.77 578.596 291.77 578.495 291.783 578.396C292.734 564.205 294.623 550.092 297.438 536.151L297.602 535.878C298.258 534.976 298.914 535.168 299.433 536.041C299.56 536.193 299.653 536.37 299.706 536.56C299.706 537.134 299.706 537.707 299.87 538.308C300.362 542.104 301.727 545.736 301.864 549.531C301.824 550.745 301.555 551.94 301.072 553.054C300.381 555.632 300.315 558.338 300.881 560.946C301.244 562.764 301.131 564.646 300.553 566.408C300.103 568.046 299.783 569.716 299.597 571.405C299.05 576.368 299.591 581.39 301.181 586.124C301.769 587.473 302.502 588.755 303.367 589.947C304.323 591.585 304.022 592.459 302.274 592.923Z" fill="#353264"/>
<path d="M190.756 711.493C191.035 711.84 191.291 712.205 191.521 712.586C193.378 715.835 199.252 718.894 196.301 722.143C193.761 724.874 189.362 720.123 186.084 718.238C179.008 714.142 172.861 708.653 165.294 705.267C158.191 702.072 163.026 696.611 163.491 692.05C165.294 690.439 166.988 691.559 168.135 692.733C175.142 699.603 182.708 705.878 190.756 711.493Z" fill="#353264"/>
<path d="M186.548 705.813C181.576 698.113 174.637 691.204 176.468 680.745C175.607 680.402 174.776 679.991 173.981 679.516C172.116 678.356 170.478 676.866 169.146 675.12L163.491 692.05C165.922 691.859 166.769 693.962 168.053 695.327C174.555 702.209 181.522 708.435 190.756 711.493C190.4 708.845 187.832 707.807 186.548 705.813Z" fill="#D7976C"/>
<path d="M102.978 678.724L104.89 676.894C100.956 674.737 99.8361 668.347 93.7165 669.494C93.7165 669.494 82.7887 676.458 81.2861 679.926C82.2524 680.655 83.0451 681.589 83.6072 682.661C84.1694 683.732 84.4869 684.915 84.5372 686.124C85.7392 693.58 95.465 703.711 102.978 705.24C101.175 698.413 96.5578 692.542 96.2572 685.196C97.35 684.459 102.295 679.434 102.978 678.724Z" fill="#D7976C"/>
<path d="M103.388 700.543C103.579 700.953 103.825 701.335 103.989 701.745C105.355 705.213 110.709 709.118 107.294 711.903C104.371 714.306 100.738 708.872 97.7599 706.442C91.3945 701.362 86.1218 695.027 79.128 690.548C72.5713 686.343 78.1718 681.646 79.2919 677.195C81.3136 675.884 82.8162 677.195 83.7723 678.56C89.6909 686.418 96.2519 693.771 103.388 700.543Z" fill="#353264"/>
<path d="M84.0454 666.272C89.7667 658.085 96.5981 650.733 104.344 644.426C119.206 632.574 130.434 618.429 134.177 599.341C135.597 591.94 136.581 584.431 137.728 576.976C139.586 564.824 141.307 552.617 148.957 542.35C149.913 539.946 152.071 539.619 154.229 539.619C160.813 539.619 167.37 538.8 173.927 538.417C180.483 538.035 187.914 536.724 194.853 538.608C199.307 538.008 201.82 539.209 202.093 544.425C202.585 553.628 204.169 562.748 204.47 571.951C205.781 611.766 197.285 650.078 186.903 688.145C178.489 685.415 169.747 683.667 161.141 681.482C161.178 679.399 161.407 677.324 161.824 675.283C167.066 651.454 169.233 627.052 168.272 602.672C168.406 598.915 168.817 595.173 169.501 591.476C167.301 608.967 160.123 625.459 148.82 638.991C135.114 655.654 119.184 670.355 101.475 682.684C95.7109 677.359 90.7114 670.668 84.0454 666.272Z" fill="#C26346"/>
<path d="M202.093 538.854L203.678 549.504L143.411 547.729L146.798 540.165C146.798 540.165 168.818 521.459 202.093 538.854Z" fill="#353264"/>
<path d="M207.065 414.495C210.48 409.497 215.835 413.075 220.042 411.573C219.529 400.268 220.17 388.941 221.955 377.766C222.686 375.003 222.639 372.092 221.818 369.355C220.834 366.761 218.54 363.648 216.354 363.894C214.77 364.085 213.622 366.051 213.021 367.744C208.787 377.93 211.956 389.126 210.098 402.37C209.528 406.509 208.511 410.574 207.065 414.495Z" fill="#D7976C"/>
<path d="M122.184 553.109C120.402 552.804 118.678 552.223 117.075 551.388C115.22 550.407 113.562 549.093 112.185 547.511C105.764 552.208 100.847 558.761 93.6892 562.639C91.9954 563.568 90.0011 565.179 92.4598 567.664C92.6961 567.937 92.872 568.257 92.976 568.603C93.0801 568.949 93.1098 569.313 93.0634 569.672C93.017 570.03 92.8954 570.374 92.7067 570.682C92.5179 570.99 92.2663 571.255 91.9681 571.459C91.3807 571.961 90.9155 572.59 90.6077 573.298C90.2999 574.006 90.1578 574.775 90.192 575.547C90.2262 576.318 90.436 577.072 90.8053 577.75C91.1746 578.428 91.6937 579.013 92.3232 579.461C95.4104 580.416 99.7815 582.819 102.677 577.713C106.147 571.623 110.463 565.998 114.042 559.963C114.933 558.577 116.019 557.326 117.266 556.249C118.735 554.957 120.393 553.898 122.184 553.109Z" fill="#D7976C"/>
<path d="M114.589 540.301C122.566 526.402 131.172 512.803 136.827 497.701C137.892 494.971 138.685 491.967 139.559 489.099C138.835 481.531 141.111 473.981 145.897 468.073C150.255 463.167 156.068 459.782 162.486 458.412C168.905 457.041 175.593 457.757 181.576 460.454C181.673 459.851 181.848 459.264 182.095 458.706C182.652 457.522 183.521 456.512 184.609 455.784C197.613 446.936 201.711 433.255 204.689 418.973C205.028 416.144 205.959 413.418 207.421 410.972L207.83 409.552H222.118C221.644 419.58 220.466 429.563 218.594 439.427C217.035 447.526 215.02 455.531 212.557 463.403C211.028 465.787 209.729 468.31 208.677 470.94C208.677 470.94 206.355 475.937 204.634 480.935C199.88 494.588 212.83 535.96 202.093 544.425C196.629 548.767 190.892 539.728 172.042 541.093C157.262 542.131 147.809 548.576 143.411 544.07C141.007 541.64 141.389 537.352 142.072 534.157C138.767 536.888 135.297 539.81 131.745 543.196C128.194 546.582 125.052 549.941 122.266 553.109C121.536 553.515 120.723 553.748 119.889 553.791C116.938 553.928 113.96 551.416 112.267 547.511C112.373 544.942 113.176 542.45 114.589 540.301Z" fill="#515182"/>
<path d="M182.232 433.528C178.407 422.605 172.397 417.744 163.108 418.127C154.912 418.454 148.793 423.998 145.788 434.32C142.444 445.496 142.818 457.455 146.853 468.4C148.738 473.589 150.978 478.586 147.891 484.048C146.744 488.253 145.897 492.376 151.006 494.807C151.443 495.025 151.388 495.162 151.006 496.664C149.121 503.463 149.749 509.608 155.595 514.414C166.113 522.606 185.893 516.216 194.334 505.757C202.776 495.298 201.793 478.449 192.231 468.1C190.783 466.543 189.198 465.151 187.696 463.649C185.407 462.38 183.636 460.348 182.692 457.908C181.749 455.467 181.692 452.773 182.532 450.295C183.991 444.787 183.887 438.981 182.232 433.528Z" fill="#FE7146"/>
<path d="M175.402 678.833C176.331 678.833 176.577 678.123 176.85 677.523C178.586 673.957 179.757 670.143 180.319 666.217C181.166 659.172 182.696 652.263 183.98 645.3C184.409 643.08 184.701 640.837 184.855 638.582C185.262 634.264 185.946 629.977 186.903 625.747C188.297 617.855 189.635 609.991 191.083 602.099C191.138 601.344 191.138 600.587 191.083 599.832C191.275 595.381 191.083 590.903 191.766 586.533C192.53 581.39 192.886 576.195 192.832 570.995C192.845 570.137 193.188 569.316 193.788 568.701C195.12 567.145 196.007 565.258 196.356 563.24C196.991 560.769 197.303 558.227 197.285 555.676C197.332 555.341 197.273 555.001 197.116 554.702C196.959 554.403 196.713 554.161 196.411 554.01C196.028 558.325 196.056 562.612 193.679 566.353C192.941 562.339 193.679 558.161 192.914 554.146C191.739 554.693 192.149 555.512 192.149 556.14C192.34 563.731 191.657 571.268 191.493 578.833C191.493 582.847 190.428 586.861 190.209 590.903C190.209 592.514 189.963 594.125 189.936 595.709C189.691 602.883 188.702 610.012 186.985 616.981C186.275 620.204 186.193 623.508 185.374 626.703C184.01 632.78 183.024 638.936 182.423 645.136C182.123 647.866 181.303 650.597 180.839 653.192C180.046 657.643 179.281 662.094 178.598 666.572C178.091 669.552 177.248 672.466 176.085 675.256C175.757 676.294 174.91 677.577 175.402 678.833Z" fill="#C6ADAB"/>
<path d="M188.898 567.664C188.898 561.52 189.144 561.52 184.445 561.52C181.996 561.383 179.541 561.521 177.123 561.929C175.976 562.202 175.293 562.694 175.183 563.95C174.746 569.411 173.462 574.873 174.664 580.335C174.801 580.881 174.937 581.427 175.129 581.973C175.271 582.721 175.592 583.423 176.064 584.02C176.536 584.617 177.145 585.091 177.84 585.402C178.535 585.713 179.294 585.852 180.054 585.806C180.814 585.761 181.552 585.532 182.204 585.141C183.463 584.677 184.577 583.89 185.436 582.859C186.294 581.829 186.866 580.591 187.095 579.27C187.991 575.453 188.594 571.573 188.898 567.664Z" fill="#C6ADAA"/>
<path d="M149.066 571.678C149.066 573.835 149.066 576.129 149.066 578.368C149.019 578.673 149.038 578.985 149.122 579.282C149.205 579.579 149.352 579.854 149.551 580.09C149.751 580.325 149.998 580.515 150.277 580.647C150.557 580.779 150.861 580.849 151.169 580.853C153.309 581.335 155.552 581.018 157.474 579.962C159.396 578.905 160.866 577.183 161.605 575.119C162.582 572.486 163.18 569.727 163.381 566.926C163.381 565.807 163.791 564.715 163.873 563.595C164.037 561.137 163.108 560.018 160.677 559.908C158.245 559.799 155.404 559.908 152.754 559.908C150.678 559.908 150.213 560.427 149.639 562.448C149.117 565.495 148.925 568.59 149.066 571.678Z" fill="#C5ACA8"/>
<path d="M167.889 599.095C167.889 599.095 167.889 590.575 167.889 587.162C168.026 581.318 166.523 575.474 167.151 569.63C167.698 564.66 169.637 553.846 169.637 553.846C168.552 555.266 167.704 556.852 167.124 558.543C165.938 565.055 165.416 571.67 165.567 578.287C166.148 581.75 166.376 585.263 166.25 588.773C166.367 592.268 166.918 595.735 167.889 599.095Z" fill="#C5ADAA"/>
<path d="M169.173 441.775C169.878 446.117 169.776 450.551 168.872 454.856C168.279 457.073 168.427 459.424 169.295 461.549C170.163 463.674 171.704 465.457 173.681 466.625C175.702 467.963 177.724 469.356 179.773 470.721C181.908 471.958 183.719 473.686 185.054 475.761C186.388 477.836 187.21 480.199 187.45 482.655C187.468 483.031 187.514 483.405 187.586 483.774C187.586 483.774 187.586 483.774 187.996 484.184C188.279 482.45 188.181 480.675 187.709 478.982C187.237 477.289 186.403 475.719 185.264 474.381C183.368 472.156 181.138 470.24 178.653 468.701C176.524 467.407 174.52 465.917 172.67 464.249C171.352 463.013 170.414 461.425 169.969 459.674C169.524 457.922 169.589 456.08 170.157 454.364C171.265 450.178 170.918 445.739 169.173 441.775Z" fill="#C8AFAD"/>
<path d="M158.3 495.571C157.768 499.386 157.953 503.267 158.846 507.013C159.107 508.39 159.682 509.687 160.527 510.805C161.371 511.923 162.463 512.83 163.717 513.457C164.97 514.083 166.351 514.412 167.753 514.417C169.154 514.422 170.538 514.103 171.796 513.485C173.162 512.857 174.528 512.256 175.894 511.574C176.467 511.301 176.44 511.219 176.686 509.717C174.706 511.455 172.287 512.617 169.692 513.076C168.507 513.334 167.279 513.327 166.097 513.054C164.915 512.781 163.808 512.249 162.857 511.497C161.906 510.744 161.133 509.79 160.596 508.703C160.058 507.616 159.768 506.423 159.748 505.211C159.566 501.96 159.081 498.733 158.3 495.571Z" fill="#CAB1AD"/>
<path d="M165.266 431.426C167.56 432.144 169.597 433.511 171.129 435.363C172.661 437.214 173.623 439.47 173.899 441.857C174.471 446.158 174.184 450.53 173.052 454.719C172.452 456.384 172.531 458.218 173.271 459.826C174.227 453.135 176.167 446.499 174.473 439.618C173.664 436.582 171.866 433.901 169.364 431.999C168.82 431.498 168.137 431.175 167.405 431.072C166.672 430.97 165.926 431.093 165.266 431.426Z" fill="#CAB3AF"/>
<path d="M159.174 472.906C159.029 473.38 159.016 473.885 159.136 474.366C159.257 474.847 159.506 475.286 159.857 475.637C163.685 481.845 166.101 488.818 166.933 496.063C167.074 497.974 167.921 499.765 169.309 501.088C169.883 501.579 170.43 502.18 171.468 501.443C170.466 500.91 169.62 500.127 169.012 499.17C168.404 498.212 168.054 497.114 167.998 495.981C167.698 493.933 167.233 491.912 166.851 489.864C165.658 483.688 163.028 477.878 159.174 472.906Z" fill="#CAB3B0"/>
<path d="M182.259 563.295C180.948 563.295 179.527 563.295 178.325 563.295C177.123 563.295 176.495 564.032 176.44 565.261C176.385 566.489 176.74 566.653 177.724 566.599C180.543 566.676 183.365 566.548 186.166 566.216C187.095 566.025 187.778 565.943 187.778 564.769C187.778 563.595 186.985 563.267 185.947 563.267L182.259 563.295Z" fill="#FAF9F9"/>
<path d="M155.869 564.988C157.623 564.98 159.372 564.788 161.087 564.414C161.77 564.414 162.48 564.168 162.48 563.349C162.48 562.53 162.179 561.656 161.087 561.547C160.54 561.547 159.967 561.547 159.42 561.547C157.591 561.642 155.757 561.523 153.956 561.192C153.543 561.06 153.102 561.04 152.678 561.134C152.254 561.228 151.863 561.432 151.544 561.726C151.225 562.02 150.989 562.394 150.861 562.808C150.733 563.223 150.717 563.664 150.814 564.086C150.978 565.151 151.907 564.933 152.59 564.988C153.273 565.042 154.339 564.988 155.869 564.988Z" fill="#FCFCFC"/>
<path d="M185.701 463.785C185.758 464.24 185.915 464.677 186.161 465.064C186.407 465.451 186.735 465.779 187.122 466.024C192.606 471.07 197.376 476.839 201.301 483.174C202.245 485.007 202.626 487.078 202.393 489.127C202.393 489.919 202.749 490.738 203.677 490.711C202.803 488.198 203.541 485.249 202.066 482.846C200.59 480.443 199.88 479.269 198.623 477.166C195.256 471.886 190.862 467.335 185.701 463.785Z" fill="#F0E7E3"/>
<path d="M167.643 429.214C168.348 429.78 169.202 430.131 170.102 430.224C178.789 431.808 183.106 434.675 183.324 443.878C183.018 446.076 183.205 448.315 183.871 450.432C184.253 451.196 184.69 451.196 185.237 450.677C183.215 449.039 184.007 445.789 183.898 443.468C184.055 441.028 183.663 438.583 182.751 436.314C179.636 430.634 173.626 430.006 167.643 429.214Z" fill="#F0E7E3"/>
<path d="M154.748 498.93C154.011 499.531 153.929 500.596 153.683 501.442C151.525 509.334 153.109 516.544 160.813 520.339C162.753 521.135 164.895 521.298 166.933 520.804C167.315 520.769 167.668 520.587 167.918 520.296C168.167 520.006 168.294 519.63 168.272 519.247C166.123 520.212 163.682 520.3 161.469 519.493C159.311 518.592 158.218 518.51 156.797 516.243C152.973 510.236 154.202 505.812 154.748 498.93Z" fill="#F0E7E3"/>
<path d="M152.836 432.846C153.031 432.502 153.204 432.146 153.355 431.781C155.107 432.942 156.463 434.61 157.244 436.561C158.025 438.512 158.193 440.655 157.726 442.704C157.289 445.107 156.934 447.537 156.497 449.94C155.936 452.316 155.943 454.79 156.518 457.162C157.092 459.534 158.217 461.738 159.802 463.594C160.054 463.873 160.291 464.165 160.513 464.468C160.513 464.468 160.513 464.632 160.513 465.041C159.099 464.042 157.915 462.753 157.038 461.261C156.162 459.768 155.614 458.106 155.431 456.385C155.135 453.475 155.292 450.536 155.896 447.674C156.401 445.275 156.675 442.833 156.715 440.382C156.759 438.901 156.426 437.432 155.748 436.114C155.069 434.796 154.067 433.671 152.836 432.846Z" fill="#C8AFAD"/>
<path d="M222.118 409.552C221.736 407.094 221.326 404.637 220.916 402.206L210.125 402.397L207.803 409.552C209.36 410.58 211.122 411.26 212.966 411.546C216.157 411.98 219.398 411.274 222.118 409.552Z" fill="#353264"/>
<path d="M113.687 541.94L110.108 548.794L117.867 556.276L124.751 551.771C124.12 550.34 123.302 549 122.32 547.784C120.065 545.045 117.068 543.016 113.687 541.94Z" fill="#353264"/>
<path d="M148.246 500.459C149.479 506.211 149.56 512.15 148.486 517.933C147.413 523.716 145.205 529.23 141.99 534.157" fill="#353264"/>
<path d="M216.627 448.52C216.627 448.52 207.175 445.789 209.77 444.124C210.509 443.627 211.379 443.362 212.27 443.362C213.16 443.362 214.031 443.627 214.769 444.124C214.769 444.124 206.574 438.662 209.306 438.334C212.038 438.007 217.775 443.441 217.775 443.441L216.627 448.52Z" fill="#353264"/>
<path d="M538.26 345.106C540.992 343.018 544.304 341.825 547.74 341.692C548.801 341.648 549.864 341.721 550.909 341.911C551.492 338.122 551.222 334.25 550.117 330.578C547.986 323.779 542.495 316.706 539.38 317.634C536.867 318.344 536.484 324.024 536.184 328.339C535.811 334.009 536.515 339.698 538.26 345.106Z" fill="#684832"/>
<path d="M625.764 399.339L564.022 376.291L552.739 338.224L536.184 343.495C535.036 347.973 529.08 372.823 543.86 395.079C558.64 417.335 587.572 427.63 616.367 420.776C619.508 413.621 622.65 406.494 625.764 399.339Z" fill="#C26346"/>
<path d="M657.264 397.837C648.959 394.261 639.652 393.758 631.01 396.417C628.729 396.431 626.461 396.743 624.262 397.346C621.627 398.006 619.043 398.855 616.53 399.885C611.34 402.397 612.159 412.146 609.4 421.977C605.766 434.894 600.357 432.354 597.789 442.949C593.937 458.815 603.554 475.2 608.526 483.665C609.427 485.167 610.903 487.079 612.569 489.564C615.738 494.261 623.196 501.606 630.518 502.863C634.862 503.627 646.5 501.115 647.401 500.733C650.746 499.497 653.922 497.845 656.854 495.817C662.195 492.137 666.701 487.373 670.077 481.836C674.947 471.448 677.581 460.154 677.808 448.684C678.081 429.869 671.77 404.282 657.264 397.837Z" fill="#FE7146"/>
<path d="M636.064 412.256C628.474 427.927 622.312 444.25 617.651 461.027C619.973 463.949 622.295 466.871 624.727 469.738C628.906 467.554 632.922 465.178 637.075 462.829C637.075 445.571 637.567 428.313 637.43 410.945L636.064 412.256Z" fill="#353264"/>
<path d="M631.01 396.308C631.01 397.127 631.42 403.817 635.081 405.237C637.621 406.221 640.545 404.2 645.735 400.65C648.176 399.021 650.478 397.194 652.62 395.188C652.837 393.921 653.176 392.677 653.631 391.474C654.363 389.594 655.346 387.821 656.554 386.204C657.152 385.068 657.646 383.88 658.029 382.654C658.137 382.241 658.219 381.821 658.275 381.398C658.275 379.268 660.051 377.384 659.067 375.144C658.275 374.161 656.882 374.052 656.035 373.124C656.035 372.96 655.871 372.796 655.898 372.687C657.701 361.764 656.117 359.388 645.162 356.794C643.06 355.898 640.828 355.344 638.55 355.155C637.751 358.077 636.643 360.906 635.245 363.593C631.475 370.884 628.224 372.004 628.005 376.646C627.901 378.418 628.184 380.19 628.835 381.841C629.486 383.492 630.489 384.981 631.775 386.204C632.795 387.183 633.923 388.044 635.135 388.771C635.433 388.854 635.71 388.998 635.95 389.192C636.19 389.387 636.388 389.628 636.531 389.902C636.674 390.176 636.76 390.476 636.783 390.784C636.806 391.092 636.766 391.401 636.665 391.693C646.555 391.884 649.451 390.874 652.675 386.832C651.65 388.858 650.103 390.574 648.194 391.802C644.315 394.232 640.545 391.966 634.89 394.232C633.514 394.758 632.211 395.455 631.01 396.308Z" fill="#684832"/>
<path d="M638.55 355.182C641.036 357.531 644.342 357.722 647.374 358.678C655.898 361.409 657.073 363.566 654.313 371.977C653.63 374.052 653.63 374.052 655.652 373.779C657.182 373.779 658.958 371.922 660.215 373.779C661.471 375.636 660.214 377.029 659.368 378.476C658.87 379.9 658.121 381.223 657.155 382.381C656.554 383.582 655.516 384.702 656.554 386.149C658.111 385.33 659.668 384.429 661.253 383.637C668.738 379.978 671.552 373.533 671.634 365.696C671.716 357.859 667.509 353.517 660.706 350.868C656.995 349.474 653.528 347.502 650.434 345.024C646.883 342.129 641.555 343.085 637.758 347.236C635.463 349.885 636.61 352.616 638.55 355.182Z" fill="#2D0E2D"/>
<path d="M631.01 396.308C634.305 396.344 637.597 396.079 640.845 395.516C642.864 395.331 644.84 394.814 646.691 393.987C650.271 391.847 652.921 388.448 654.122 384.456C652.393 386.876 649.901 388.646 647.046 389.481C643.598 390.13 640.074 390.277 636.583 389.918C636.277 390.821 635.845 391.676 635.299 392.457C634.198 394.065 632.727 395.386 631.01 396.308Z" fill="#60422D"/>
<path d="M657.155 382.463C659.887 381.644 660.679 379.241 661.499 377.001C662.127 375.254 662.537 373.233 660.57 372.086C658.603 370.939 656.772 371.813 655.652 373.861C656.39 374.516 656.745 375.964 658.22 375.144C660.051 374.789 659.559 375.909 659.422 376.919C659.149 378.667 657.319 379.65 657.483 381.644L657.155 382.463Z" fill="#684832"/>
<path d="M657.483 381.562C658.712 379.705 660.515 378.121 660.624 375.69C660.624 374.544 660.187 373.506 658.903 373.479C657.619 373.451 657.92 374.298 658.22 375.062C659.559 377.411 656.035 379.213 657.483 381.562Z" fill="#60422D"/>
<path d="M631.01 639.893H617.213C617.951 639.019 618.743 638.172 619.536 637.353C623.115 636.937 626.738 637.085 630.272 637.79C630.545 638.555 630.819 639.346 631.01 639.893Z" fill="#353264"/>
<path d="M632.349 652.427C631.183 653.87 629.695 655.02 628.005 655.786C617.106 659.822 605.655 662.17 594.047 662.749C593.391 661.957 592.162 661.193 591.67 660.373C590.304 658.271 590.276 657.151 592.845 656.168C599.235 653.95 605.307 650.902 610.903 647.102C611.528 646.581 612.096 645.995 612.597 645.354C614.154 643.579 615.629 641.722 617.186 639.893H630.983C632.345 643.922 632.811 648.199 632.349 652.427Z" fill="#353264"/>
<path d="M632.922 656.905L632.512 657.779C632.253 658.376 631.837 658.892 631.308 659.272C630.779 659.652 630.156 659.882 629.507 659.936C626.994 660.291 624.535 660.728 622.076 661.193C618.388 661.93 614.755 662.722 611.149 663.295C606.143 664.024 601.054 663.96 596.068 663.104C595.412 663.104 594.811 662.913 594.183 662.776C594.658 662.449 595.172 662.183 595.713 661.984C597.047 661.477 598.467 661.236 599.893 661.274C605.798 661.216 611.638 660.039 617.104 657.806L618.334 657.342C622.923 655.485 627.841 654.611 632.376 652.454C632.376 652.809 632.376 653.191 632.376 653.601C632.413 654.722 632.597 655.832 632.922 656.905Z" fill="#353264"/>
<path d="M662.373 639.838C658.193 640.166 653.931 639.838 649.751 639.838C650.543 639.019 651.308 638.2 652.128 637.462C655.337 637.096 658.582 637.17 661.772 637.681L662.373 639.838Z" fill="#353264"/>
<path d="M665.76 652.645C665.76 653.574 663.301 654.666 661.526 655.212L653.33 657.779C644.113 660.864 634.585 662.925 624.917 663.924C624.152 663.132 622.814 662.422 622.185 661.575L622.022 661.302C621.011 659.609 620.874 658.708 622.295 657.888L622.978 657.561L623.551 657.342H623.77C625.846 656.578 627.895 655.758 629.89 654.857C630.71 654.547 631.513 654.191 632.294 653.792C636.05 652.007 639.626 649.867 642.976 647.402C643.635 646.861 644.231 646.248 644.751 645.573C646.363 643.743 647.948 641.804 649.642 640.111C653.822 640.111 658.083 640.466 662.263 640.111L665.569 652.727C665.625 652.684 665.691 652.656 665.76 652.645Z" fill="#353264"/>
<path d="M666.225 657.779C665.912 658.294 665.47 658.718 664.943 659.01C664.416 659.302 663.822 659.452 663.22 659.445C656.547 660.294 649.939 661.59 643.44 663.323C637.348 664.619 631.07 664.785 624.917 663.814C626.84 662.718 629.015 662.143 631.228 662.148C637.235 661.685 643.119 660.208 648.631 657.779L651.172 656.741C655.898 654.721 660.897 654.011 665.678 652.454C666.233 653.408 666.525 654.491 666.525 655.594C666.609 656.336 666.505 657.087 666.225 657.779Z" fill="#353264"/>
<path d="M640.872 620.914C640.872 623.918 640.763 626.921 640.545 629.925C640.381 633.23 640.107 636.534 639.752 639.838H631.065C630.873 639.183 630.6 638.5 630.327 637.817C626.793 637.112 623.17 636.965 619.59 637.38C618.798 638.2 618.006 639.046 617.268 639.92H616.394C616.088 639.921 615.785 639.967 615.492 640.056C615.492 636.643 615.301 633.257 615.247 629.871C615.192 626.485 615.247 623.863 615.247 620.859C615.11 614.879 615.001 608.898 614.837 602.945C614.837 599.586 614.837 596.282 614.618 592.951C614.618 591.258 614.618 589.537 614.345 587.817C614.072 586.096 614.345 585.25 614.099 583.939C614.099 583.202 614.099 582.464 613.908 581.673C612.651 573.071 611.176 564.523 610.001 556.031C609.564 553.027 609.182 550.023 608.799 547.019C607.515 537.783 606.721 528.485 606.422 519.165C606.422 516.161 606.422 513.158 606.422 510.099C606.422 506.276 606.723 502.371 607.133 498.493C607.433 495.435 607.843 492.322 608.062 489.181C608.244 487.111 608.317 485.033 608.28 482.955V482.655H608.881H627.841L628.852 482.846C630.682 483.228 632.513 483.529 634.316 483.747C635.245 483.884 636.201 483.966 637.048 484.048C637.048 485.468 637.048 486.778 636.911 488.28C636.911 490.11 636.911 491.912 636.911 493.742C636.911 496.718 636.911 499.667 636.911 502.617C636.911 505.566 637.102 509.116 637.239 512.338C637.239 512.338 637.239 512.584 637.239 512.693C637.239 513.758 637.239 514.796 637.376 515.888L638.031 527.631C638.031 529.214 638.222 530.798 638.332 532.382V532.846C638.332 534.13 638.496 535.577 638.55 536.751C638.564 536.824 638.564 536.898 638.55 536.97C638.332 539.701 637.949 542.049 637.676 545.162C637.662 545.426 637.662 545.69 637.676 545.954C637.676 546.282 637.676 546.691 637.676 547.101C637.676 548.466 637.676 550.05 637.676 551.197C637.676 552.836 637.813 554.419 637.922 556.031C638.332 565.343 638.987 574.627 639.643 583.939C639.807 586.943 639.998 589.947 640.189 592.951C640.736 602.317 641.091 611.602 640.872 620.914Z" fill="#47447A"/>
<path d="M647.702 584.13C647.319 584.031 646.924 583.985 646.528 583.994H643.304C643.304 581.946 643.304 579.843 643.113 577.795C642.867 572.333 642.402 566.872 641.801 561.629L647.702 584.13Z" fill="#47447A"/>
<path d="M657.428 621.05C657.035 620.951 656.631 620.905 656.226 620.914H644.342C644.096 611.602 643.877 602.317 643.604 593.005H648.877C649.255 593.017 649.633 592.971 649.997 592.869L657.428 621.05Z" fill="#47447A"/>
<path d="M661.69 637.653C658.5 637.143 655.256 637.069 652.046 637.435C651.227 638.172 650.462 638.992 649.669 639.811C648.822 639.811 647.976 639.811 647.156 639.811C646.883 639.811 646.664 639.811 646.528 639.674C645.327 638.038 644.702 636.05 644.752 634.022C644.752 632.656 644.752 631.291 644.615 629.98H658.521C658.897 629.965 659.272 629.919 659.641 629.844L661.69 637.653Z" fill="#47447A"/>
<path d="M674.339 568.783C675.268 584.403 675.213 619.658 668.875 635.796L661.362 607.151C661.362 608.38 661.362 609.663 661.362 610.919C661.362 611.329 661.062 611.547 660.461 611.629C660.461 609.308 660.461 606.96 660.461 604.666C660.461 604.365 660.461 604.038 660.461 603.737L638.605 520.613C638.824 523.343 639.233 526.074 639.507 529.051C638.948 528.865 638.474 528.488 638.168 527.986C638.168 524.19 637.84 520.339 637.54 516.407C637.54 515.206 637.54 514.004 637.294 512.803C637.294 512.803 637.294 512.557 637.294 512.448C637.294 511.819 637.294 511.164 637.157 510.536C636.966 507.805 636.72 505.32 636.474 502.781C635.855 496.227 635.117 489.928 634.261 483.884C634.276 483.702 634.276 483.519 634.261 483.338C637.141 483.886 640.078 484.07 643.003 483.884C645.208 483.714 647.393 483.349 649.533 482.791H665.05C665.928 483.734 666.749 484.728 667.509 485.768C668.511 486.945 669.425 488.196 670.241 489.509C671.542 491.623 672.622 493.865 673.465 496.199C676.825 505.293 674.967 511.082 673.929 525.036C673.031 538.928 673.186 552.867 674.394 566.735C674.377 566.826 674.377 566.918 674.394 567.008C674.394 567.172 674.394 567.363 674.394 567.555C674.394 567.746 674.394 567.828 674.394 567.937C674.394 568.046 674.394 568.128 674.394 568.237C674.394 568.237 674.394 568.346 674.394 568.237C674.405 568.383 674.405 568.529 674.394 568.674V568.346C674.394 568.483 674.394 568.647 674.394 568.811L674.339 568.783Z" fill="#47447A"/>
<path d="M671.661 507.723C670.842 508.679 669.94 507.587 669.23 507.013C667.175 505.529 665.45 503.633 664.166 501.447C662.883 499.261 662.067 496.833 661.772 494.315C661.772 493.605 661.635 492.813 661.58 492.076C661.531 491.156 661.249 490.264 660.761 489.482C659.75 488.089 657.564 488.826 655.925 488.663C649.696 488.089 643.386 488.444 636.938 488.389H636.364C636.501 490.246 636.692 492.076 636.829 493.851C637.158 496.625 637.34 499.414 637.375 502.207C637.362 502.362 637.362 502.517 637.375 502.671C637.375 506.986 638.523 511.164 638.386 515.533C638.359 517.239 638.441 518.945 638.632 520.64C638.851 523.371 639.26 526.101 639.534 529.078C638.975 528.892 638.501 528.515 638.195 528.013V527.794C637.963 527.145 637.834 526.463 637.812 525.774C637.379 523.182 637.124 520.563 637.047 517.936C637.047 515.806 637.321 513.567 634.917 512.12C633.96 511.546 634.07 509.99 633.96 508.87C633.769 506.904 633.496 504.993 633.223 503.026C632.95 501.06 632.622 498.657 632.376 496.445C632.13 494.233 632.021 492.431 631.939 490.383C631.857 488.335 631.939 488.226 630.245 488.389H629.753C627.431 488.635 625.082 488.772 622.759 488.908L619.891 489.072C617.76 489.072 617.787 489.345 617.733 491.53C617.733 492.786 617.733 493.96 617.487 495.189C617.167 498.987 616.138 502.692 614.454 506.112C613.006 509.089 612.023 509.553 608.389 509.526C608.389 508.843 608.581 508.597 608.854 508.597C611.832 508.324 612.924 506.167 613.771 503.818C615.023 500.521 615.742 497.046 615.902 493.523C615.97 492.842 615.97 492.156 615.902 491.475C615.902 490.055 615.41 489.427 613.853 489.509C613.462 489.536 613.07 489.536 612.678 489.509C611.113 489.583 609.544 489.463 608.007 489.154C607.689 489.195 607.368 489.195 607.051 489.154C606.802 489.097 606.563 489.005 606.34 488.881V481.945H669.995C669.995 482.273 669.995 482.6 669.995 482.955V489.809C669.786 489.835 669.575 489.835 669.366 489.809C667.682 489.593 665.983 489.502 664.285 489.536C663.711 489.536 663.165 489.536 662.591 489.728C662.591 490.164 662.591 490.601 662.782 491.038C663.766 496.773 665.514 501.961 670.487 505.703C671.115 506.003 672.618 506.713 671.661 507.723Z" fill="#353264"/>
<path d="M661.444 607.151C661.444 608.38 661.444 609.663 661.444 610.919C661.444 611.329 661.143 611.547 660.542 611.629C660.542 609.308 660.542 606.96 660.542 604.666C660.542 604.365 660.542 604.038 660.542 603.737C660.761 599.177 660.542 594.644 660.542 590.083C660.346 584.566 660.438 579.043 660.815 573.535C661.239 566.163 661.13 558.771 660.488 551.416C660.205 547.31 660.305 543.187 660.788 539.1C660.952 537.707 660.788 536.369 660.788 534.867C660.788 534.157 660.542 533.338 661.307 532.601C662.1 557.423 661.69 582.328 661.444 607.151Z" fill="#353264"/>
<path d="M635.081 404.5C637.102 404.746 640.545 405.374 642.757 405.647C640.299 409.443 637.676 413.157 635.081 416.898C633.633 412.72 632.349 408.706 630.737 404.446C632.485 404.5 633.059 404.227 635.081 404.5Z" fill="#353264"/>
<path d="M652.62 395.216C648.44 398.875 641.555 400.677 637.375 404.364C639.261 407.313 641.228 411.955 643.113 414.904C648.303 409.443 653.521 404.309 658.657 398.957C656.226 395.816 656.472 395.052 652.62 395.216Z" fill="#FAF4F0"/>
<path d="M637.376 404.5C634.999 406.767 630.874 409.634 628.469 411.901C627.65 407.559 626.803 403.217 625.956 398.902C627.213 396.335 628.497 395.161 631.147 395.27C632.622 398.411 635.873 401.087 637.376 404.5Z" fill="#FAF4F0"/>
<path d="M564.05 376.482C564.05 376.482 558.968 383.828 560.252 384.675C561.536 385.521 562.984 382.545 562.984 382.545C562.984 382.545 561.318 394.587 563.148 392.321C564.979 390.054 564.651 384.484 564.651 384.484C564.651 384.484 564.487 388.88 565.99 389.071C567.492 389.262 565.99 377.602 565.99 377.602L564.05 376.482Z" fill="#D6CFCC"/>
<path d="M660.515 603.846C660.515 604.147 660.515 604.474 660.515 604.775C660.378 607.069 660.515 609.417 660.515 611.738C661.116 611.738 661.417 611.438 661.417 611.028C661.417 609.772 661.417 608.489 661.417 607.26L660.515 603.846ZM666.525 655.731L666.826 656.823C666.744 656.414 666.635 656.031 666.525 655.731ZM666.525 655.731C666.361 654.636 666.251 653.533 666.197 652.427C666.03 652.498 665.856 652.552 665.678 652.591V652.782L666.525 655.731ZM603.417 657.916C603.041 657.929 602.666 657.975 602.297 658.052L600.931 652.918L594.866 629.925C595.255 629.995 595.647 630.04 596.041 630.062H644.697C644.56 627.058 644.451 624.054 644.342 621.05H593.691C593.313 621.04 592.936 621.086 592.571 621.187L585.195 592.923C585.587 593.024 585.992 593.07 586.397 593.06H643.631C643.631 590.056 643.468 587.052 643.331 584.048H583.966C583.588 584.04 583.21 584.086 582.846 584.185L575.797 557.287L576.098 556.113H639.178C639.55 556.167 639.927 556.167 640.299 556.113L641.801 561.793C641.145 556.331 640.38 551.061 639.424 545.736C638.96 543.005 638.823 540.083 638.577 537.298C638.591 537.225 638.591 537.151 638.577 537.079C638.577 535.796 638.441 534.348 638.359 533.174V532.737C638.359 531.263 638.359 529.788 638.195 528.231C638.501 528.733 638.975 529.111 639.534 529.296C639.26 526.429 638.851 523.644 638.632 520.858L637.512 516.626V516.243L634.07 503.217L632.349 496.664L630.218 488.471L628.797 483.01L628.551 481.918L625.273 469.52L620.574 451.606L612.515 421.731C612.53 421.678 612.53 421.621 612.515 421.567C612.317 420.975 612.002 420.428 611.589 419.958C611.176 419.489 610.674 419.108 610.11 418.837C609.412 418.438 608.62 418.23 607.816 418.236C607.246 418.189 606.676 418.322 606.186 418.616C605.696 418.91 605.31 419.35 605.084 419.874C604.4 420.42 603.904 421.164 603.663 422.004L603.499 422.632L599.346 438.334L597.106 446.909L590.222 473.097H554.706C554.328 473.085 553.95 473.131 553.586 473.234L539.926 421.54C539.596 420.538 538.959 419.665 538.107 419.043C537.254 418.421 536.228 418.082 535.173 418.072C534.603 418.025 534.033 418.158 533.543 418.452C533.053 418.746 532.668 419.186 532.441 419.711C531.757 420.256 531.261 421 531.02 421.841L454.061 714.907C453.937 715.338 453.922 715.792 454.015 716.23C454.109 716.669 454.309 717.077 454.598 717.42C454.887 717.763 455.255 718.029 455.672 718.196C456.088 718.362 456.539 718.424 456.984 718.375C458.036 718.364 459.058 718.023 459.906 717.401C460.754 716.779 461.385 715.906 461.711 714.907L474.332 666.955C474.703 667.011 475.081 667.011 475.452 666.955H538.014C538.404 667.006 538.799 667.006 539.189 666.955L526.567 714.907C526.444 715.338 526.428 715.792 526.521 716.23C526.615 716.669 526.815 717.077 527.104 717.42C527.393 717.763 527.762 718.029 528.178 718.196C528.594 718.362 529.045 718.424 529.49 718.375C530.542 718.364 531.564 718.023 532.412 717.401C533.26 716.779 533.891 715.906 534.217 714.907L571.89 571.814L594.019 655.731L595.686 661.984L595.85 662.667V663.131C600.835 663.987 605.924 664.052 610.93 663.323C614.618 662.749 618.252 661.957 621.858 661.22L622.022 661.493C622.568 662.34 623.907 663.05 624.754 663.841C630.906 664.812 637.184 664.646 643.276 663.35C649.775 661.617 656.383 660.322 663.056 659.472C663.658 659.479 664.252 659.329 664.779 659.037C665.306 658.745 665.748 658.321 666.061 657.806L603.417 657.916ZM637.594 547.292C637.33 547.265 637.065 547.265 636.802 547.292H578.474L585.796 519.438H629.507C629.871 519.468 630.236 519.468 630.6 519.438L637.703 546.364L638.004 547.565L637.594 547.292ZM618.47 473.561C618.087 473.461 617.692 473.415 617.295 473.425H597.789L599.756 466.052L608.116 434.238L618.47 473.561ZM595.44 482.436H619.672C620.049 482.421 620.423 482.376 620.792 482.3L620.956 482.901L622.568 489.017L625.846 501.47L628.196 510.427C627.808 510.354 627.415 510.309 627.021 510.29H588.173L595.44 482.436ZM586.561 482.737C586.952 482.76 587.344 482.76 587.736 482.737L580.414 510.427H564.487C564.11 510.44 563.735 510.486 563.367 510.563L556.072 482.873L586.561 482.737ZM535.61 434.211L546.019 473.725H526.349C525.959 473.673 525.564 473.673 525.174 473.725L535.61 434.211ZM522.879 482.6C523.252 482.63 523.626 482.63 523.999 482.6H548.396L555.717 510.454H516.65C516.25 510.429 515.848 510.429 515.448 510.454L522.879 482.6ZM513.153 519.52C513.522 519.596 513.897 519.642 514.273 519.657H557.985L565.334 547.511H507.034C506.639 547.526 506.247 547.572 505.859 547.647L513.153 519.52ZM541.484 658.216C541.111 658.186 540.736 658.186 540.364 658.216H477.802C477.411 658.192 477.018 658.192 476.627 658.216L484.058 630.089C484.431 630.121 484.805 630.121 485.178 630.089H547.767C548.167 630.114 548.569 630.114 548.969 630.089L541.484 658.216ZM551.209 621.323C550.843 621.234 550.467 621.188 550.089 621.187H487.528C487.132 621.192 486.739 621.237 486.353 621.323L493.784 593.169C494.156 593.201 494.531 593.201 494.904 593.169H557.411C557.802 593.199 558.195 593.199 558.586 593.169L551.209 621.323ZM560.935 584.431C560.564 584.379 560.187 584.379 559.815 584.431H497.253C496.864 584.374 496.468 584.374 496.079 584.431L503.482 556.249C503.838 556.348 504.206 556.394 504.575 556.386H567.137H567.82L568.066 557.287L560.935 584.431ZM565.825 519.52H576.753C577.147 519.502 577.54 519.456 577.928 519.384L571.781 542.65L565.825 519.52Z" fill="#005CFB"/>
<path d="M671.88 472.606C664.916 482.975 654.64 490.676 642.73 494.452L635.518 478.422C639.851 473.053 643.648 467.272 646.855 461.164C653.248 449.148 651.39 441.639 657.127 421.704C660.788 408.924 662.591 402.589 664.831 402.589C671.579 402.124 690.785 443.113 671.88 472.606Z" fill="#C26346"/>
<path d="M638.277 484.484C638.277 484.484 620.137 486.423 622.678 489.482C625.218 492.54 623.688 501.388 626.666 501.115C629.644 500.842 642.73 494.397 642.73 494.397L638.277 484.484Z" fill="#684832"/>
<ellipse style="mix-blend-mode:multiply" opacity="0.1" cx="384" cy="692" rx="334" ry="52" fill="url(#paint3_linear_1489_6844)"/>
<defs>
<linearGradient id="paint0_linear_1489_6844" x1="142.175" y1="195.077" x2="53.2812" y2="28.6002" gradientUnits="userSpaceOnUse">
<stop stop-color="#F31E61"/>
<stop offset="1" stop-color="#7094FB"/>
</linearGradient>
<linearGradient id="paint1_linear_1489_6844" x1="708.551" y1="217.9" x2="640.746" y2="90.7593" gradientUnits="userSpaceOnUse">
<stop stop-color="#F31E61"/>
<stop offset="1" stop-color="#7094FB"/>
</linearGradient>
<linearGradient id="paint2_linear_1489_6844" x1="131.341" y1="497.853" x2="677.098" y2="32.5991" gradientUnits="userSpaceOnUse">
<stop stop-color="#F31E61"/>
<stop offset="1" stop-color="#7094FB"/>
</linearGradient>
<linearGradient id="paint3_linear_1489_6844" x1="132.852" y1="725.581" x2="170.282" y2="543.237" gradientUnits="userSpaceOnUse">
<stop stop-color="#F31E61"/>
<stop offset="1" stop-color="#7094FB"/>
</linearGradient>
</defs>
</svg>
