<?xml version="1.0" encoding="utf-8"?>
<!-- Generator: Adobe Illustrator 22.0.1, SVG Export Plug-In . SVG Version: 6.00 Build 0)  -->
<svg version="1.1" id="Layer_1" xmlns="http://www.w3.org/2000/svg" xmlns:xlink="http://www.w3.org/1999/xlink" x="0px" y="0px"
	 viewBox="0 0 192 192" style="enable-background:new 0 0 192 192;" xml:space="preserve">
<style type="text/css">
	.st0{fill:#F37149;}
</style>
<g>
	<path class="st0" d="M133.5,59.4c3.5,6.2,7.5,11.7,9.7,17.9c6.2,17.2,3.7,33.4-7.7,48c-2.4,3.1-2.2,5,1.1,6.9
		c1.1,0.7,3.1,0.5,4.5,0c11-3.8,22-0.4,28.6,8.9c5.6,7.9,5.8,18.5,0.4,27c-5.4,8.4-14.9,12.5-25.3,10.7c-8.8-1.5-16.7-9.4-18.8-18.4
		c-1.5-6.5-0.4-12.4,3-17.9c1.6-2.6,0.6-4-1-5.9c-1.9-2.2-3.4-1.5-5.5-0.3c-31.9,18.7-72.4-3-73.9-41c-0.1-1.9-0.7-5-1.8-5.4
		c-3.2-1.2-6.7-3.3-10.3-0.5c-3.6,2.8-7.5,4-11.9,2c-4.3-1.9-7.1-6.5-6.8-10.9c0.3-3.9,3.8-8.3,7.5-9.5c4.6-1.5,9.7-0.4,12.1,3.8
		c2.2,3.7,5.3,4.4,8.9,5.3c3.3,0.8,4.6-0.4,5.7-3.3c3.3-8.4,8.4-15.4,15.5-20.9c15.1-11.7,36.1-14,53.5-4.2c1.4,0.8,2.9,1.5,4.4,2.3
		c1.5-1.7,2.8-3.3,4.2-4.6c2.7-2.8,3.8-5.4,1.9-9.5c-3.5-7.7-1.5-15,4.2-20.9c5.8-6,13.3-7.2,21-4.4c8,2.9,11.9,9.3,12.6,17.4
		c1,11.5-11,22.8-22.1,20.1c-6.3-1.5-9.2,0.9-12.2,5.2C134.5,58,133.8,59,133.5,59.4z M67,118.3c0-4.9-0.1-8.8,0-12.8
		c0.1-4.2,1.6-5.7,5.9-5.8c5.2-0.1,10.3-0.1,15.5,0c4.8,0.1,6,1.5,6.1,6.4c0.1,6.2,0,12.4,0,18.6c0,2.1-0.3,4.3,0.2,6.3
		c0.3,1.1,1.6,2.4,2.8,2.7c1.9,0.5,3.1-0.8,3.2-2.9c0-1.2,0.1-2.4,0.1-3.7c0-11.8,0-23.6,0-35.5c0-5.2,1.6-6.8,6.8-6.8
		c4.5-0.1,9.1,0,13.6,0c6,0,7.5,1.5,7.6,7.6c0.1,7,0,14,0,20.9c0,1.1,0.3,2.2,0.5,3.6c12.2-13.6,9.8-38.6-4.6-52
		C109,50.4,84.3,51.3,69,67C54.4,82,55.5,105.8,67,118.3z M149.7,169.8c8.4,0,15.1-6.5,15.3-14.8c0.1-8-6.9-15.2-15-15.2
		c-8.2,0-15.4,7.2-15.3,15.5C134.7,163.2,141.5,169.7,149.7,169.8z M110.2,131.3c8.6-2.1,9.4-3.2,9.4-10.9c0-7,0-13.9,0-20.9
		c0-5-0.3-5.3-5-5.2c-4.5,0-4.7,0.3-4.8,5c0,9.1,0,18.2,0,27.3C109.9,128,110,129.4,110.2,131.3z M159.9,32.7
		c0-6-4.2-10.5-10.1-10.5s-10.2,4.3-10.1,10.4c0,5.7,4.2,10.1,9.9,10.3S159.9,38.6,159.9,32.7z M85.2,130.9c0-6.7,0.1-13,0-19.3
		c0-3.2-2.6-2.7-4.7-2.8c-2.2-0.1-4.4,0-4.3,3.1c0,3.3,0,6.7,0,10C76.1,128.2,77.5,129.7,85.2,130.9z"/>
</g>
</svg>
