<?xml version="1.0" encoding="utf-8"?>
<!-- Generator: Adobe Illustrator 22.0.1, SVG Export Plug-In . SVG Version: 6.00 Build 0)  -->
<svg version="1.1" id="Layer_1" xmlns="http://www.w3.org/2000/svg" xmlns:xlink="http://www.w3.org/1999/xlink" x="0px" y="0px"
	 viewBox="0 0 48 48" style="enable-background:new 0 0 48 48;" xml:space="preserve">
<style type="text/css">
	.st0{fill:#F37149;}
</style>
<g>
	<path class="st0" d="M33.2,15c0.9,1.5,1.8,2.9,2.4,4.4c1.5,4.2,0.9,8.2-1.9,11.8c-0.6,0.8-0.5,1.2,0.3,1.7c0.3,0.2,0.8,0.1,1.1,0
		c2.7-0.9,5.4-0.1,7,2.2c1.4,1.9,1.4,4.5,0.1,6.6c-1.3,2.1-3.7,3.1-6.2,2.6c-2.2-0.4-4.1-2.3-4.6-4.5c-0.4-1.6-0.1-3,0.7-4.4
		c0.4-0.6,0.2-1-0.2-1.4c-0.5-0.5-0.8-0.4-1.3-0.1c-7.8,4.6-17.7-0.7-18.1-10.1c0-0.5-0.2-1.2-0.4-1.3c-0.8-0.3-1.6-0.8-2.5-0.1
		c-0.9,0.7-1.8,1-2.9,0.5c-1-0.5-1.7-1.6-1.7-2.7c0.1-1,0.9-2,1.8-2.3c1.1-0.4,2.4-0.1,3,0.9c0.5,0.9,1.3,1.1,2.2,1.3
		c0.8,0.2,1.1-0.1,1.4-0.8c0.8-2.1,2.1-3.8,3.8-5.1c3.7-2.9,8.8-3.4,13.1-1c0.3,0.2,0.7,0.4,1.1,0.6c0.4-0.4,0.7-0.8,1-1.1
		c0.7-0.7,0.9-1.3,0.5-2.3c-0.9-1.9-0.4-3.7,1-5.1C35.2,3.6,37,3.3,38.9,4c2,0.7,2.9,2.3,3.1,4.3c0.2,2.8-2.7,5.6-5.4,4.9
		c-1.5-0.4-2.3,0.2-3,1.3C33.4,14.7,33.3,14.9,33.2,15z M16.9,29.5c0-1.2,0-2.2,0-3.1c0-1,0.4-1.4,1.4-1.4c1.3,0,2.5,0,3.8,0
		c1.2,0,1.5,0.4,1.5,1.6c0,1.5,0,3,0,4.6c0,0.5-0.1,1.1,0.1,1.5c0.1,0.3,0.4,0.6,0.7,0.7c0.5,0.1,0.8-0.2,0.8-0.7c0-0.3,0-0.6,0-0.9
		c0-2.9,0-5.8,0-8.7c0-1.3,0.4-1.7,1.7-1.7c1.1,0,2.2,0,3.3,0c1.5,0,1.8,0.4,1.9,1.9c0,1.7,0,3.4,0,5.1c0,0.3,0.1,0.5,0.1,0.9
		c3-3.3,2.4-9.5-1.1-12.7c-3.9-3.6-9.9-3.4-13.7,0.5C13.8,20.6,14.1,26.4,16.9,29.5z M37.2,42.1c2.1,0,3.7-1.6,3.7-3.6
		c0-2-1.7-3.7-3.7-3.7c-2,0-3.8,1.8-3.7,3.8C33.5,40.5,35.1,42.1,37.2,42.1z M27.5,32.6c2.1-0.5,2.3-0.8,2.3-2.7c0-1.7,0-3.4,0-5.1
		c0-1.2-0.1-1.3-1.2-1.3c-1.1,0-1.2,0.1-1.2,1.2c0,2.2,0,4.5,0,6.7C27.4,31.8,27.4,32.2,27.5,32.6z M39.7,8.5c0-1.5-1-2.6-2.5-2.6
		c-1.4,0-2.5,1.1-2.5,2.6c0,1.4,1,2.5,2.4,2.5S39.7,9.9,39.7,8.5z M21.4,32.6c0-1.6,0-3.2,0-4.7c0-0.8-0.6-0.7-1.1-0.7
		c-0.5,0-1.1,0-1.1,0.8c0,0.8,0,1.6,0,2.4C19.1,31.9,19.5,32.3,21.4,32.6z"/>
</g>
</svg>
