<?xml version="1.0" encoding="utf-8"?>
<!-- Generator: Adobe Illustrator 22.0.1, SVG Export Plug-In . SVG Version: 6.00 Build 0)  -->
<svg version="1.1" id="Layer_1" xmlns="http://www.w3.org/2000/svg" xmlns:xlink="http://www.w3.org/1999/xlink" x="0px" y="0px"
	 viewBox="0 0 16 16" style="enable-background:new 0 0 16 16;" xml:space="preserve">
<style type="text/css">
	.st0{fill:#F37149;}
</style>
<g>
	<path class="st0" d="M11,5.1c0.3,0.5,0.6,0.9,0.8,1.4c0.5,1.4,0.3,2.6-0.6,3.8c-0.2,0.2-0.2,0.4,0.1,0.6c0.1,0.1,0.2,0,0.4,0
		c0.9-0.3,1.7,0,2.3,0.7c0.4,0.6,0.5,1.5,0,2.1c-0.4,0.7-1.2,1-2,0.8c-0.7-0.1-1.3-0.7-1.5-1.5c-0.1-0.5,0-1,0.2-1.4
		c0.1-0.2,0-0.3-0.1-0.5c-0.1-0.2-0.3-0.1-0.4,0C7.6,12.7,4.4,11,4.2,7.9c0-0.2-0.1-0.4-0.1-0.4c-0.3-0.1-0.5-0.3-0.8,0
		S2.7,7.8,2.4,7.6C2,7.5,1.8,7.1,1.8,6.8c0-0.3,0.3-0.7,0.6-0.8c0.4-0.1,0.8,0,1,0.3c0.2,0.3,0.4,0.4,0.7,0.4c0.3,0.1,0.4,0,0.5-0.3
		c0.3-0.7,0.7-1.2,1.2-1.7C7,3.9,8.6,3.7,10,4.5c0.1,0.1,0.2,0.1,0.4,0.2c0.1-0.1,0.2-0.3,0.3-0.4c0.2-0.2,0.3-0.4,0.2-0.8
		c-0.3-0.6-0.1-1.2,0.3-1.7c0.5-0.5,1.1-0.6,1.7-0.3c0.6,0.2,0.9,0.7,1,1.4c0.1,0.9-0.9,1.8-1.8,1.6c-0.5-0.1-0.7,0.1-1,0.4
		C11.1,5,11,5.1,11,5.1z M5.7,9.8c0-0.4,0-0.7,0-1c0-0.3,0.1-0.5,0.5-0.5c0.4,0,0.8,0,1.2,0c0.4,0,0.5,0.1,0.5,0.5c0,0.5,0,1,0,1.5
		c0,0.2,0,0.3,0,0.5C7.9,10.9,8,11,8.1,11c0.2,0,0.2-0.1,0.3-0.2c0-0.1,0-0.2,0-0.3c0-0.9,0-1.9,0-2.8c0-0.4,0.1-0.5,0.5-0.5
		c0.4,0,0.7,0,1.1,0c0.5,0,0.6,0.1,0.6,0.6c0,0.6,0,1.1,0,1.7c0,0.1,0,0.2,0,0.3c1-1.1,0.8-3.1-0.4-4.1C9,4.4,7.1,4.5,5.9,5.7
		C4.7,6.9,4.8,8.8,5.7,9.8z M12.3,13.9c0.7,0,1.2-0.5,1.2-1.2c0-0.6-0.6-1.2-1.2-1.2c-0.7,0-1.2,0.6-1.2,1.2
		C11.1,13.3,11.6,13.8,12.3,13.9z M9.1,10.8c0.7-0.2,0.7-0.3,0.7-0.9c0-0.6,0-1.1,0-1.7c0-0.4,0-0.4-0.4-0.4c-0.4,0-0.4,0-0.4,0.4
		c0,0.7,0,1.4,0,2.2C9.1,10.5,9.1,10.7,9.1,10.8z M13.1,3c0-0.5-0.3-0.8-0.8-0.8S11.5,2.5,11.5,3c0,0.5,0.3,0.8,0.8,0.8
		C12.7,3.8,13.1,3.4,13.1,3z M7.1,10.8c0-0.5,0-1,0-1.5C7.1,9,6.9,9,6.8,9C6.6,9,6.4,9,6.4,9.3c0,0.3,0,0.5,0,0.8
		C6.4,10.6,6.5,10.7,7.1,10.8z"/>
</g>
</svg>
