<?xml version="1.0" encoding="utf-8"?>
<!-- Generator: Adobe Illustrator 22.0.1, SVG Export Plug-In . SVG Version: 6.00 Build 0)  -->
<svg version="1.1" id="Layer_1" xmlns="http://www.w3.org/2000/svg" xmlns:xlink="http://www.w3.org/1999/xlink" x="0px" y="0px"
	 viewBox="0 0 32 32" style="enable-background:new 0 0 32 32;" xml:space="preserve">
<style type="text/css">
	.st0{fill:#F37149;}
</style>
<g>
	<path class="st0" d="M22.4,9.7c0.6,1.1,1.3,2,1.7,3.1c1.1,3,0.6,5.7-1.3,8.2c-0.4,0.5-0.4,0.9,0.2,1.2c0.2,0.1,0.5,0.1,0.8,0
		c1.9-0.7,3.8-0.1,4.9,1.5c1,1.4,1,3.2,0.1,4.6c-0.9,1.4-2.6,2.1-4.3,1.8c-1.5-0.3-2.9-1.6-3.2-3.2c-0.3-1.1-0.1-2.1,0.5-3.1
		c0.3-0.5,0.1-0.7-0.2-1c-0.3-0.4-0.6-0.3-0.9-0.1c-5.5,3.2-12.4-0.5-12.7-7c0-0.3-0.1-0.9-0.3-0.9c-0.5-0.2-1.1-0.6-1.8-0.1
		s-1.3,0.7-2,0.3c-0.7-0.3-1.2-1.1-1.2-1.9c0.1-0.7,0.6-1.4,1.3-1.6c0.8-0.3,1.7-0.1,2.1,0.6c0.4,0.6,0.9,0.8,1.5,0.9
		c0.6,0.1,0.8-0.1,1-0.6C9,11.2,9.9,10,11.1,9.1c2.6-2,6.2-2.4,9.2-0.7c0.2,0.1,0.5,0.3,0.8,0.4c0.3-0.3,0.5-0.6,0.7-0.8
		c0.5-0.5,0.7-0.9,0.3-1.6c-0.6-1.3-0.3-2.6,0.7-3.6c1-1,2.3-1.2,3.6-0.8c1.4,0.5,2,1.6,2.2,3c0.2,2-1.9,3.9-3.8,3.4
		c-1.1-0.3-1.6,0.2-2.1,0.9C22.6,9.5,22.5,9.7,22.4,9.7z M11,19.8c0-0.8,0-1.5,0-2.2c0-0.7,0.3-1,1-1c0.9,0,1.8,0,2.6,0
		c0.8,0,1,0.3,1,1.1c0,1.1,0,2.1,0,3.2c0,0.4,0,0.7,0,1.1c0,0.2,0.3,0.4,0.5,0.5c0.3,0.1,0.5-0.1,0.5-0.5c0-0.2,0-0.4,0-0.6
		c0-2,0-4.1,0-6.1c0-0.9,0.3-1.2,1.2-1.2c0.8,0,1.6,0,2.3,0c1,0,1.3,0.3,1.3,1.3c0,1.2,0,2.4,0,3.6c0,0.2,0.1,0.4,0.1,0.6
		c2.1-2.3,1.7-6.6-0.8-8.9C18.2,8.2,14,8.3,11.4,11C8.9,13.6,9,17.7,11,19.8z M25.2,28.6c1.4,0,2.6-1.1,2.6-2.5
		c0-1.4-1.2-2.6-2.6-2.6c-1.4,0-2.6,1.2-2.6,2.6C22.6,27.5,23.8,28.6,25.2,28.6z M18.4,22c1.5-0.4,1.6-0.6,1.6-1.9
		c0-1.2,0-2.4,0-3.6c0-0.9-0.1-0.9-0.9-0.9c-0.8,0-0.8,0-0.8,0.9c0,1.6,0,3.1,0,4.7C18.4,21.5,18.4,21.7,18.4,22z M27,5.2
		c0-1-0.7-1.8-1.7-1.8s-1.7,0.7-1.7,1.8c0,1,0.7,1.7,1.7,1.8C26.2,6.9,27,6.2,27,5.2z M14.1,22c0-1.1,0-2.2,0-3.3
		c0-0.6-0.5-0.5-0.8-0.5c-0.4,0-0.8,0-0.7,0.5c0,0.6,0,1.1,0,1.7C12.6,21.5,12.8,21.8,14.1,22z"/>
</g>
</svg>
