<?xml version="1.0" encoding="utf-8"?>
<!-- Generator: Adobe Illustrator 22.0.1, SVG Export Plug-In . SVG Version: 6.00 Build 0)  -->
<svg version="1.1" id="Layer_1" xmlns="http://www.w3.org/2000/svg" xmlns:xlink="http://www.w3.org/1999/xlink" x="0px" y="0px"
	 viewBox="0 0 624 148" style="enable-background:new 0 0 624 148;" xml:space="preserve">
<style type="text/css">
	.st0{fill:#F37149;}
</style>
<g>
	<path class="st0" d="M192.8,113.7c-6.3-2.1-12.3-4.8-17.3-9.3c-11.8-10.7-15.3-24.2-11.9-39.3c3.4-15,13.4-24.3,28-28.6
		c3.2-1,6.6-1.4,10-2.1c2.2,0,4.4,0,6.6,0c2.8,0.4,5.5,0.8,8.3,1.4c9.2,1.8,17.8,6.9,22.5,13.4c-4.5,4-9,8.1-13.6,12.3
		c-1.4-1.2-2.6-2.2-3.8-3.2c-7.1-5.8-18.2-7-25.9-2.9c-9.4,5-13.4,16.3-9.6,27.3c3.4,10,12.7,15.2,23.5,13.8
		c8.3-1.1,8.3-1.3,8.3-9.7c0-4.4,0-8.7,0-13.4c6.7,0,12.9,0,19.4,0c0.1,1.3,0.3,2.5,0.3,3.7c0,8.2-0.1,16.4,0.1,24.6
		c0,2.5-0.7,4.2-3,5.2c-5.4,2.3-10.7,4.6-16.1,6.9C210,113.7,201.4,113.7,192.8,113.7z"/>
	<path class="st0" d="M597.6,53.4c-16.1,0-32.3-0.1-48.4-0.1c-1.1,0-2.2,0-3.3,0c-1.4,0-2.4-0.5-2.4-2.1c0-4.7,0-9.5,0-14.4
		c1.1-0.2,2-0.5,2.8-0.5c16.5,0,33,0,49.5,0c0.6,0,1.2,0.1,1.8,0.2C597.6,42.2,597.6,47.8,597.6,53.4z"/>
	<path class="st0" d="M597.6,112.9c-2.9,0.1-5.9,0.2-8.8,0.2c-13.4,0-26.9,0-40.3,0c-1.4,0-2.9,0-4.9,0c0-5.3-0.1-10.3,0.1-15.2
		c0-0.6,1.1-1.4,1.9-1.7c1-0.3,2.2-0.1,3.3-0.1c16.3,0,32.5-0.1,48.8-0.1C597.6,101.7,597.6,107.3,597.6,112.9z"/>
	<path class="st0" d="M597.6,82.1c-2.8,0.1-5.6,0.2-8.4,0.2c-13.7,0-27.4,0-41,0c-1.3,0-2.6,0-4.3,0c0-5.5,0-10.6,0-16.4
		c18,0,35.9,0,53.8,0C597.6,71.3,597.6,76.7,597.6,82.1z"/>
	<path class="st0" d="M430.9,89.2c5.4,7.9,10.6,15.5,16.2,23.6c-1.5,0.2-2.4,0.4-3.3,0.4c-5.5,0-11-0.1-16.5,0.1
		c-2.7,0.1-4.2-0.9-5.6-3.1c-3.1-4.8-6.5-9.5-9.7-14.3c-1.3-2.1-2.8-3-5.3-3c-8.3,0-8.3-0.1-8.3,8.4c0,3.8,0,7.5,0,11.6
		c-7.5,0-14.5,0-21.8,0c0-12.1,0-24.2,0-36.7c1.3-0.1,2.6-0.2,3.8-0.2c9.1,0,18.1,0,27.2,0c2.1,0,4.2-0.2,6.2-0.5
		c6.3-0.9,9.5-4.3,9.6-10c0.2-6.4-2.6-10.1-9-11.4c-1.8-0.4-3.6-0.5-5.5-0.5c-9.4,0-18.8,0-28.3,0c-1.3,0-2.6,0-4.2,0
		c0-5.9,0-11.3,0-16.9c1-0.1,1.8-0.3,2.6-0.3c12,0,24-0.1,36,0.1c7.2,0.2,13.9,2.3,20,6.4c13.8,9.4,15.1,34.2-1,44.3
		C433.2,87.7,432.3,88.3,430.9,89.2z"/>
	<path class="st0" d="M293.7,36.5c22.9,0,45.5,0,68.5,0c0,5.7,0,11.2,0,17.2c-7.7,0-15.1,0-23.1,0c0,19.9,0,39.4,0,59.2
		c-7.6,0-14.6,0-22,0c0-19.5,0-39,0-59c-7.9,0-15.5,0-23.4,0C293.7,47.9,293.7,42.4,293.7,36.5z"/>
	<path class="st0" d="M257.5,36.5c7.2,0,14.1,0,21.3,0c0,25.5,0,50.8,0,76.4c-7,0-14,0-21.3,0C257.5,87.5,257.5,62.2,257.5,36.5z"/>
	<path class="st0" d="M524.7,36.6c0,5.6,0,10.8,0,16.4c-20.3,0-40.4,0-60.7,0c0-5.5,0-10.8,0-16.4C484.2,36.6,504.2,36.6,524.7,36.6
		z"/>
	<path class="st0" d="M463.9,112.8c0-5.5,0-10.7,0-16.3c20.3,0,40.5,0,60.8,0c0,5.5,0,10.7,0,16.3
		C504.5,112.8,484.4,112.8,463.9,112.8z"/>
	<path class="st0" d="M524.7,66.2c0,5.4,0,10.5,0,15.8c-20.3,0-40.4,0-60.7,0c0-5.3,0-10.4,0-15.8C484.1,66.2,504.2,66.2,524.7,66.2
		z"/>
	<path class="st0" d="M26.4,112.7c0-12.4,0-24.6,0-37.1c7.2,0,14.2,0,21.7,0c0,6.5,0,13,0,20.2c9.6-0.5,19,1.6,27.4-4.2
		c6.6-4.6,9.5-13.4,7.5-22.3c-1.9-8.1-7.6-13.7-15.7-15c-2.3-0.4-4.6-0.6-6.9-0.6c-9.8-0.1-19.6,0-29.4,0c-1.3,0-2.7,0-4.4,0
		c0-5.8,0-11.3,0-17c0.9-0.1,1.7-0.4,2.5-0.4c12.5,0,25-0.2,37.5,0.2c8.6,0.3,16.9,2.5,24.2,7.6c8.1,5.7,13,13.6,14.4,23.4
		c1.8,12.4-0.3,24-9.3,33.4c-7.2,7.5-16.4,11.5-26.5,11.9c-13.8,0.6-27.7,0.2-41.5,0.2C27.6,113.1,27.3,112.9,26.4,112.7z"/>
	<path class="st0" d="M123.3,36.5c7.3,0,14.3,0,21.6,0c0,25.5,0,50.7,0,76.3c-7.1,0-14.2,0-21.6,0C123.3,87.4,123.3,62.1,123.3,36.5
		z"/>
</g>
<g>
	<path d="M-129.4-191.8c3.8,6.8,8.2,12.9,10.7,19.6c6.8,18.9,4,36.7-8.5,52.7c-2.6,3.4-2.4,5.5,1.2,7.6c1.3,0.7,3.5,0.5,5,0
		c12-4.2,24.1-0.5,31.4,9.8c6.2,8.7,6.3,20.4,0.4,29.6c-5.9,9.3-16.4,13.7-27.7,11.7c-9.7-1.7-18.3-10.4-20.7-20.2
		c-1.7-7.1-0.4-13.6,3.2-19.7c1.8-2.9,0.7-4.4-1.1-6.5c-2.1-2.4-3.8-1.7-6-0.3c-35.1,20.6-79.5-3.2-81.1-45.1
		c-0.1-2.1-0.7-5.5-2-5.9c-3.5-1.3-7.4-3.6-11.3-0.5c-3.9,3-8.2,4.4-13,2.2c-4.7-2.1-7.8-7.2-7.4-12c0.3-4.3,4.1-9.1,8.2-10.4
		c5-1.7,10.6-0.4,13.3,4.1c2.4,4,5.8,4.9,9.8,5.8c3.6,0.8,5-0.4,6.3-3.6c3.6-9.2,9.2-16.9,17-23c16.6-12.8,39.7-15.3,58.7-4.7
		c1.6,0.9,3.2,1.7,4.8,2.6c1.7-1.9,3.1-3.6,4.6-5.1c3-3.1,4.2-5.9,2.1-10.5c-3.9-8.4-1.7-16.5,4.6-23c6.4-6.6,14.6-7.9,23.1-4.8
		c8.8,3.1,13,10.2,13.8,19.1c1.1,12.7-12,25.1-24.3,22.1c-6.9-1.7-10.1,1-13.4,5.7C-128.3-193.3-129.1-192.2-129.4-191.8z
		 M-202.5-127c0-5.4-0.1-9.7,0-14c0.2-4.6,1.8-6.3,6.5-6.4c5.7-0.1,11.3-0.1,17,0c5.3,0.1,6.6,1.6,6.7,7.1c0.1,6.8,0,13.7,0,20.5
		c0,2.3-0.3,4.7,0.2,7c0.3,1.2,1.8,2.7,3.1,3c2.1,0.5,3.4-0.8,3.5-3.1c0-1.3,0.1-2.7,0.1-4c0-13,0-26,0-39c0-5.7,1.8-7.4,7.5-7.5
		c5-0.1,10,0,15,0c6.6,0,8.3,1.7,8.3,8.3c0.1,7.7,0,15.3,0.1,23c0,1.2,0.3,2.4,0.6,4c13.4-14.9,10.8-42.4-5-57.1
		c-17.4-16.1-44.5-15.2-61.3,2C-216.3-166.9-215.1-140.8-202.5-127z M-111.7-70.5c9.2,0,16.6-7.1,16.8-16.3
		c0.2-8.8-7.6-16.6-16.5-16.7c-9,0-16.9,7.9-16.8,17C-128.1-77.7-120.7-70.5-111.7-70.5z M-155-112.8c9.4-2.3,10.4-3.5,10.4-12
		c0-7.7,0-15.3,0-23c0-5.5-0.3-5.8-5.5-5.7c-4.9,0-5.2,0.3-5.2,5.5c0,10,0,20,0,29.9C-155.4-116.4-155.2-114.8-155-112.8z
		 M-100.4-221c0-6.6-4.6-11.5-11.1-11.5c-6.5,0-11.1,4.8-11.1,11.4c0,6.3,4.6,11.1,10.8,11.3C-105.5-209.6-100.4-214.6-100.4-221z
		 M-182.5-113.1c0-7.3,0.1-14.3,0-21.2c-0.1-3.5-2.9-3-5.2-3c-2.4-0.1-4.8,0-4.8,3.4c0,3.7,0,7.3,0,11
		C-192.5-116.1-190.9-114.5-182.5-113.1z"/>
</g>
</svg>
