<?xml version="1.0" encoding="utf-8"?>
<!-- Generator: Adobe Illustrator 22.0.1, SVG Export Plug-In . SVG Version: 6.00 Build 0)  -->
<svg version="1.1" id="Layer_1" xmlns="http://www.w3.org/2000/svg" xmlns:xlink="http://www.w3.org/1999/xlink" x="0px" y="0px"
	 viewBox="0 0 512 512" style="enable-background:new 0 0 512 512;" xml:space="preserve">
<style type="text/css">
	.st0{fill:#F37149;}
</style>
<g>
	<path class="st0" d="M358.7,155.8c9.5,17,20.5,32.1,26.6,48.9c17,47.1,10,91.4-21.2,131.3c-6.6,8.4-6,13.8,2.9,19
		c3.1,1.8,8.6,1.3,12.4,0c30-10.4,60.1-1.2,78.3,24.4c15.3,21.6,15.8,50.7,1.1,73.8c-14.7,23.1-40.9,34.2-69.1,29.2
		c-24.1-4.2-45.6-25.8-51.5-50.3c-4.2-17.7-1.1-34,8.1-49c4.4-7.2,1.7-11-2.7-16.1c-5.1-6-9.4-4.1-15-0.8
		c-87.4,51.2-198-8.1-202.1-112.3c-0.2-5.2-1.8-13.6-4.9-14.8c-8.7-3.3-18.3-8.9-28.1-1.3c-9.8,7.6-20.5,10.9-32.5,5.4
		c-11.7-5.3-19.5-17.8-18.5-29.9c0.9-10.7,10.3-22.6,20.5-26c12.5-4.1,26.5-1,33.2,10.3c6,10,14.4,12.1,24.3,14.4
		c9.1,2.1,12.5-1.1,15.6-9c8.9-22.9,22.9-42.2,42.4-57.3c41.3-32,98.8-38.2,146.3-11.6c3.9,2.2,7.9,4.2,12.1,6.4
		c4.2-4.7,7.7-8.9,11.4-12.7c7.5-7.6,10.5-14.7,5.2-26.1c-9.7-21-4.1-41,11.6-57.2c16-16.5,36.4-19.6,57.5-12
		c21.8,7.8,32.5,25.4,34.4,47.7c2.7,31.6-30,62.5-60.5,55c-17.3-4.2-25.3,2.5-33.4,14.2C361.3,152,359.4,154.7,358.7,155.8z
		 M176.5,317c0-13.4-0.3-24.1,0.1-34.9c0.4-11.6,4.4-15.6,16.1-15.9c14.1-0.4,28.2-0.3,42.3,0c13.1,0.3,16.5,4,16.7,17.6
		c0.2,17,0,34,0.1,51c0,5.8-0.7,11.8,0.6,17.3c0.7,3,4.5,6.7,7.6,7.5c5.2,1.3,8.5-2.1,8.7-7.8c0.1-3.3,0.2-6.6,0.2-10
		c0-32.4-0.1-64.7,0.1-97.1c0.1-14.2,4.5-18.5,18.7-18.7c12.4-0.2,24.9-0.1,37.3,0c16.3,0.1,20.6,4.2,20.8,20.7
		c0.2,19.1,0,38.2,0.1,57.3c0,3,0.8,6,1.4,9.9c33.4-37.2,26.8-105.7-12.5-142.3c-43.3-40.2-110.8-37.9-152.6,5.1
		C142.1,217.8,145,282.9,176.5,317z M402.8,458c23,0.1,41.3-17.7,41.8-40.6c0.4-21.8-19-41.5-41.1-41.6
		c-22.5-0.1-42.1,19.7-41.8,42.3C361.9,440,380.4,457.8,402.8,458z M294.8,352.6c23.4-5.8,25.8-8.8,25.8-29.9
		c0-19.1,0.1-38.1,0-57.2c-0.1-13.7-0.9-14.4-13.8-14.3c-12.2,0.1-12.9,0.7-13,13.8c-0.1,24.9-0.1,49.7,0,74.6
		C293.9,343.6,294.4,347.6,294.8,352.6z M430.9,82.9c0.1-16.5-11.5-28.6-27.6-28.6c-16.1,0-27.8,11.9-27.7,28.5
		c0.1,15.7,11.5,27.7,27,28.2C418.1,111.5,430.8,99,430.9,82.9z M226.4,351.7c0-18.3,0.2-35.6-0.1-52.9c-0.1-8.8-7.2-7.4-12.8-7.6
		c-6.1-0.2-12,0-11.9,8.6c0.1,9.1-0.1,18.2-0.1,27.3C201.5,344.2,205.4,348.4,226.4,351.7z"/>
</g>
</svg>
