<svg width="928" height="642" viewBox="0 0 928 642" fill="none" xmlns="http://www.w3.org/2000/svg">
<g clip-path="url(#clip0_1259_11763)">
<path d="M731.001 362.579L694.773 362.254C690.736 362.22 687.486 358.915 687.52 354.875L687.863 317.91C687.897 313.869 691.198 310.616 695.235 310.65L726.588 310.941L726.537 316.591L726.161 357.135C726.109 362.22 730.984 362.596 730.984 362.596L731.001 362.579Z" fill="#005CFB" stroke="#5A96FC" stroke-miterlimit="10"/>
<path d="M726.195 357.135C726.143 362.22 731.018 362.596 731.018 362.596C731.018 362.596 736.099 363.196 736.15 357.237L729.667 357.186C729.667 357.186 726.195 356.981 726.195 357.152V357.135Z" fill="#005CFB" stroke="#5A96FC" stroke-miterlimit="10"/>
<path d="M693.507 353.779L719.028 354.019" stroke="#5A96FC" stroke-linecap="round" stroke-linejoin="round"/>
<path d="M693.558 348.026L719.079 348.266" stroke="#5A96FC" stroke-linecap="round" stroke-linejoin="round"/>
<path d="M693.695 333.37L719.216 333.61" stroke="#5A96FC" stroke-linecap="round" stroke-linejoin="round"/>
<path d="M693.746 327.635L719.267 327.857" stroke="#5A96FC" stroke-linecap="round" stroke-linejoin="round"/>
<path d="M693.627 340.698L719.147 340.938" stroke="#5A96FC" stroke-linecap="round" stroke-linejoin="round"/>
<path d="M717.651 321.734L704.412 321.614C703.127 321.602 702.095 320.55 702.107 319.264L702.107 319.247C702.119 317.961 703.17 316.928 704.455 316.94L717.693 317.06C718.978 317.072 720.01 318.124 719.998 319.41L719.998 319.427C719.987 320.713 718.936 321.746 717.651 321.734Z" fill="#5A96FC"/>
<path d="M264.427 423.514H313.467C317.067 423.514 319.984 426.435 319.984 430.037V471.077C319.984 474.68 317.067 477.601 313.467 477.601H264.427C260.828 477.601 257.91 474.68 257.91 471.077V430.037C257.91 426.435 260.828 423.514 264.427 423.514Z" fill="#5A96FC"/>
<path d="M306.352 450.908V469.262" stroke="#005CFB" stroke-miterlimit="10"/>
<path d="M299.527 450.908V469.262" stroke="#005CFB" stroke-miterlimit="10"/>
<path d="M293.42 454.144V469.262" stroke="#005CFB" stroke-miterlimit="10"/>
<path d="M287.673 465.667V469.262" stroke="#005CFB" stroke-miterlimit="10"/>
<path d="M280.831 455.583V469.262" stroke="#005CFB" stroke-miterlimit="10"/>
<path d="M275.083 434.369V469.262" stroke="#005CFB" stroke-miterlimit="10"/>
<path d="M268.977 434.369V469.262" stroke="#005CFB" stroke-miterlimit="10"/>
<path d="M310.73 456.011C307.344 449.231 303.375 446.337 300.228 447.672C292.685 450.908 290.17 463.852 285.86 463.493C276.572 462.722 284.064 434.369 268.618 432.931" stroke="white" stroke-miterlimit="10"/>
<path d="M586.31 523.623L586.259 512.22" stroke="#5A96FC" stroke-miterlimit="10"/>
<path d="M571.634 523.691L571.548 499.225" stroke="#5A96FC" stroke-miterlimit="10"/>
<path d="M559.147 523.743L559.044 497.633" stroke="#5A96FC" stroke-miterlimit="10"/>
<path d="M545.018 523.794L544.881 488.456" stroke="#5A96FC" stroke-miterlimit="10"/>
<path d="M532.532 523.845L532.344 475.392" stroke="#5A96FC" stroke-miterlimit="10"/>
<path d="M521.67 523.88L521.43 462.979" stroke="#5A96FC" stroke-miterlimit="10"/>
<path d="M503.22 444.581L610.536 444.15C614.305 444.135 617.373 447.181 617.388 450.954L617.716 532.571C617.731 536.343 614.687 539.414 610.918 539.429L503.602 539.861C499.833 539.876 496.765 536.83 496.75 533.057L496.422 451.44C496.407 447.667 499.451 444.596 503.22 444.581Z" stroke="#5A96FC" stroke-miterlimit="10"/>
<path d="M596.094 520.626L566.981 494.379C565.715 493.249 563.799 493.301 562.602 494.482L558.582 498.489C557.299 499.773 555.196 499.721 553.981 498.369L522.337 463.647" stroke="white" stroke-miterlimit="10"/>
<path d="M602.987 453.956L603.261 522.544C603.261 525.797 600.644 528.468 597.377 528.468L513.784 528.794" stroke="white" stroke-miterlimit="10"/>
<path d="M520.335 465.188L524.851 461.678C525.262 461.352 525.193 460.719 524.731 460.479L518.967 457.705C518.437 457.449 517.855 457.911 517.975 458.476L519.223 464.742C519.326 465.256 519.925 465.479 520.352 465.17L520.335 465.188Z" fill="white"/>
<path d="M144.076 206.484H243.747L259.244 218.486L260.219 206.484H285.21C288.956 206.484 292 203.436 292 199.687V172.412C292 168.663 288.956 165.615 285.21 165.615H144.093C140.347 165.615 137.302 168.663 137.302 172.412V199.687C137.302 203.436 140.347 206.484 144.093 206.484H144.076Z" fill="#5A96FC"/>
<path d="M230.183 192.804H146.898" stroke="#B3CEFD" stroke-miterlimit="10"/>
<path d="M230.183 185.048H146.898" stroke="#B3CEFD" stroke-miterlimit="10"/>
<path d="M230.183 176.795H146.898" stroke="#B3CEFD" stroke-miterlimit="10"/>
<path d="M242.567 171.505H280.198C281.879 171.505 283.242 172.869 283.242 174.552V197.529C283.242 199.212 281.879 200.577 280.198 200.577H242.567C240.885 200.577 239.522 199.212 239.522 197.529V174.552C239.522 172.869 240.885 171.505 242.567 171.505Z" fill="#B3CEFD"/>
<path d="M721.953 475.323C727.118 477.07 727.358 483.713 725.117 491.606C722.876 499.499 706.917 529.906 699.904 528.776C692.891 527.646 703.342 491.418 703.342 491.418L721.97 475.323H721.953Z" fill="black"/>
<path d="M612.839 437.468C617.304 440.601 615.628 447.056 611.232 453.973C606.853 460.89 582.889 485.494 576.491 482.412C570.077 479.33 590.415 447.587 590.415 447.587L612.839 437.468Z" fill="black"/>
<path d="M636.94 375.386C636.94 375.386 601.55 382.937 599.036 397.764C596.932 410.194 613.37 437.057 613.37 437.057C613.37 437.057 585.146 460.582 582.94 460.411C579.929 458.716 570.59 449.025 563.166 435.14C555.367 420.552 549.705 401.359 555.76 381.978C570.145 335.904 616.979 332.052 616.979 332.052L636.923 375.386H636.94Z" fill="#FF7E1A"/>
<path d="M582.957 460.411C579.947 458.716 570.607 449.025 563.184 435.14C555.384 420.552 549.722 401.359 555.777 381.978C570.162 335.904 616.996 332.052 616.996 332.052" stroke="black" stroke-linecap="round" stroke-linejoin="round"/>
<path d="M636.94 375.386C636.94 375.386 601.55 382.937 599.036 397.764C596.932 410.194 613.37 437.057 613.37 437.057" stroke="black" stroke-linecap="round" stroke-linejoin="round"/>
<path d="M613.592 339.106C613.575 346.519 627.961 371.157 635.23 376.499C635.23 376.499 633.879 422.23 646.759 453.785C659.639 485.34 688.991 502.221 695.047 503.848C695.047 503.848 708.508 501.776 716.445 490.425C724.382 479.073 720.071 469.793 720.071 469.793C720.071 469.793 699.46 451.336 697.15 447.244C689.162 433.017 691.454 349.173 691.454 349.173C691.454 349.173 665.643 350.868 647.631 348.095C629.603 345.321 613.575 339.106 613.575 339.106H613.592Z" fill="#FF7E1A"/>
<path d="M720.088 469.793C720.088 469.793 699.477 451.336 697.168 447.244C689.18 433.017 691.472 349.173 691.472 349.173" stroke="black" stroke-linecap="round" stroke-linejoin="round"/>
<path d="M634.529 228.553C623.376 224.307 604.698 219.616 592.502 202.135C581.674 186.623 575.003 162.533 568.315 143.306C562.311 126.03 559.934 124.986 558.292 125.346C556.65 125.705 556.735 135.002 557.83 138.118C557.83 138.118 553.622 127.434 551.809 127.434C549.996 127.434 549.517 134.66 551.227 140.412C551.227 140.412 546.712 131.612 544.146 131.972C542.623 132.194 545.018 142.655 545.018 142.655C545.018 142.655 540.058 133.256 538.723 136.526C537.714 139.026 541.546 153.544 541.546 153.544C541.546 153.544 550.013 199.276 565.219 222.03C576.868 239.459 590.261 250.297 612.138 257.3C613.13 257.625 634.529 228.553 634.529 228.553Z" fill="white" stroke="black" stroke-linecap="round" stroke-linejoin="round"/>
<path d="M638.686 228.724C638.686 228.724 630.578 226.413 624.215 223.194C615.166 218.606 605.639 212.75 605.639 212.75C605.639 212.75 590.347 239.305 587.866 251.496C587.866 251.496 607.058 263.892 615.046 261.974L638.668 228.724H638.686Z" fill="#FFE873"/>
<path d="M640.738 229.306C636.667 227.252 634.529 228.553 634.529 228.553C634.529 228.553 615.457 248.979 609.008 263.121C602.56 277.263 591.595 313.989 591.544 331.281C591.544 331.281 633.571 355.491 691.574 349.653C691.574 349.653 690.907 245.931 682.987 240.744C679.806 238.655 640.721 229.289 640.721 229.289L640.738 229.306Z" fill="#FFE873"/>
<path d="M687.213 298.734C687.863 305.171 662.119 330.305 647.956 330.939C633.793 331.59 599.686 322.567 595.82 312.893C595.82 312.893 641.525 321.916 661.469 312.242C681.414 302.586 687.213 298.717 687.213 298.717V298.734Z" fill="black"/>
<path d="M704.967 268.703C704.505 278.787 692.532 306.353 664.445 317.636C647.306 324.518 623.65 325.854 591.236 312.568C590.192 312.14 578.099 307.928 574.918 303.425C571.89 299.145 582.632 302.826 581.315 302.209C579.536 301.37 576.816 300.223 575.106 299.093C572.54 297.398 569.872 294.351 572.608 293.426C575.345 292.519 581.383 295.327 581.383 295.327C581.383 295.327 571.48 290.327 573.31 287.588C575.14 284.848 585.181 289.197 585.181 289.197C585.181 289.197 573.652 283.17 577.175 281.047C579.194 279.832 583.504 281.612 586.395 282.622C590.723 284.129 595.187 286.509 598.334 287.844C598.334 287.844 591.031 279.215 594.058 278.393C597.086 277.572 607.383 287.759 609.47 289.676C611.557 291.594 647.836 294.351 659.844 279.472C671.852 264.594 672.126 259.868 676.522 257.677C680.918 255.485 705.6 253.978 704.933 268.703H704.967Z" fill="white" stroke="black" stroke-miterlimit="10"/>
<path d="M693.233 300.463C693.233 300.463 673.289 286.132 659.708 279.729C659.708 279.729 674.178 256.564 674.589 238.107C674.589 238.107 692.994 241.959 699.99 252.129C706.285 261.272 713.828 276.305 693.233 300.446V300.463Z" fill="#FFE873"/>
<path d="M633.947 214.685C630.424 206.312 646.195 184.534 650.385 179.586C654.576 174.655 669.013 178.233 675.838 184.346C682.663 190.458 684.903 206.432 684.903 206.432L681.243 211.106C681.876 211.928 682.252 213.024 682.132 214.342C681.876 217.082 677.189 221.311 672.605 222.15L667.935 228.125L668.072 236.788C668.072 236.788 665.01 253.002 646.263 247.592C631.262 243.277 638.959 232.337 639.404 231.019L640.071 221.516C637.334 219.479 635.008 217.167 633.947 214.668V214.685Z" fill="white" stroke="black" stroke-miterlimit="10"/>
<path d="M676.025 210.439C676.025 210.439 672.279 214.24 670.295 213.606C668.602 213.075 667.729 211.261 668.02 209.018C668.431 205.747 677.171 196.399 677.171 196.399C677.171 196.399 676.846 185.852 662.872 180.425C654.028 176.984 652.078 179.535 652.078 179.535C652.078 179.535 642.363 164.69 647.255 158.424C652.147 152.158 661.401 152.945 669.885 160.924C676.521 167.156 684.116 175.956 683.688 183.473C683.688 183.473 692.395 183.849 693.832 190.612C695.269 197.375 688.512 199.515 688.512 199.515C688.512 199.515 693.815 198.967 693.524 203.299C693.233 207.631 687.571 216.876 679.771 215.883L676.025 210.439Z" fill="black"/>
<path d="M478.993 315.256C494.644 320.307 530.667 347.495 502.854 425.552C501.862 428.342 498.202 429.027 496.286 426.767C489.427 418.652 479.027 395.743 449.948 384.323L478.993 315.273V315.256Z" fill="#5A96FC"/>
<path d="M393.331 288.546C376.978 286.783 326.484 294.008 320.104 376.619C319.881 379.564 322.943 381.687 325.612 380.403C335.173 375.797 356.161 368.075 387.361 369.513L393.331 288.546Z" fill="#5A96FC"/>
<path d="M447.981 396.497C466.66 369.394 492.899 325.854 511.834 272.452C529.606 222.355 536.38 176.35 532.001 135.721C523.517 57.0313 502.888 30.1507 497.688 29.5172C497.5 29.4659 497.278 29.4316 497.038 29.4316C492.865 29.4316 462.965 43.0774 421.742 107.967C378.449 176.11 374.583 244.356 382.041 381.293L382.075 381.944L447.639 396.993L447.964 396.514L447.981 396.497Z" fill="#005CFB"/>
<path d="M497.038 30.2706C492.215 30.2706 462.161 45.9195 422.46 108.395C378.62 177.412 375.592 247.027 382.896 381.224L447.263 396C496.012 325.255 540.571 223.228 531.146 135.79C522.319 53.8638 500.664 30.3391 497.5 30.3391C497.38 30.2877 497.226 30.2535 497.038 30.2535V30.2706ZM497.038 28.5413C497.363 28.5413 497.637 28.5756 497.911 28.6612C501.212 29.2775 507.558 37.1362 513.784 51.6552C519.891 65.9173 528.169 92.0445 532.873 135.601C537.269 176.367 530.461 222.492 512.655 272.709C493.686 326.213 467.395 369.805 448.699 396.959L448.032 397.918L446.903 397.661L382.537 382.885L381.288 382.594L381.22 381.31C373.745 244.168 377.628 175.802 421.04 107.471C459.304 47.255 490.162 28.5413 497.055 28.5413H497.038Z" fill="white"/>
<path d="M455.08 386.378C455.08 386.378 410.384 369.924 381.1 368.897" stroke="white" stroke-miterlimit="10"/>
<path d="M422.46 108.413C463.598 43.2315 494.678 29.0721 497.5 30.3562C500.254 30.3562 518.248 48.0426 527.622 106.718C529.024 115.484 530.222 125.14 531.163 135.807C531.163 135.807 521.652 136.646 506.908 135.31C498.047 134.506 487.305 132.93 475.588 129.9C438.368 120.312 422.477 108.413 422.477 108.413H422.46Z" fill="#5A96FC"/>
<path d="M433.424 285.893C439.137 278.479 430.91 344.174 422.409 381.156C418.355 398.842 409.802 409.184 408.263 409.355C406.723 409.526 404.602 397.61 407.579 379.118C411 357.837 422.46 300.155 433.441 285.893H433.424Z" fill="#5A96FC"/>
<path d="M461.579 231.412C440.853 231.412 424.051 214.594 424.051 193.848C424.051 173.102 440.853 156.284 461.579 156.284C482.306 156.284 499.108 173.102 499.108 193.848C499.108 214.594 482.306 231.412 461.579 231.412Z" fill="#5A96FC"/>
<path d="M472.766 168.132C472.766 168.132 446.065 160.41 434.793 180.613" stroke="white" stroke-linecap="round" stroke-linejoin="round"/>
<path d="M566.947 152.568C566.947 152.568 564.415 141.936 561.884 141.422C559.352 140.909 557.402 154.058 560.447 158.116" stroke="black" stroke-linecap="round" stroke-linejoin="round"/>
<path d="M605.638 212.75C605.638 212.75 589.046 242.062 587.866 251.496" stroke="black" stroke-linecap="round" stroke-linejoin="round"/>
<path d="M674.384 259.697C670.296 265.843 663.129 273.514 659.708 279.729L693.233 300.463" stroke="black" stroke-linecap="round" stroke-linejoin="round"/>
<path d="M638.686 228.724C633.058 232.782 617.219 245.366 609.727 260.93" stroke="black" stroke-linecap="round" stroke-linejoin="round"/>
<path d="M691.591 349.67C691.591 349.67 643.526 358.093 591.561 331.298" stroke="black" stroke-linecap="round" stroke-linejoin="round"/>
<path d="M671.835 240.247C671.835 240.247 664.172 263.275 637.06 247.917" stroke="black" stroke-linecap="round" stroke-linejoin="round"/>
<path d="M635.23 376.499C635.47 376.67 628.114 366.021 628.114 366.021C628.114 366.021 617.099 358.556 618.142 343.181" stroke="black" stroke-linecap="round" stroke-linejoin="round"/>
<path d="M695.063 503.848C695.063 503.848 657.484 488.456 646.776 453.785C636.085 419.114 634.888 389.22 634.888 389.22" stroke="black" stroke-linecap="round" stroke-linejoin="round"/>
<path d="M437.77 393.244C437.77 393.244 396.563 538.929 395.383 563.276L437.77 393.244Z" fill="#005CFB"/>
<path d="M437.77 393.244C437.77 393.244 396.563 538.929 395.383 563.276" stroke="white" stroke-miterlimit="10"/>
<path d="M391.483 383.741C391.483 383.741 368.905 461.866 359.993 477.31L391.483 383.741Z" fill="#005CFB"/>
<path d="M391.483 383.741C391.483 383.741 368.905 461.866 359.993 477.31" stroke="white" stroke-miterlimit="10"/>
<path d="M406.861 599.06C429.97 584.181 408.212 550.897 384.539 566.7L406.861 599.06Z" fill="#005CFB"/>
<path d="M406.861 599.06C429.97 584.181 408.212 550.897 384.539 566.7" stroke="white" stroke-miterlimit="10"/>
<path d="M401.25 422.316C401.25 422.316 363.174 550.298 344.632 578.514L401.25 422.316Z" fill="#005CFB"/>
<path d="M401.25 422.316C401.25 422.316 363.174 550.298 344.632 578.514" stroke="white" stroke-miterlimit="10"/>
<path d="M177.534 379.495L154.39 412.265C144.315 426.528 128.271 435.653 110.841 436.184C106.496 436.321 102.579 436.03 99.8423 435.02C96.5239 433.787 96.2674 438.701 92.3332 441.44C92.3332 441.44 72.5085 458.39 84.0715 464.52C99.0555 472.464 138.431 475.306 153.86 469.417C180.886 459.092 191.525 438.221 196.366 429.044C199.719 422.71 203.311 418.635 203.311 418.635L177.534 379.495Z" fill="black"/>
<path d="M265.693 407.3C265.693 407.3 235.639 474.587 212.821 492.205C193.253 507.323 159.881 513.487 146.796 510.234L152.594 482.36L144.538 474.433C144.538 474.433 150.696 473.32 158.29 471.505C173.155 467.978 185.915 458.493 193.732 445.361L202.25 431.03C202.25 431.03 164.174 404.646 178.868 377.595L229.259 399.065L265.71 407.283L265.693 407.3Z" fill="black"/>
<path d="M203.482 246.77L206.424 242.302C206.424 242.302 221.682 239.596 220.655 236.532C219.629 233.467 210.82 233.827 210.82 233.827C210.82 233.827 219.287 222.287 219.287 218.229C219.287 214.171 212.171 216.876 210.478 219.582C210.478 219.582 199.137 213.555 191.731 217.459C185.299 220.849 177.807 237.199 177.807 237.199L203.465 246.77H203.482Z" fill="white" stroke="black" stroke-linecap="round" stroke-linejoin="round"/>
<path d="M383.444 289.043C388.182 281.236 392.116 269.182 389.739 263.412C387.361 257.642 370.53 250.794 370.53 250.794C370.53 250.794 372.223 244.014 369.845 240.281C367.468 236.549 359.104 261.888 355.323 273.634L383.427 289.043H383.444Z" fill="white" stroke="black" stroke-linecap="round" stroke-linejoin="round"/>
<path d="M253.908 282.057L253.223 270.586C253.223 270.586 263.538 259.389 272.107 258.327C280.677 257.266 293.797 262.231 294.412 268.309C295.011 274.387 294.481 294.676 287.262 299.282C284.833 300.822 281.412 301.901 277.94 302.654C277.085 304.521 274.143 310.753 272.347 312.26C269.952 314.263 244.842 301.952 244.448 300.754C244.055 299.556 248.776 295.412 253.925 282.04L253.908 282.057Z" fill="white" stroke="black" stroke-linecap="round" stroke-linejoin="round"/>
<path d="M287.861 268.943C292.172 267.436 305.291 265.381 303.222 260.502C301.152 255.622 296.79 244.887 284.235 247.712C271.68 250.537 253.754 256.016 253.942 263.703C253.942 263.703 252.813 260.33 249.443 263.327C246.074 266.323 244.466 291.371 246.518 295.874C248.571 300.377 264.12 304.692 268.601 303.476C273.083 302.261 276.794 301.028 278.864 295.583L280.369 283.205C280.369 283.205 285.056 283.016 286.185 280.02C287.314 277.024 287.878 268.96 287.878 268.96L287.861 268.943Z" fill="black"/>
<path d="M204.713 324.33L206.03 322.173C197.683 317.345 181.314 307.055 175.258 297.295C165.662 281.852 175.07 232.32 178.919 232.662C184.187 233.142 206.886 243.072 206.886 243.072C205.911 245.024 201.326 273.839 202.199 275.021C205.261 279.095 225.718 290.019 225.718 290.019C225.718 290.019 266.36 308.75 281.053 313.681C301.305 320.478 307.84 320.615 322.259 311.797C334.216 304.504 354.759 273.394 354.759 273.394C366.287 277.349 381.973 285.876 383.444 289.06C383.444 289.06 378.843 304.709 359.548 328.662C330.145 365.182 287.69 360.302 287.69 360.302C280.608 375.968 256.234 430.26 256.234 430.26C231.996 431.15 172.402 387.833 172.402 387.833L204.713 324.33Z" fill="#FF7E1A"/>
<path d="M381.545 295.224C381.545 295.224 359.018 342.992 323.474 355.696C307.053 361.569 287.673 360.302 287.673 360.302" stroke="black" stroke-linecap="round" stroke-linejoin="round"/>
<path d="M280.352 283.187C277.29 277.366 273.664 280.996 274.023 284.985C274.382 288.974 276.555 296.576 279.445 295.138" fill="white"/>
<path d="M280.352 283.187C277.29 277.366 273.664 280.996 274.023 284.985C274.382 288.974 276.555 296.576 279.445 295.138" stroke="black" stroke-linecap="round" stroke-linejoin="round"/>
<path d="M149.943 474.056C154.544 475.717 162.379 481.83 160.155 488.986C157.931 496.143 150.097 511.706 146.402 514.959C142.725 518.23 136.635 524.787 129.486 522.561C122.318 520.336 121.224 510.748 121.549 508.231C122.815 498.369 132.718 481.864 139.081 476.111C143.82 471.831 147.343 473.115 149.943 474.039V474.056Z" fill="#FFE873"/>
<path d="M102.75 436.818C108.634 440.071 76.4256 483.422 67.6849 475.871C55.7968 465.581 72.6966 442.45 82.1386 431.287C85.3544 427.486 90.5544 426.973 94.403 430.089L102.75 436.835V436.818Z" fill="#FFE873"/>
<path d="M383.444 289.043C383.444 289.043 365.278 274.421 348.447 271.271" stroke="black" stroke-linecap="round" stroke-linejoin="round"/>
<path d="M208.562 244.938C208.562 244.938 194.502 237.73 178.919 232.645" stroke="black" stroke-linecap="round" stroke-linejoin="round"/>
<path d="M208.665 278.941C208.665 278.941 194.365 270.21 187.523 274.952" stroke="black" stroke-linecap="round" stroke-linejoin="round"/>
<path d="M215.917 303.374C214.874 304.949 172.402 387.833 172.402 387.833" stroke="black" stroke-linecap="round" stroke-linejoin="round"/>
<path d="M354.246 333.387C354.246 333.387 348.464 330.237 340.048 334.432C327.784 340.578 331.103 351.279 331.103 351.279" stroke="black" stroke-linecap="round" stroke-linejoin="round"/>
<path d="M180.15 301.798C180.15 301.798 188.036 284.42 171.735 281.27" stroke="black" stroke-linecap="round" stroke-linejoin="round"/>
<path d="M139.081 476.111C144.931 474.998 154.921 483.936 151.756 489.723C148.609 495.51 138.774 521.157 129.485 522.544" stroke="black" stroke-linecap="round" stroke-linejoin="round"/>
<path d="M144.401 490.27L131.778 482.36" stroke="black" stroke-linecap="round" stroke-linejoin="round"/>
<path d="M141.237 496.057L128.613 488.164" stroke="black" stroke-linecap="round" stroke-linejoin="round"/>
<path d="M137.029 502.375L124.405 494.482" stroke="black" stroke-linecap="round" stroke-linejoin="round"/>
<path d="M134.395 509.207L121.788 501.314" stroke="black" stroke-linecap="round" stroke-linejoin="round"/>
<path d="M150.182 509.737C150.182 509.737 162.276 526.054 154.39 523.417C146.505 520.781 149.139 510.251 149.139 510.251" stroke="black" stroke-linecap="round" stroke-linejoin="round"/>
<path d="M94.42 430.072C96.541 431.304 73.0387 475.152 67.702 475.871" stroke="black" stroke-linecap="round" stroke-linejoin="round"/>
<path d="M85.4912 436.047L79.7098 431.304" stroke="black" stroke-linecap="round" stroke-linejoin="round"/>
<path d="M81.8137 442.365L76.0151 437.622" stroke="black" stroke-linecap="round" stroke-linejoin="round"/>
<path d="M78.6492 448.683L72.8677 443.94" stroke="black" stroke-linecap="round" stroke-linejoin="round"/>
<path d="M75.502 455L69.7205 450.258" stroke="black" stroke-linecap="round" stroke-linejoin="round"/>
<path d="M71.8242 461.301L66.0256 456.576" stroke="black" stroke-linecap="round" stroke-linejoin="round"/>
<path d="M87.5952 467.105C87.5952 478.166 85.4913 479.741 83.3874 478.166C81.2835 476.59 83.9177 468.167 83.9177 468.167" stroke="black" stroke-linecap="round" stroke-linejoin="round"/>
<path d="M281.84 308.767C281.84 308.767 279.907 312.636 265.385 308.442C250.863 304.247 242.481 297.467 241.831 292.621" stroke="black" stroke-linecap="round" stroke-linejoin="round"/>
<path d="M321.9 130.653V93.0889C321.9 90.8384 323.723 89.014 325.971 89.014H381.75C383.999 89.014 385.821 90.8384 385.821 93.0889V130.653C385.821 132.904 383.999 134.728 381.75 134.728H325.971C323.723 134.728 321.9 132.904 321.9 130.653Z" stroke="#5A96FC" stroke-miterlimit="10"/>
<path d="M321.9 93.106C321.9 90.8459 323.73 89.0311 325.971 89.0311H381.733C383.991 89.0311 385.804 90.8631 385.804 93.106V96.0851H322.019L321.883 93.106H321.9Z" fill="#5A96FC"/>
<path d="M357.872 101.153H376.328C377.698 101.153 378.808 102.265 378.808 103.636V119.182C378.808 120.553 377.698 121.664 376.328 121.664H357.872C356.502 121.664 355.391 120.553 355.391 119.182V103.636C355.391 102.265 356.502 101.153 357.872 101.153Z" fill="#5A96FC"/>
<path d="M351.03 102.625H328.058" stroke="#5A96FC" stroke-linecap="round" stroke-linejoin="round"/>
<path d="M351.03 108.601H328.058" stroke="#5A96FC" stroke-linecap="round" stroke-linejoin="round"/>
<path d="M351.03 115.21H328.058" stroke="#5A96FC" stroke-linecap="round" stroke-linejoin="round"/>
<path d="M351.03 121.185H328.058" stroke="#5A96FC" stroke-linecap="round" stroke-linejoin="round"/>
<path d="M377.73 127.16H328.057" stroke="#5A96FC" stroke-linecap="round" stroke-linejoin="round"/>
<path d="M740.871 442.605V418.583C740.871 417.146 742.035 415.981 743.471 415.981H797.711C799.147 415.981 800.311 417.146 800.311 418.583V442.605C800.311 444.042 799.147 445.207 797.711 445.207H743.471C742.035 445.207 740.871 444.042 740.871 442.605Z" stroke="#5A96FC" stroke-miterlimit="10"/>
<path d="M740.871 418.6C740.871 417.162 742.034 415.998 743.471 415.998H797.694C799.131 415.998 800.294 417.162 800.294 418.6V420.501H740.957L740.871 418.6Z" fill="#5A96FC"/>
<path d="M782.436 423.737H794.256C795.125 423.737 795.83 424.442 795.83 425.312V435.277C795.83 436.146 795.125 436.852 794.256 436.852H782.436C781.567 436.852 780.863 436.146 780.863 435.277V425.312C780.863 424.442 781.567 423.737 782.436 423.737Z" fill="#5A96FC"/>
<path d="M778.075 424.678H744.805" stroke="#5A96FC" stroke-linecap="round" stroke-linejoin="round"/>
<path d="M778.075 428.496H744.805" stroke="#5A96FC" stroke-linecap="round" stroke-linejoin="round"/>
<path d="M778.075 432.725H744.805" stroke="#5A96FC" stroke-linecap="round" stroke-linejoin="round"/>
<path d="M778.075 436.544H744.805" stroke="#5A96FC" stroke-linecap="round" stroke-linejoin="round"/>
<path d="M795.146 440.362H744.805" stroke="#5A96FC" stroke-linecap="round" stroke-linejoin="round"/>
<path d="M766.99 95.4516V70.3003C766.99 68.7874 768.216 67.5609 769.727 67.5609H807.084C808.596 67.5609 809.821 68.7874 809.821 70.3003V95.4516C809.821 96.9646 808.596 98.1911 807.084 98.1911H769.727C768.216 98.1911 766.99 96.9646 766.99 95.4516Z" stroke="#5A96FC" stroke-miterlimit="10"/>
<path d="M766.99 70.3003C766.99 68.7937 768.205 67.5609 769.727 67.5609H807.102C808.607 67.5609 809.838 68.7765 809.838 70.3003V72.3035H767.093L767.007 70.3003H766.99Z" fill="#5A96FC"/>
<path d="M791.108 75.6936H803.475C804.391 75.6936 805.134 76.4372 805.134 77.3544V87.7642C805.134 88.6814 804.391 89.4249 803.475 89.4249H791.108C790.192 89.4249 789.449 88.6814 789.449 87.7642V77.3544C789.449 76.4372 790.192 75.6936 791.108 75.6936Z" fill="#5A96FC"/>
<path d="M786.507 76.6695H771.113" stroke="#5A96FC" stroke-linecap="round" stroke-linejoin="round"/>
<path d="M786.507 80.6759H771.113" stroke="#5A96FC" stroke-linecap="round" stroke-linejoin="round"/>
<path d="M786.507 85.1104H771.113" stroke="#5A96FC" stroke-linecap="round" stroke-linejoin="round"/>
<path d="M786.507 89.1167H771.113" stroke="#5A96FC" stroke-linecap="round" stroke-linejoin="round"/>
<path d="M804.416 93.106H771.112" stroke="#5A96FC" stroke-linecap="round" stroke-linejoin="round"/>
<path d="M414.934 67.3383C413.706 67.3383 412.71 66.3418 412.71 65.1126C412.71 63.8833 413.706 62.8868 414.934 62.8868C416.162 62.8868 417.158 63.8833 417.158 65.1126C417.158 66.3418 416.162 67.3383 414.934 67.3383Z" fill="white"/>
<path d="M852.567 343.318C851.339 343.318 850.343 342.321 850.343 341.092C850.343 339.863 851.339 338.866 852.567 338.866C853.795 338.866 854.791 339.863 854.791 341.092C854.791 342.321 853.795 343.318 852.567 343.318Z" fill="white"/>
<path d="M139.064 606.507C137.836 606.507 136.841 605.511 136.841 604.282C136.841 603.052 137.836 602.056 139.064 602.056C140.292 602.056 141.288 603.052 141.288 604.282C141.288 605.511 140.292 606.507 139.064 606.507Z" fill="white"/>
<path d="M445.963 505.799C444.735 505.799 443.739 504.803 443.739 503.574C443.739 502.344 444.735 501.348 445.963 501.348C447.191 501.348 448.187 502.344 448.187 503.574C448.187 504.803 447.191 505.799 445.963 505.799Z" fill="white"/>
<path d="M303.734 18.3712C302.506 18.3712 301.511 17.3747 301.511 16.1455C301.511 14.9162 302.506 13.9197 303.734 13.9197C304.962 13.9197 305.958 14.9162 305.958 16.1455C305.958 17.3747 304.962 18.3712 303.734 18.3712Z" fill="white"/>
<path d="M925.776 473.628C924.548 473.628 923.553 472.632 923.553 471.403C923.553 470.173 924.548 469.177 925.776 469.177C927.004 469.177 928 470.173 928 471.403C928 472.632 927.004 473.628 925.776 473.628Z" fill="white"/>
<path d="M613.609 145.018C612.381 145.018 611.386 144.021 611.386 142.792C611.386 141.563 612.381 140.566 613.609 140.566C614.837 140.566 615.833 141.563 615.833 142.792C615.833 144.021 614.837 145.018 613.609 145.018Z" fill="white"/>
<path d="M52.3073 165.701C51.0792 165.701 50.0837 164.704 50.0837 163.475C50.0837 162.246 51.0792 161.249 52.3073 161.249C53.5354 161.249 54.531 162.246 54.531 163.475C54.531 164.704 53.5354 165.701 52.3073 165.701Z" fill="white"/>
<path d="M36.2627 363.829C35.0346 363.829 34.0391 362.833 34.0391 361.603C34.0391 360.374 35.0346 359.378 36.2627 359.378C37.4908 359.378 38.4863 360.374 38.4863 361.603C38.4863 362.833 37.4908 363.829 36.2627 363.829Z" fill="white"/>
<path d="M49.2283 11.2488V0.856079" stroke="white" stroke-linecap="round" stroke-linejoin="round"/>
<path d="M54.4111 6.04385H44.0454" stroke="white" stroke-linecap="round" stroke-linejoin="round"/>
<path d="M769.385 234.563V224.17" stroke="white" stroke-linecap="round" stroke-linejoin="round"/>
<path d="M774.585 229.375H764.202" stroke="white" stroke-linecap="round" stroke-linejoin="round"/>
<path d="M865.84 69.2731V58.8804" stroke="white" stroke-linecap="round" stroke-linejoin="round"/>
<path d="M871.023 64.0853H860.64" stroke="white" stroke-linecap="round" stroke-linejoin="round"/>
<path d="M671.561 576.271C666.224 576.271 661.897 571.94 661.897 566.597C661.897 561.255 666.224 556.924 671.561 556.924C676.899 556.924 681.226 561.255 681.226 566.597C681.226 571.94 676.899 576.271 671.561 576.271Z" stroke="#5A96FC" stroke-width="2" stroke-linecap="round" stroke-linejoin="round"/>
<path d="M665.147 575.244L656.834 585.893" stroke="#5A96FC" stroke-width="2" stroke-linecap="round" stroke-linejoin="round"/>
<path d="M414.814 590.944C420.562 585.191 436.144 590.122 435.323 600.789L414.814 590.944Z" fill="#005CFB"/>
<path d="M414.814 590.944C420.562 585.191 436.144 590.122 435.323 600.789" stroke="white" stroke-miterlimit="10"/>
<path d="M9.61304 427.555H-6.09104e-05" stroke="white" stroke-miterlimit="10"/>
<path d="M263.281 515.764H253.685" stroke="white" stroke-miterlimit="10"/>
<path d="M735.004 142.398H725.408" stroke="white" stroke-miterlimit="10"/>
<path d="M59.731 249.03H50.1351" stroke="white" stroke-miterlimit="10"/>
<path d="M111.627 76.2757H95.7881" stroke="#5A96FC" stroke-linecap="round" stroke-linejoin="round"/>
<path d="M815.671 163.406V172.309" stroke="#5A96FC" stroke-linecap="round" stroke-linejoin="round"/>
<path d="M854.312 530.283V539.186" stroke="#5A96FC" stroke-linecap="round" stroke-linejoin="round"/>
<path d="M230.405 559.749H214.566" stroke="#5A96FC" stroke-linecap="round" stroke-linejoin="round"/>
<path d="M144.982 155.753V149.384" stroke="white" stroke-linecap="round" stroke-linejoin="round"/>
<path d="M131.452 166.899H124.302" stroke="white" stroke-linecap="round" stroke-linejoin="round"/>
<path d="M136.225 159.742L129.862 153.373" stroke="white" stroke-linecap="round" stroke-linejoin="round"/>
<path d="M148.284 52.203C148.284 63.4689 157.401 72.5946 168.656 72.5946C179.911 72.5946 189.028 63.4689 189.028 52.203C189.028 40.9372 179.911 31.8115 168.656 31.8115V52.203H148.284Z" fill="#005CFB" stroke="white" stroke-linecap="round" stroke-linejoin="round"/>
<path d="M141.288 45.4572C141.288 34.1914 150.405 25.0657 161.66 25.0657V45.4572C161.66 45.4572 141.288 45.988 141.288 45.4572Z" fill="#5A96FC"/>
<path d="M175.583 61.1233L190.157 75.7278H217.593" stroke="#5A96FC" stroke-linecap="round" stroke-linejoin="round"/>
<path d="M108.6 13.115H118.453C119.303 13.115 119.992 13.8049 119.992 14.6559V22.429C119.992 23.28 119.303 23.9699 118.453 23.9699H108.6C107.75 23.9699 107.061 23.28 107.061 22.429V14.6559C107.061 13.8049 107.75 13.115 108.6 13.115Z" fill="#5A96FC"/>
<path d="M224.145 70.1805H233.997C234.847 70.1805 235.537 70.8704 235.537 71.7214V79.4945C235.537 80.3455 234.847 81.0354 233.997 81.0354H224.145C223.294 81.0354 222.605 80.3455 222.605 79.4945V71.7214C222.605 70.8704 223.294 70.1805 224.145 70.1805Z" fill="#5A96FC"/>
<path d="M141.237 27.1716L133.283 19.1931H125.312" stroke="#5A96FC" stroke-linecap="round" stroke-linejoin="round"/>
<path d="M111.816 370.661H146.624C150.507 370.661 153.655 367.51 153.655 363.624V328.097C153.655 324.21 150.507 321.06 146.624 321.06H116.485V365.456C116.485 370.352 111.799 370.661 111.799 370.661H111.816Z" stroke="#5A96FC" stroke-miterlimit="10"/>
<path d="M116.485 365.456C116.485 370.352 111.799 370.661 111.799 370.661C111.799 370.661 106.906 371.191 106.906 365.456H113.133C113.133 365.456 116.468 365.284 116.468 365.456H116.485Z" stroke="#5A96FC" stroke-miterlimit="10"/>
<path d="M147.924 362.528H123.396" stroke="#5A96FC" stroke-linecap="round" stroke-linejoin="round"/>
<path d="M147.924 356.998H123.396" stroke="#5A96FC" stroke-linecap="round" stroke-linejoin="round"/>
<path d="M147.924 342.907H123.396" stroke="#5A96FC" stroke-linecap="round" stroke-linejoin="round"/>
<path d="M147.924 337.394H123.396" stroke="#5A96FC" stroke-linecap="round" stroke-linejoin="round"/>
<path d="M147.924 349.961H123.396" stroke="#5A96FC" stroke-linecap="round" stroke-linejoin="round"/>
<path d="M124.987 327.035H137.713C138.95 327.035 139.954 328.039 139.954 329.278C139.954 330.517 138.95 331.521 137.713 331.521H124.987C123.749 331.521 122.746 330.517 122.746 329.278C122.746 328.039 123.749 327.035 124.987 327.035Z" fill="#5A96FC"/>
<path d="M117.135 351.741C114.235 351.741 111.884 349.388 111.884 346.485C111.884 343.582 114.235 341.229 117.135 341.229C120.035 341.229 122.386 343.582 122.386 346.485C122.386 349.388 120.035 351.741 117.135 351.741Z" fill="#005CFB" stroke="white" stroke-linecap="round" stroke-linejoin="round"/>
<path d="M113.646 351.176L109.13 356.963" stroke="white" stroke-linecap="round" stroke-linejoin="round"/>
<path d="M293.865 603.922C292.052 594.831 279.308 581.972 263.914 586.664C243.046 593.016 249.392 614.828 249.392 614.828" fill="#005CFB"/>
<path d="M293.865 603.922C292.052 594.831 279.308 581.972 263.914 586.664C243.046 593.016 249.392 614.828 249.392 614.828" stroke="white" stroke-miterlimit="10"/>
<path d="M261.194 622.088C261.194 622.088 251.205 609.367 238.513 612.089L261.194 622.088Z" fill="#005CFB"/>
<path d="M261.194 622.088C261.194 622.088 251.205 609.367 238.513 612.089" stroke="white" stroke-miterlimit="10"/>
<path d="M311.996 553.534V543.158" stroke="white" stroke-linecap="round" stroke-linejoin="round"/>
<path d="M317.179 548.346H306.796" stroke="white" stroke-linecap="round" stroke-linejoin="round"/>
<path d="M493.053 37.3075C493.053 37.3075 474.802 50.4053 461.323 66.2939" stroke="white" stroke-linecap="round" stroke-linejoin="round"/>
<path d="M455.371 74.2383C455.371 74.2383 446.647 84.1687 442.285 89.7331" stroke="white" stroke-linecap="round" stroke-linejoin="round"/>
<path d="M565.15 125.003C551.538 125.003 540.502 113.957 540.502 100.331C540.502 86.7053 551.538 75.6593 565.15 75.6593C578.763 75.6593 589.799 86.7053 589.799 100.331C589.799 113.957 578.763 125.003 565.15 125.003Z" fill="#FF7E1A"/>
<path d="M566.399 111.46L558.377 108.618C557.795 108.412 557.487 107.813 557.658 107.231C557.966 106.152 558.223 104.235 557.368 101.735C555.674 96.77 555.537 90.6919 559.711 87.4388C566.485 82.1483 577.962 87.0108 577.158 97.1295C576.662 103.55 571.069 105.81 570.162 106.341C567.939 107.642 566.433 111.477 566.433 111.477L566.399 111.46Z" stroke="white" stroke-miterlimit="10"/>
<path d="M564.483 110.176L568.109 100.109L567.271 100.314C566.04 100.622 564.74 100.211 563.919 99.2526L563.252 98.4821L559.642 108.498" stroke="white" stroke-miterlimit="10"/>
<path d="M566.399 111.46L565.338 114.559C564.945 115.706 563.252 116.134 561.541 115.518L558.479 114.405C556.786 113.789 555.76 112.385 556.17 111.272L557.282 108.207L566.416 111.46H566.399Z" stroke="white" stroke-miterlimit="10"/>
<path d="M349.028 241.189C335.416 241.189 324.38 230.143 324.38 216.517C324.38 202.891 335.416 191.845 349.028 191.845C362.641 191.845 373.677 202.891 373.677 216.517C373.677 230.143 362.641 241.189 349.028 241.189Z" fill="#FFE873"/>
<path d="M349.114 228.57L341.092 225.728C340.51 225.523 340.202 224.923 340.373 224.341C340.681 223.263 340.938 221.345 340.083 218.845C338.389 213.88 338.252 207.802 342.426 204.549C349.199 199.259 360.677 204.121 359.873 214.24C359.377 220.66 353.784 222.92 352.877 223.451C350.653 224.752 349.148 228.587 349.148 228.587L349.114 228.57Z" stroke="black" stroke-miterlimit="10"/>
<path d="M347.198 227.269L350.825 217.202L349.987 217.407C348.755 217.715 347.455 217.304 346.634 216.346L345.967 215.575L342.358 225.591" stroke="black" stroke-miterlimit="10"/>
<path d="M349.114 228.57L348.053 231.669C347.66 232.816 345.966 233.244 344.256 232.628L341.194 231.515C339.501 230.899 338.474 229.495 338.885 228.382L339.997 225.317L349.131 228.57H349.114Z" stroke="black" stroke-miterlimit="10"/>
<path d="M385.976 641.024C385.976 641.024 383.239 626.454 367.776 622.807C352.313 619.16 339.57 641.024 339.57 641.024" fill="#005CFB"/>
<path d="M385.976 641.024C385.976 641.024 383.239 626.454 367.776 622.807C352.313 619.16 339.57 641.024 339.57 641.024" stroke="white" stroke-miterlimit="10"/>
<path d="M660.819 104.886H680.148C681.602 104.886 682.765 103.704 682.765 102.266V82.9188C682.765 81.4635 681.585 80.2993 680.148 80.2993H676.231C676.231 80.2993 677.582 88.6545 670.603 88.6545C664.754 88.6545 665.882 80.2993 665.882 80.2993H660.802C659.348 80.2993 658.185 81.4806 658.185 82.9188V88.2093C658.185 88.2093 650.368 86.8567 650.368 93.38C650.368 99.2355 658.185 98.7903 658.185 98.7903V102.266C658.185 103.721 659.365 104.886 660.802 104.886H660.819Z" stroke="#5A96FC" stroke-miterlimit="10"/>
<path d="M526.305 641.144H545.634C547.088 641.144 548.251 639.963 548.251 638.524V619.177C548.251 617.722 547.071 616.558 545.634 616.558H541.717C541.717 616.558 543.068 624.913 536.089 624.913C530.239 624.913 531.368 616.558 531.368 616.558H526.288C524.834 616.558 523.671 617.739 523.671 619.177V624.468C523.671 624.468 515.854 623.115 515.854 629.638C515.854 635.494 523.671 635.049 523.671 635.049V638.524C523.671 639.98 524.851 641.144 526.288 641.144H526.305Z" stroke="#5A96FC" stroke-miterlimit="10"/>
<path d="M52.5298 502.838H33.2011C31.7472 502.838 30.584 504.019 30.584 505.457V524.804C30.584 526.26 31.7643 527.424 33.2011 527.424H37.1181C37.1181 527.424 35.7669 519.069 42.7457 519.069C48.5957 519.069 47.4666 527.424 47.4666 527.424H52.5469C54.0008 527.424 55.1639 526.242 55.1639 524.804V519.514C55.1639 519.514 62.981 520.866 62.981 514.343C62.981 508.488 55.1639 508.933 55.1639 508.933V505.457C55.1639 504.002 53.9837 502.838 52.5469 502.838H52.5298Z" stroke="#5A96FC" stroke-miterlimit="10"/>
<path d="M260.168 119.285L257.209 119.233C256.867 119.233 256.593 118.942 256.593 118.6L256.661 114.302C256.661 113.96 256.952 113.686 257.294 113.686L260.356 113.737C260.732 112.333 261.331 111.032 262.135 109.885L259.945 107.591C259.706 107.351 259.723 106.957 259.963 106.718L263.076 103.756C263.315 103.516 263.709 103.533 263.948 103.773L266.206 106.153C267.266 105.553 268.447 105.091 269.678 104.834V101.478C269.678 101.136 269.952 100.862 270.294 100.862H274.587C274.929 100.862 275.203 101.136 275.203 101.478V104.92C276.589 105.262 277.872 105.827 279.018 106.581L281.566 104.132C281.806 103.892 282.199 103.91 282.439 104.149L285.415 107.248C285.654 107.488 285.637 107.882 285.398 108.121L282.849 110.553C283.499 111.631 283.978 112.83 284.269 114.097L287.758 114.148C288.1 114.148 288.374 114.439 288.374 114.782L288.306 119.079C288.306 119.422 288.015 119.696 287.673 119.696L284.286 119.644C283.978 121.031 283.414 122.332 282.678 123.514L284.936 125.893C285.175 126.133 285.158 126.527 284.919 126.767L281.806 129.729C281.566 129.968 281.173 129.951 280.933 129.712L278.761 127.417C277.683 128.085 276.486 128.599 275.203 128.907V132.006C275.203 132.348 274.929 132.622 274.587 132.622H270.294C269.952 132.622 269.678 132.348 269.678 132.006V128.992C268.156 128.667 266.753 128.068 265.487 127.246L263.384 129.266C263.144 129.506 262.751 129.489 262.511 129.249L259.535 126.15C259.295 125.911 259.313 125.517 259.552 125.277L261.656 123.257C260.938 122.058 260.424 120.723 260.151 119.285H260.168ZM265.128 119.952C265.864 121.716 267.232 123.137 268.96 123.959C269.199 124.079 269.456 124.181 269.695 124.267C270.499 124.558 271.372 124.712 272.278 124.712C273.322 124.712 274.314 124.507 275.22 124.13C275.323 124.096 275.408 124.044 275.511 124.01C277.239 123.223 278.624 121.801 279.394 120.055C279.462 119.901 279.514 119.764 279.582 119.61C279.89 118.771 280.044 117.881 280.044 116.939C280.044 115.929 279.856 114.953 279.497 114.063C279.479 114.011 279.462 113.96 279.428 113.908C278.675 112.145 277.307 110.724 275.597 109.919C275.477 109.868 275.34 109.799 275.22 109.748C274.314 109.371 273.322 109.166 272.278 109.166C271.372 109.166 270.499 109.32 269.695 109.611C269.644 109.628 269.593 109.645 269.541 109.662C267.745 110.347 266.274 111.666 265.402 113.343C265.316 113.498 265.231 113.669 265.162 113.84C264.752 114.782 264.512 115.843 264.512 116.939C264.512 117.795 264.649 118.617 264.906 119.37C264.974 119.576 265.043 119.764 265.128 119.952Z" fill="white"/>
<path d="M767.606 501.639L764.647 501.588C764.305 501.588 764.031 501.297 764.031 500.954L764.099 496.657C764.099 496.314 764.39 496.04 764.732 496.04L767.794 496.092C768.17 494.688 768.769 493.387 769.573 492.239L767.383 489.945C767.144 489.705 767.161 489.312 767.401 489.072L770.514 486.11C770.753 485.87 771.147 485.887 771.386 486.127L773.644 488.507C774.704 487.908 775.885 487.445 777.116 487.189V483.833C777.116 483.49 777.39 483.216 777.732 483.216H782.025C782.367 483.216 782.641 483.49 782.641 483.833V487.274C784.027 487.617 785.31 488.182 786.456 488.935L789.004 486.487C789.244 486.247 789.637 486.264 789.877 486.504L792.853 489.603C793.092 489.842 793.075 490.236 792.836 490.476L790.287 492.907C790.937 493.986 791.416 495.184 791.707 496.451L795.196 496.503C795.538 496.503 795.812 496.794 795.812 497.136L795.744 501.434C795.744 501.776 795.453 502.05 795.111 502.05L791.724 501.999C791.416 503.385 790.852 504.687 790.116 505.868L792.374 508.248C792.613 508.488 792.596 508.881 792.357 509.121L789.244 512.083C789.004 512.323 788.611 512.306 788.371 512.066L786.199 509.772C785.121 510.439 783.924 510.953 782.641 511.261V514.36C782.641 514.703 782.367 514.977 782.025 514.977H777.732C777.39 514.977 777.116 514.703 777.116 514.36V511.347C775.594 511.022 774.191 510.422 772.925 509.6L770.822 511.621C770.582 511.86 770.189 511.843 769.949 511.604L766.973 508.505C766.733 508.265 766.751 507.871 766.99 507.631L769.094 505.611C768.376 504.413 767.862 503.077 767.589 501.639H767.606ZM772.566 502.307C773.302 504.07 774.67 505.491 776.398 506.313C776.637 506.433 776.894 506.536 777.133 506.621C777.937 506.912 778.81 507.066 779.716 507.066C780.76 507.066 781.752 506.861 782.658 506.484C782.761 506.45 782.846 506.399 782.949 506.365C784.677 505.577 786.062 504.156 786.832 502.409C786.9 502.255 786.952 502.118 787.02 501.964C787.328 501.125 787.482 500.235 787.482 499.293C787.482 498.283 787.294 497.307 786.934 496.417C786.917 496.366 786.9 496.314 786.866 496.263C786.113 494.499 784.745 493.078 783.035 492.274C782.915 492.222 782.778 492.154 782.658 492.102C781.752 491.726 780.76 491.52 779.716 491.52C778.81 491.52 777.937 491.674 777.133 491.965C777.082 491.983 777.031 492 776.979 492.017C775.183 492.702 773.712 494.02 772.84 495.698C772.754 495.852 772.669 496.023 772.6 496.194C772.19 497.136 771.95 498.198 771.95 499.293C771.95 500.149 772.087 500.971 772.344 501.725C772.412 501.93 772.481 502.118 772.566 502.307Z" fill="white"/>
<path d="M504.77 295.549L500.664 295.481C500.186 295.481 499.809 295.087 499.826 294.607L499.912 288.632C499.912 288.153 500.305 287.776 500.784 287.793L505.026 287.862C505.539 285.91 506.395 284.112 507.507 282.503L504.479 279.301C504.154 278.958 504.171 278.411 504.513 278.085L508.841 273.959C509.183 273.634 509.73 273.651 510.055 273.993L513.203 277.298C514.691 276.459 516.316 275.825 518.026 275.466V270.809C518.026 270.329 518.402 269.953 518.881 269.953H524.851C525.33 269.953 525.706 270.329 525.706 270.809V275.586C527.622 276.048 529.418 276.853 531.009 277.897L534.55 274.507C534.892 274.182 535.439 274.182 535.764 274.541L539.904 278.856C540.229 279.198 540.229 279.746 539.869 280.071L536.329 283.461C537.235 284.968 537.902 286.629 538.313 288.375L543.153 288.444C543.632 288.444 544.009 288.838 543.992 289.317L543.906 295.292C543.906 295.772 543.513 296.148 543.034 296.131L538.33 296.063C537.885 297.997 537.133 299.812 536.089 301.439L539.236 304.743C539.561 305.086 539.544 305.634 539.202 305.959L534.875 310.085C534.533 310.41 533.985 310.393 533.66 310.051L530.633 306.849C529.127 307.791 527.468 308.493 525.706 308.921V313.218C525.706 313.698 525.33 314.074 524.851 314.074H518.881C518.402 314.074 518.026 313.698 518.026 313.218V309.024C515.922 308.578 513.955 307.74 512.21 306.592L509.285 309.4C508.943 309.726 508.396 309.726 508.071 309.366L503.932 305.051C503.607 304.709 503.607 304.161 503.966 303.836L506.891 301.028C505.899 299.35 505.163 297.501 504.787 295.515L504.77 295.549ZM511.663 296.474C512.689 298.922 514.605 300.891 516.983 302.038C517.325 302.192 517.667 302.346 518.009 302.466C519.138 302.86 520.352 303.083 521.601 303.083C523.055 303.083 524.423 302.791 525.689 302.278C525.826 302.226 525.963 302.158 526.083 302.107C528.494 301.011 530.41 299.042 531.471 296.611C531.556 296.405 531.642 296.2 531.727 295.977C532.155 294.813 532.377 293.58 532.377 292.279C532.377 290.875 532.104 289.522 531.608 288.29C531.573 288.221 531.556 288.136 531.522 288.067C530.496 285.619 528.58 283.65 526.202 282.52C526.031 282.434 525.86 282.366 525.672 282.297C524.406 281.784 523.021 281.492 521.584 281.492C520.318 281.492 519.104 281.715 517.992 282.109C517.924 282.143 517.838 282.16 517.77 282.194C515.289 283.136 513.237 284.968 512.022 287.314C511.903 287.536 511.8 287.776 511.697 287.999C511.116 289.317 510.808 290.772 510.808 292.296C510.808 293.477 510.996 294.625 511.355 295.686C511.441 295.96 511.543 296.234 511.663 296.508V296.474Z" fill="white"/>
</g>
<defs>
<clipPath id="clip0_1259_11763">
<rect width="928" height="642" fill="white" transform="matrix(-1 0 0 1 928 0)"/>
</clipPath>
</defs>
</svg>
