<svg width="680" height="660" viewBox="0 0 680 660" fill="none" xmlns="http://www.w3.org/2000/svg">
<path style="mix-blend-mode:multiply" opacity="0.1" d="M26.5674 366.105C25.5684 363.258 -3.47412 297.757 0.34613 238.804C4.16632 179.85 23.6148 146.079 23.6148 146.079C23.6148 146.079 43.7578 113.439 105.359 77.5009C239.006 17.3391 561.647 59.6232 655.226 247.258C731.07 399.333 620.88 576.459 485.589 636.152C485.589 636.152 428 661.207 386.736 659.955C345.473 658.702 287.735 636.152 287.735 636.152C161.697 587.267 60.249 462.158 26.57 366.105H26.5674Z" fill="url(#paint0_linear_1490_6868)"/>
<g clip-path="url(#clip0_1490_6868)">
<path d="M108.36 208.637C49.1432 301.464 115.813 382.49 157.674 420.949C199.536 459.431 219.468 583.473 339.705 605.917C468.684 629.994 516.882 563.674 499.527 476.607C482.172 389.541 548.305 336.807 609.089 265.176C669.873 193.567 585.506 41.1685 438.184 127.891C317.904 198.705 188.861 82.4228 108.36 208.637Z" fill="url(#paint1_linear_1490_6868)"/>
<path d="M330.469 51.3156C223.528 77.285 240.517 177.078 208.579 224.137C176.618 271.196 56.9185 308.989 52.2362 431.333C47.2317 562.556 119.786 600.629 203.316 570.768C286.846 540.908 388.354 525.601 467.975 575.369C547.618 625.136 685.961 519.388 578.783 386.145C491.279 277.365 581.532 -9.69529 330.448 51.3156H330.469Z" fill="url(#paint2_linear_1490_6868)"/>
<path d="M57.2837 495.956C78.5045 578.701 135.595 594.975 203.338 570.768C286.868 540.908 388.376 525.601 467.997 575.369C523.54 610.088 607.629 569.113 617.058 495.956H57.2837Z" fill="url(#paint3_linear_1490_6868)"/>
<path style="mix-blend-mode:multiply" opacity="0.54" d="M345.462 535.77C205.421 535.77 91.9072 543.896 91.9072 553.935C91.9072 560.342 138.086 565.952 207.87 569.199C287.427 541.488 382.383 527.6 459.126 570.188C515.679 568.145 560.118 564.641 582.692 560.363C586.301 557.138 589.737 553.677 592.916 549.958C567.614 541.832 466.45 535.77 345.462 535.77Z" fill="url(#paint4_linear_1490_6868)"/>
<path d="M342.218 260.446C342.197 259.372 341.832 258.254 341.574 257.2C341.488 256.899 340.93 253.954 340.951 253.632C341.252 248.924 343.421 236.046 343.421 236.046L330.491 234.542C330.491 234.542 331.178 245.957 328.665 252.363C322.608 254.964 311.955 258.146 311.955 258.146C311.955 258.146 300.206 258.834 299.562 259.028C298.917 259.221 297.371 259.479 295.502 260.898C295.502 260.898 293.849 263.757 308.046 267.519C308.046 267.519 314.146 269.54 324.327 269.003C326.517 269.046 328.708 269.067 330.899 269.11C333.154 269.153 339.856 269.626 340.801 269.067C341.166 268.852 341.424 268.616 341.595 268.379C342.97 266.466 342.261 262.704 342.218 260.446Z" fill="url(#paint5_linear_1490_6868)"/>
<path d="M341.552 257.179C341.509 257.007 341.295 255.932 341.144 255.007C340.629 255.222 340.113 255.437 339.598 255.609C333.799 257.802 327.849 256.899 322.071 255.05C321.964 255.007 321.857 254.964 321.771 254.943C316.766 256.684 311.955 258.125 311.955 258.125C311.955 258.125 300.206 258.812 299.562 259.006C298.918 259.199 297.371 259.457 295.502 260.876C295.502 260.876 293.849 263.736 308.046 267.498C308.046 267.498 314.146 269.518 324.327 268.981C326.517 269.024 328.708 269.045 330.899 269.088C333.154 269.131 339.856 269.604 340.801 269.045C341.166 268.83 341.424 268.594 341.595 268.358C342.97 266.444 342.261 262.682 342.218 260.425C342.197 259.35 341.832 258.232 341.574 257.179H341.552Z" fill="url(#paint6_linear_1490_6868)"/>
<path d="M337.987 164.523C337.987 164.523 334.959 164.029 334.228 172.155C333.498 180.26 329.911 246.215 329.911 246.215L341.789 248.859C341.789 248.859 357.21 202.273 351.519 173.273C351.519 173.273 349.585 160.439 337.987 164.545V164.523Z" fill="url(#paint7_linear_1490_6868)"/>
<path d="M380.386 118.174C379.913 117.464 379.355 116.819 378.71 116.239C376.047 113.767 372.159 113.724 368.68 112.713C359.337 109.983 349.478 129.116 345.139 140.016C340.479 151.689 334.744 160.395 335.002 172.972C335.087 176.691 335.99 180.904 339.211 182.732C341.703 184.151 344.903 183.678 347.395 182.237C349.865 180.797 351.755 178.561 353.538 176.304C361.077 166.802 367.799 156.655 374.608 146.615C377.744 141.993 380.966 137.242 382.319 131.825C383.479 127.246 383.028 122 380.407 118.195L380.386 118.174Z" fill="url(#paint8_linear_1490_6868)"/>
<path d="M346.814 96.4395C348.167 96.4395 353.194 76.296 353.151 74.8127C353.022 68.3418 351.411 35.1921 337.879 47.7684C335.796 49.7032 335.13 52.3689 335.066 54.7552C334.743 65.4396 335.409 88.6788 335.409 88.6788L346.814 96.4395Z" fill="url(#paint9_linear_1490_6868)"/>
<path d="M344.946 88.9367C343.142 86.9804 340.328 88.0983 337.965 88.6572C332.381 89.9901 313.351 112.154 313.351 112.154L308.712 114.025L303.686 114.842L300.485 115.358C299.562 115.379 298.638 115.293 297.758 114.992C297.328 114.842 296.898 114.562 296.447 114.519C296.104 114.476 295.717 114.648 295.588 114.971C295.502 115.207 295.545 115.465 295.653 115.702C295.996 116.604 296.855 117.314 297.822 117.464C298.187 117.529 298.552 117.507 298.939 117.529C299.304 117.529 299.691 117.593 300.013 117.744C300.356 117.916 300.636 118.195 300.7 118.561C300.786 119.055 300.485 119.292 300.099 119.421C299.626 119.593 299.175 119.915 298.746 120.173L297.929 120.668C297.672 120.797 297.414 120.947 297.156 121.14C296.791 121.355 296.426 121.57 296.061 121.785C292.667 123.634 290.82 122.731 289.016 124.473C287.963 125.505 289.896 125.548 289.66 127.138C289.531 128.041 294.557 128.17 293.548 128.987C292.538 129.826 295.094 131.459 299.454 131.653C303.256 131.825 305.468 130.557 307.638 129.31C307.809 129.245 307.96 129.159 308.089 129.052L318.764 118.69C320.16 117.228 328.665 111.552 330.34 110.521C332.188 109.381 352.743 97.3639 344.946 88.9152V88.9367Z" fill="url(#paint10_linear_1490_6868)"/>
<path d="M319.515 118.711C322.845 116.239 328.493 112.498 329.868 111.638C331.887 110.392 354.354 97.2564 345.848 88.0123C343.872 85.8625 340.801 87.0879 338.223 87.7113C333.326 88.8937 318.978 104.695 313.48 110.907C315.649 113.38 317.69 115.959 319.515 118.711Z" fill="url(#paint11_linear_1490_6868)"/>
<path d="M436.23 228.78C435.65 227.877 434.748 227.125 433.953 226.351C433.739 226.136 431.698 223.922 431.548 223.642C429.314 219.472 424.395 207.39 424.395 207.39L412.604 212.936C412.604 212.936 419.198 222.266 420.443 229.038C416.663 234.434 409.274 242.775 409.274 242.775C409.274 242.775 399.652 249.569 399.222 250.063C398.793 250.558 397.612 251.611 396.752 253.782C396.752 253.782 396.838 257.071 410.907 252.793C410.907 252.793 417.157 251.289 425.534 245.463C427.402 244.345 429.292 243.205 431.161 242.087C433.094 240.927 439.044 237.809 439.538 236.842C439.731 236.476 439.838 236.133 439.86 235.832C440.032 233.467 437.433 230.651 436.209 228.78H436.23Z" fill="url(#paint12_linear_1490_6868)"/>
<path d="M433.975 226.351C433.846 226.222 433.116 225.427 432.493 224.739C432.171 225.19 431.827 225.642 431.505 226.072C427.725 231.016 422.205 233.381 416.319 234.843C416.212 234.864 416.105 234.886 415.997 234.907C412.668 239.013 409.339 242.775 409.339 242.775C409.339 242.775 399.717 249.569 399.287 250.063C398.857 250.558 397.676 251.611 396.817 253.782C396.817 253.782 396.903 257.072 410.971 252.793C410.971 252.793 417.222 251.289 425.598 245.463C427.467 244.345 429.357 243.205 431.226 242.088C433.159 240.927 439.108 237.809 439.602 236.842C439.796 236.477 439.903 236.133 439.924 235.832C440.096 233.467 437.497 230.651 436.273 228.78C435.693 227.877 434.791 227.125 433.996 226.351H433.975Z" fill="url(#paint13_linear_1490_6868)"/>
<path d="M386.808 159.729C386.808 159.729 383.973 160.912 387.624 168.178C391.275 175.466 415.331 224.266 415.331 224.266L430.517 217.343C419.606 182.925 421.925 178.088 404.42 159.127C404.42 159.127 394.519 150.12 386.808 159.729Z" fill="url(#paint14_linear_1490_6868)"/>
<path d="M384.961 101.814C379.827 100.718 374.93 103.039 371.773 107.081C367.542 112.52 366.382 119.743 367.993 126.407C370.183 135.372 374.114 144.745 378.216 152.979C380.429 157.407 383.156 161.922 386.142 166.028C388.655 169.489 391.104 174.434 395.636 175.767C398.943 176.734 403.626 175.294 405.473 172.241C407.406 169.059 406.869 164.867 406.332 161.363C405.709 157.386 405.236 153.366 404.635 149.367C403.583 142.531 402.272 135.759 401.263 128.923C400.296 122.344 398.857 115.401 395.421 109.618C392.951 105.469 389.063 102.674 384.961 101.814Z" fill="url(#paint15_linear_1490_6868)"/>
<path d="M401.735 118.711C398.449 111.939 392.263 85.6905 390.674 78.1878C389.063 70.6206 387.388 63.0748 385.927 55.4861C385.304 52.2614 385.025 48.8432 384.252 45.6616C383.221 41.405 380.128 38.6533 376.605 36.5895C373.534 34.8051 369.754 32.8273 366.489 31.7739C366.36 31.7309 366.231 31.688 366.102 31.645C364.835 31.2365 364.062 31.7095 362.773 31.559C357.361 30.914 350.939 32.9993 347.18 37.0194C344.774 39.5992 342.369 42.1789 339.963 44.7586C337.407 47.4889 336.569 51.8099 337.837 55.83C340.586 64.5797 343.378 73.2863 346.321 81.9714C347.867 86.5075 349.886 90.721 350.724 95.4721C351.819 101.663 349.671 110.671 352.743 119.184C353.817 122.194 354.783 121.055 357.318 120.926C363.912 120.56 355.535 127.461 362.129 127.697C369.41 127.955 403.625 122.581 401.757 118.69L401.735 118.711Z" fill="url(#paint16_linear_1490_6868)"/>
<path d="M352.485 49.5526L357.704 39.6851L349.585 40.8674L352.485 49.5526Z" fill="url(#paint17_linear_1490_6868)"/>
<path d="M359.444 21.9495L362.365 31.344C362.365 31.344 363.761 43.3398 349.865 41.1041L345.655 26.3135L359.423 21.9495H359.444Z" fill="url(#paint18_linear_1490_6868)"/>
<path d="M352.485 49.5528L348.103 47.2311L349.263 38.8899C349.263 38.8899 352.613 49.3163 352.485 49.5313V49.5528Z" fill="url(#paint19_linear_1490_6868)"/>
<path d="M349.263 38.9113L348.103 47.231L342.519 49.9397L349.069 38.2234L349.263 38.9113Z" fill="url(#paint20_linear_1490_6868)"/>
<path d="M348.06 9.13672L357.06 24.2712L358.499 26.2275C358.477 36.9979 351.175 42.4154 347.072 41.2115C342.97 40.0076 328.493 21.3045 328.493 21.3045L348.06 9.13672Z" fill="url(#paint21_linear_1490_6868)"/>
<path d="M337.579 28.4417L342.776 33.9236L339.641 36.8903L337.579 28.4417Z" fill="#FFB5BE"/>
<path d="M342.691 1.89191C338.008 -0.773828 331.436 5.24557 328.837 9.82461C325.057 16.5319 318.184 25.5825 322.372 26.8294C332.682 29.8606 342.562 14.1457 342.562 14.1457C342.562 14.1457 342.798 16.9189 346.986 18.8107C349.285 19.8426 351.518 22.2074 353.065 24.1207C353.731 24.9591 355.105 24.4861 355.084 23.4113L354.826 19.3697L361.635 27.2809C360.776 21.6484 359.508 17.2629 357.64 11.8024C352.528 -6.40627 342.734 1.9134 342.734 1.9134L342.691 1.89191Z" fill="url(#paint22_linear_1490_6868)"/>
<path d="M355.105 15.2207C357.661 15.8656 359.551 20.2297 357.038 24.2713L352.313 17.8434C352.012 16.661 353.43 14.7907 355.105 15.2207Z" fill="url(#paint23_linear_1490_6868)"/>
<path d="M366.124 31.2581L360.604 48.4563L353.172 44.9522L362.451 29.7102L366.124 31.2581Z" fill="url(#paint24_linear_1490_6868)"/>
<path d="M353.172 44.9521L352.485 49.5527L355.47 45.9625L353.172 44.9521Z" fill="url(#paint25_linear_1490_6868)"/>
<path d="M316.18 106.413L311.047 110.132L319.234 121.451L324.366 117.732L316.18 106.413Z" fill="url(#paint26_linear_1490_6868)"/>
<path d="M317.797 222.804H331.608L321.878 233.359C319.687 235.724 315.95 235.724 313.759 233.359L304.029 222.804H317.84H317.797Z" fill="#455E6A"/>
<path d="M269.9 116.046C269.9 88.9153 292.409 67.0735 319.73 68.1484C344.108 69.1158 364.105 88.6573 365.587 113.014C366.51 127.934 360.604 141.499 350.702 150.872C340.35 160.675 334.572 174.391 334.572 188.665V190.278H301.022V188.665C301.022 174.176 294.837 160.525 284.441 150.442C275.463 141.736 269.9 129.546 269.9 116.046Z" fill="url(#paint27_linear_1490_6868)"/>
<path d="M329.46 199.78H306.134V133.76C302.204 132.728 300.185 131.159 300.185 129.073C300.185 126.257 301.28 123.333 303.363 120.646C304.137 119.636 305.425 119.249 306.628 119.657C307.809 120.066 308.583 121.141 308.583 122.387V131.803C310.988 132.255 314.06 132.556 317.797 132.556C321.534 132.556 324.606 132.255 327.011 131.803V122.387C327.011 121.119 327.784 120.044 328.966 119.657C330.169 119.249 331.436 119.636 332.231 120.646C334.314 123.355 335.409 126.279 335.409 129.073C335.409 131.481 332.746 132.9 329.46 133.76V199.78ZM308.583 197.329H327.011V134.276C323.188 134.942 319.193 135.007 317.797 135.007C314.446 135.007 311.267 134.749 308.583 134.297V197.329ZM329.911 121.936C329.911 121.936 329.782 121.936 329.739 121.957C329.61 122 329.438 122.108 329.438 122.366V131.202C331.737 130.535 332.918 129.718 332.918 129.052C332.918 126.193 331.457 123.699 330.255 122.108C330.147 121.957 329.997 121.914 329.889 121.914L329.911 121.936ZM305.683 121.936C305.576 121.936 305.447 121.979 305.318 122.129C304.094 123.72 302.655 126.193 302.655 129.073C302.655 129.74 303.857 130.557 306.134 131.223V122.387C306.134 122.129 305.984 122.022 305.833 121.979C305.79 121.979 305.726 121.957 305.662 121.957L305.683 121.936Z" fill="white"/>
<path d="M334.7 190.278H300.936C299.228 190.278 297.843 191.664 297.843 193.373V223.879C297.843 225.588 299.228 226.974 300.936 226.974H334.7C336.409 226.974 337.793 225.588 337.793 223.879V193.373C337.793 191.664 336.409 190.278 334.7 190.278Z" fill="url(#paint28_linear_1490_6868)"/>
<path d="M338.352 194.771H297.264C296.267 194.771 295.459 195.579 295.459 196.577V197.931C295.459 198.928 296.267 199.737 297.264 199.737H338.352C339.349 199.737 340.156 198.928 340.156 197.931V196.577C340.156 195.579 339.349 194.771 338.352 194.771Z" fill="url(#paint29_linear_1490_6868)"/>
<path d="M338.352 203.069H297.264C296.267 203.069 295.459 203.877 295.459 204.875V206.208C295.459 207.205 296.267 208.013 297.264 208.013H338.352C339.349 208.013 340.156 207.205 340.156 206.208V204.875C340.156 203.877 339.349 203.069 338.352 203.069Z" fill="url(#paint30_linear_1490_6868)"/>
<path d="M338.352 211.389H297.264C296.267 211.389 295.459 212.197 295.459 213.194V214.549C295.459 215.546 296.267 216.355 297.264 216.355H338.352C339.349 216.355 340.156 215.546 340.156 214.549V213.194C340.156 212.197 339.349 211.389 338.352 211.389Z" fill="url(#paint31_linear_1490_6868)"/>
<path d="M338.352 219.687H297.264C296.267 219.687 295.459 220.495 295.459 221.493V222.847C295.459 223.844 296.267 224.653 297.264 224.653H338.352C339.349 224.653 340.156 223.844 340.156 222.847V221.493C340.156 220.495 339.349 219.687 338.352 219.687Z" fill="url(#paint32_linear_1490_6868)"/>
<path d="M384.768 93.4083C386.121 93.5158 388.87 69.7392 388.934 68.2559C389.257 61.785 385.927 29.1083 371.558 40.6741C369.346 42.4584 368.487 45.0597 368.251 47.4244C367.177 58.0659 372.396 87.0665 372.396 87.0665L384.768 93.3868V93.4083Z" fill="url(#paint33_linear_1490_6868)"/>
<path d="M382.104 84.8523C379.956 83.2615 376.326 84.5514 374.114 85.5618C368.895 87.948 352.099 118.518 352.099 118.518L347.91 121.248L343.142 123.011L340.092 124.129C339.19 124.322 338.266 124.408 337.343 124.301C336.892 124.236 336.419 124.043 335.968 124.086C335.624 124.129 335.259 124.344 335.195 124.688C335.152 124.946 335.259 125.182 335.388 125.397C335.904 126.236 336.892 126.752 337.858 126.709C338.223 126.709 338.589 126.623 338.954 126.558C339.319 126.494 339.705 126.472 340.049 126.558C340.414 126.644 340.736 126.902 340.887 127.246C341.059 127.719 340.801 127.999 340.457 128.213C340.028 128.471 339.662 128.88 339.276 129.224C339.04 129.439 338.803 129.654 338.567 129.869C338.352 130.041 338.116 130.256 337.901 130.471C337.579 130.75 337.278 131.03 336.956 131.309C333.992 133.781 331.995 133.244 330.556 135.308C329.718 136.512 331.629 136.189 331.715 137.802C331.758 138.726 336.72 137.866 335.882 138.876C335.066 139.887 337.88 141.005 342.175 140.36C345.934 139.801 347.867 138.146 349.757 136.49C349.908 136.404 350.037 136.297 350.144 136.146L358.649 123.935C359.723 122.216 367.005 115.035 368.465 113.702C370.055 112.241 391.361 91.6672 382.083 84.8523H382.104Z" fill="url(#paint34_linear_1490_6868)"/>
<path d="M361.592 121.098C364.492 117.937 369.496 113.057 370.72 111.94C372.525 110.284 392.822 92.742 382.04 84.3579C379.548 82.423 376.649 84.2074 374.114 85.3038C369.346 87.3461 357.984 106.393 353.667 113.853C356.437 116.11 359.101 118.496 361.571 121.098H361.592Z" fill="url(#paint35_linear_1490_6868)"/>
<path d="M354.864 109.585L351.113 114.696L362.364 122.969L366.116 117.858L354.864 109.585Z" fill="url(#paint36_linear_1490_6868)"/>
<path d="M355.965 225.534H279.651V273.926H355.965V225.534Z" fill="url(#paint37_linear_1490_6868)"/>
<path d="M194.875 501.115L440.762 501.115L440.762 255.008L194.875 255.008L194.875 501.115Z" fill="url(#paint38_linear_1490_6868)"/>
<path d="M431.29 264.467H204.304V491.656H431.29V264.467Z" fill="url(#paint39_linear_1490_6868)"/>
<path d="M431.29 264.467H204.304V278.053H431.29V264.467Z" fill="url(#paint40_linear_1490_6868)"/>
<path d="M216.225 491.634H204.304V264.467L216.225 278.053V491.634Z" fill="url(#paint41_linear_1490_6868)"/>
<path d="M419.391 491.634H431.29V264.467L419.391 278.053V491.634Z" fill="url(#paint42_linear_1490_6868)"/>
<path opacity="0.2" d="M353.108 386.961V351.941H333.068C332.403 350.007 331.629 348.115 330.727 346.266L344.882 332.099L320.138 307.333L305.984 321.5C304.158 320.619 302.268 319.845 300.314 319.157V299.1H265.325V319.157C263.392 319.824 261.502 320.597 259.655 321.5L245.5 307.333L220.757 332.099L234.911 346.266C234.031 348.093 233.258 349.985 232.57 351.941H212.531V386.961H232.57C233.236 388.896 234.031 390.788 234.911 392.637L220.757 406.804L245.5 431.569L259.655 417.402C261.48 418.284 263.371 419.058 265.325 419.746V439.803H300.314V419.746C302.247 419.079 304.137 418.305 305.984 417.402L320.138 431.569L344.882 406.804L330.727 392.637C331.608 390.809 332.381 388.918 333.068 386.961H353.108ZM282.83 391.863C270.458 391.863 260.428 381.823 260.428 369.441C260.428 357.058 270.458 347.018 282.83 347.018C295.202 347.018 305.232 357.058 305.232 369.441C305.232 381.823 295.202 391.863 282.83 391.863Z" fill="#FE7146"/>
<path d="M429.421 438.148V415.597H416.513C416.083 414.35 415.589 413.124 415.009 411.942L424.138 402.805L408.222 386.875L399.094 396.012C397.912 395.432 396.688 394.937 395.442 394.507V381.587H372.911V394.507C371.665 394.937 370.441 395.432 369.26 396.012L360.153 386.875L344.237 402.805L353.366 411.92C352.786 413.103 352.292 414.328 351.862 415.575H338.954V438.126H351.862C352.292 439.373 352.786 440.598 353.366 441.781L344.237 450.917L360.153 466.847L369.26 457.711C370.441 458.291 371.665 458.786 372.911 459.216V472.136H395.442V459.216C396.688 458.786 397.912 458.291 399.094 457.711L408.222 466.847L424.138 450.917L415.009 441.781C415.589 440.598 416.083 439.373 416.513 438.126H429.421V438.148ZM384.187 441.308C376.219 441.308 369.775 434.837 369.775 426.883C369.775 418.929 376.24 412.458 384.187 412.458C392.135 412.458 398.6 418.929 398.6 426.883C398.6 434.837 392.135 441.308 384.187 441.308Z" fill="url(#paint43_linear_1490_6868)"/>
<path d="M271.382 501.115H253.812V614H271.382V501.115Z" fill="url(#paint44_linear_1490_6868)"/>
<path d="M391.769 501.115H374.2V614H391.769V501.115Z" fill="url(#paint45_linear_1490_6868)"/>
<path d="M185.124 365.808C183.577 364.109 184.351 360.885 185.016 358.885C186.584 354.199 211.242 337.043 211.242 337.043L213.196 333.195L214.27 328.939L214.958 326.23C215.043 325.435 215.043 324.639 214.85 323.865C214.764 323.478 214.528 323.091 214.528 322.704C214.528 322.403 214.7 322.081 214.979 321.995C215.194 321.93 215.409 321.995 215.602 322.102C216.354 322.468 216.891 323.263 216.955 324.102C216.977 324.424 216.955 324.747 216.934 325.069C216.934 325.392 216.934 325.714 217.041 326.015C217.148 326.316 217.385 326.574 217.707 326.66C218.136 326.767 218.351 326.531 218.501 326.208C218.695 325.822 218.996 325.456 219.253 325.112L219.726 324.446C219.855 324.231 220.005 324.037 220.177 323.822C220.392 323.521 220.606 323.242 220.821 322.941C222.668 320.168 222.024 318.512 223.656 317.093C224.623 316.255 224.515 317.932 225.89 317.846C226.685 317.803 226.406 322.124 227.179 321.328C227.952 320.533 229.176 322.855 229.026 326.595C228.876 329.863 227.651 331.669 226.384 333.453C226.32 333.582 226.234 333.711 226.126 333.819L216.44 342.224C215.065 343.299 209.566 350.2 208.557 351.554C207.44 353.059 191.761 373.181 185.081 365.85L185.124 365.808Z" fill="url(#paint46_linear_1490_6868)"/>
<path d="M173.182 544.455C173.333 543.38 173.805 542.305 174.213 541.273C174.321 540.972 175.223 538.091 175.244 537.769C175.48 533.018 174.793 519.883 174.793 519.883H187.895C187.895 519.883 185.897 531.212 187.659 537.898C193.415 541.187 203.703 545.616 203.703 545.616C203.703 545.616 215.388 547.658 215.989 547.938C216.59 548.217 218.115 548.647 219.834 550.281C219.834 550.281 221.165 553.312 206.517 555.462C206.517 555.462 200.181 556.795 190.064 555.075C187.874 554.86 185.683 554.645 183.492 554.43C181.237 554.215 174.471 553.914 173.612 553.247C173.268 552.99 173.053 552.732 172.903 552.452C171.743 550.367 172.903 546.691 173.204 544.455H173.182Z" fill="url(#paint47_linear_1490_6868)"/>
<path d="M174.213 541.273C174.278 541.101 174.6 540.069 174.879 539.167C175.373 539.446 175.867 539.704 176.34 539.962C181.902 542.843 187.938 542.628 193.93 541.424C194.038 541.402 194.145 541.381 194.253 541.338C199.042 543.638 203.703 545.637 203.703 545.637C203.703 545.637 215.388 547.68 215.989 547.959C216.59 548.239 218.115 548.669 219.834 550.302C219.834 550.302 221.165 553.334 206.517 555.483C206.517 555.483 200.181 556.816 190.064 555.096C187.874 554.881 185.683 554.666 183.492 554.451C181.237 554.236 174.471 553.935 173.612 553.269C173.268 553.011 173.053 552.753 172.903 552.474C171.743 550.388 172.903 546.712 173.204 544.476C173.354 543.402 173.827 542.327 174.235 541.295L174.213 541.273Z" fill="url(#paint48_linear_1490_6868)"/>
<path d="M188.496 449.026C188.496 449.026 191.568 448.897 191.374 457.088C191.159 465.278 191.138 531.212 191.138 531.212L171.657 533.233C171.657 533.233 164.934 484.519 173.955 456.185C173.955 456.185 177.37 443.587 188.496 449.026Z" fill="url(#paint49_linear_1490_6868)"/>
<path d="M165.213 394.98C165.922 394.486 166.674 394.077 167.469 393.733C170.841 392.336 174.535 393.669 178.165 393.948C187.938 394.658 190.472 416.199 190.751 428.001C191.031 440.663 193.372 450.875 188.711 462.656C187.336 466.138 184.974 469.771 181.301 470.373C178.466 470.825 175.588 469.255 173.762 467.02C171.936 464.805 170.948 462.011 170.068 459.259C166.309 447.629 163.56 435.697 160.66 423.83C159.328 418.348 157.975 412.759 158.598 407.17C159.135 402.44 161.39 397.646 165.213 394.98Z" fill="url(#paint50_linear_1490_6868)"/>
<path d="M144.336 544.412C144.594 543.358 145.195 542.348 145.689 541.359C145.84 541.08 147.042 538.306 147.085 537.984C147.837 533.276 148.525 520.162 148.525 520.162L161.562 521.538C161.562 521.538 158.362 532.609 159.414 539.446C164.784 543.337 174.557 548.819 174.557 548.819C174.557 548.819 185.94 552.086 186.52 552.43C187.1 552.774 188.561 553.355 190.107 555.161C190.107 555.161 191.116 558.321 176.318 558.901C176.318 558.901 169.874 559.546 159.994 556.773C157.846 556.321 155.677 555.87 153.529 555.419C151.317 554.967 144.615 553.935 143.821 553.183C143.52 552.882 143.305 552.602 143.198 552.323C142.253 550.13 143.799 546.583 144.336 544.412Z" fill="url(#paint51_linear_1490_6868)"/>
<path d="M145.689 541.359C145.775 541.187 146.205 540.198 146.57 539.317C147.042 539.639 147.494 539.962 147.945 540.263C153.164 543.702 159.199 544.132 165.278 543.573C165.385 543.573 165.493 543.552 165.6 543.53C170.132 546.346 174.535 548.819 174.535 548.819C174.535 548.819 185.919 552.086 186.499 552.43C187.079 552.774 188.539 553.355 190.086 555.161C190.086 555.161 191.095 558.321 176.296 558.901C176.296 558.901 169.853 559.546 159.973 556.773C157.825 556.321 155.655 555.87 153.508 555.418C151.295 554.967 144.594 553.935 143.799 553.183C143.499 552.882 143.284 552.602 143.176 552.323C142.231 550.13 143.778 546.583 144.315 544.412C144.572 543.358 145.174 542.348 145.668 541.359H145.689Z" fill="url(#paint52_linear_1490_6868)"/>
<path d="M169.659 451.154C169.659 451.154 172.731 451.347 171.657 459.474C170.583 467.6 162.614 533.856 162.614 533.856L145.303 533.125C145.303 533.125 142.468 483.981 154.453 456.765C154.453 456.765 159.178 444.597 169.659 451.175V451.154Z" fill="url(#paint53_linear_1490_6868)"/>
<path d="M152.305 395.475C156.837 392.744 162.249 393.325 166.588 396.12C172.409 399.882 175.888 406.396 176.554 413.253C177.435 422.497 176.769 432.709 175.587 441.888C174.943 446.833 173.848 452.035 172.366 456.915C171.12 461.043 170.411 466.547 166.566 469.298C163.753 471.319 158.813 471.491 156.042 469.191C153.164 466.804 152.262 462.634 151.639 459.13C150.908 455.131 150.049 451.154 149.298 447.155C148.03 440.319 147.064 433.44 145.754 426.604C144.508 420.025 143.584 412.952 144.937 406.31C145.925 401.559 148.696 397.624 152.305 395.432V395.475Z" fill="url(#paint54_linear_1490_6868)"/>
<path d="M183.642 374.321C183.642 374.321 176.232 367.764 180.957 361.874C185.683 355.962 195.391 348.803 211.435 333.367L219.876 342.719C219.876 342.719 192.341 373.719 183.642 374.342V374.321Z" fill="url(#paint55_linear_1490_6868)"/>
<path d="M141.201 397.689C142.081 390.165 143.757 383.199 142.811 375.568C141.845 367.85 140.943 360.111 139.847 352.415C139.375 349.147 138.516 345.793 138.215 342.526C137.785 338.14 139.096 334.485 141.759 331.368C144.079 328.659 153.1 321.952 154.26 321.393C159.608 318.77 166.867 319.587 171.872 322.791C174.406 324.123 176.919 325.435 179.475 326.746C183.127 328.358 185.597 332.379 185.726 336.85C186.005 346.073 186.22 355.295 186.284 364.496C186.327 369.312 185.769 373.998 186.542 378.792C187.487 384.661 192.212 398.828 192.685 408.073C192.728 408.997 192.062 409.792 191.138 409.9C190.107 410.007 188.733 410.201 187.444 410.566C181.043 412.394 172.452 411.813 165.922 412.974C159.887 414.049 148.933 416.93 141.63 416.306C140.943 416.242 140.449 415.661 140.47 414.973C140.556 411.469 140.792 401.258 141.222 397.689H141.201Z" fill="url(#paint56_linear_1490_6868)"/>
<path style="mix-blend-mode:multiply" d="M180.685 341.176L152.833 344.131L157.367 386.951L185.219 383.996L180.685 341.176Z" fill="url(#paint57_linear_1490_6868)"/>
<path d="M185.919 382.511L158.04 385.478L153.508 342.654L154.281 341.687L186.671 381.544L185.919 382.511Z" fill="url(#paint58_linear_1490_6868)"/>
<path d="M182.118 338.738L154.266 341.692L158.8 384.513L186.652 381.558L182.118 338.738Z" fill="url(#paint59_linear_1490_6868)"/>
<path d="M153.937 311.762L154.259 321.651C154.259 321.651 156.729 332.722 168.156 327.412C168.886 327.068 169.337 326.316 169.294 325.521L168.499 311.354L153.958 311.762H153.937Z" fill="url(#paint60_linear_1490_6868)"/>
<path d="M147.751 299.487L155.527 315.417L156.386 317.695C165.471 323.607 174.041 320.447 175.287 316.341C176.533 312.235 168.779 289.705 168.779 289.705L147.751 299.508V299.487Z" fill="url(#paint61_linear_1490_6868)"/>
<path d="M169.981 303.356L171.743 310.773L175.974 309.784L169.981 303.356Z" fill="#FFB5BE"/>
<path d="M143.477 297.251C144.744 286.588 165.815 286.33 168.285 290.737C171.592 296.606 157.094 299.917 157.094 299.917C157.094 299.917 157.202 299.336 156.472 303.894C156.063 306.409 156.837 309.591 157.61 311.934C157.954 312.966 155.913 314.643 155.011 314.041L153.121 308.989L154.216 314.406V320.619C149.942 316.792 148.267 313.589 144.723 308.989C139.396 299.164 143.499 297.251 143.499 297.251H143.477Z" fill="url(#paint62_linear_1490_6868)"/>
<path d="M148.976 308.774C148.116 311.289 150.737 315.288 155.527 315.395L152.713 307.871C151.897 306.968 149.534 307.118 148.976 308.774Z" fill="url(#paint63_linear_1490_6868)"/>
<path d="M134.521 383.049C134.521 383.049 130.955 380.297 130.139 376.428C128.958 370.838 129.13 365.098 130.01 359.466C130.74 354.844 131.943 350.286 133.619 345.793C135.079 341.881 139.16 326.424 148.074 331.562C150.286 332.851 151.167 334.958 151.424 336.915C152.541 345.772 145.002 377.631 145.002 377.631C145.002 377.631 135.723 382.941 134.521 383.027V383.049Z" fill="url(#paint64_linear_1490_6868)"/>
<path d="M186.542 357.896C187.1 356.907 186.262 356.521 186.842 355.166C187.422 353.812 186.563 352.93 186.348 351.211C186.134 349.491 184.866 350.437 185.038 348.631C185.103 348.007 184.823 347.599 184.458 347.319C183.986 348.007 183.427 348.781 182.396 349.598C182.117 349.813 181.838 350.007 181.559 350.222C181.344 350.372 181.15 350.523 180.957 350.673C180.742 350.824 180.549 350.996 180.334 351.146C179.991 351.404 179.604 351.619 179.325 351.942C179.089 352.199 178.831 352.35 178.487 352.135C178.229 351.963 178.101 351.662 178.079 351.361C178.079 351.06 178.143 350.759 178.251 350.48C178.358 350.2 178.487 349.921 178.552 349.62C178.723 348.846 178.466 347.964 177.886 347.405C177.735 347.255 177.542 347.126 177.349 347.126C177.07 347.126 176.812 347.362 176.726 347.642C176.618 348.007 176.726 348.416 176.683 348.781C176.64 349.534 176.404 350.286 176.103 350.974L174.707 353.253L172.516 356.821L169.638 359.767C169.638 359.767 166.18 360.863 161.583 362.432V373.224C162.357 372.708 162.894 372.343 163.087 372.192C164.397 371.247 171.356 366.539 172.903 365.937C172.903 365.937 184.093 361.057 184.115 361.057C184.243 360.992 184.351 360.906 184.458 360.799C184.995 360.39 185.511 359.982 186.026 359.509C186.176 358.993 186.176 358.541 186.52 357.918L186.542 357.896Z" fill="url(#paint65_linear_1490_6868)"/>
<path d="M134.521 383.049C134.521 383.049 129.645 374.45 136.024 370.408C142.403 366.367 149.792 366.238 169.982 356.843L174.922 368.43C174.922 368.43 142.94 385.285 134.521 383.049Z" fill="url(#paint66_linear_1490_6868)"/>
<path d="M353.108 379.48V344.46H333.068C332.403 342.525 331.629 340.633 330.727 338.785L344.882 324.618L320.138 299.852L305.984 314.019C304.158 313.138 302.268 312.364 300.314 311.676V291.618H265.325V311.676C263.392 312.342 261.502 313.116 259.655 314.019L245.5 299.852L220.757 324.618L234.911 338.785C234.031 340.612 233.258 342.504 232.57 344.46H212.531V379.48H232.57C233.236 381.415 234.031 383.307 234.911 385.156L220.757 399.323L245.5 424.088L259.655 409.921C261.48 410.802 263.371 411.576 265.325 412.264V432.322H300.314V412.264C302.247 411.598 304.137 410.824 305.984 409.921L320.138 424.088L344.882 399.323L330.727 385.156C331.608 383.328 332.381 381.436 333.068 379.48H353.108ZM282.83 384.382C270.458 384.382 260.428 374.342 260.428 361.959C260.428 349.577 270.458 339.537 282.83 339.537C295.202 339.537 305.232 349.577 305.232 361.959C305.232 374.342 295.202 384.382 282.83 384.382Z" fill="url(#paint67_linear_1490_6868)"/>
<path d="M353.108 379.48V344.46H333.068C332.403 342.525 331.629 340.633 330.727 338.785L344.882 324.618L320.138 299.852L305.984 314.019C304.158 313.138 302.268 312.364 300.314 311.676V291.618H265.325V311.676C263.392 312.342 261.502 313.116 259.655 314.019L245.5 299.852L220.757 324.618L234.911 338.785C234.031 340.612 233.258 342.504 232.57 344.46H212.531V379.48H232.57C233.236 381.415 234.031 383.307 234.911 385.156L220.757 399.323L245.5 424.088L259.655 409.921C261.48 410.802 263.371 411.576 265.325 412.264V432.322H300.314V412.264C302.247 411.598 304.137 410.824 305.984 409.921L320.138 424.088L344.882 399.323L330.727 385.156C331.608 383.328 332.381 381.436 333.068 379.48H353.108ZM282.83 384.382C270.458 384.382 260.428 374.342 260.428 361.959C260.428 349.577 270.458 339.537 282.83 339.537C295.202 339.537 305.232 349.577 305.232 361.959C305.232 374.342 295.202 384.382 282.83 384.382Z" fill="#FE7146"/>
<path d="M282.83 404.246C259.547 404.246 240.603 385.285 240.603 361.981C240.603 338.677 259.547 319.716 282.83 319.716C306.113 319.716 325.057 338.677 325.057 361.981C325.057 385.285 306.113 404.246 282.83 404.246ZM282.83 321.995C260.793 321.995 242.88 339.924 242.88 361.981C242.88 384.038 260.793 401.967 282.83 401.967C304.867 401.967 322.78 384.038 322.78 361.981C322.78 339.924 304.867 321.995 282.83 321.995Z" fill="white"/>
<path d="M282.83 394.808C264.745 394.808 250.032 380.082 250.032 361.981C250.032 343.88 264.745 329.154 282.83 329.154C300.915 329.154 315.628 343.88 315.628 361.981C315.628 380.082 300.915 394.808 282.83 394.808ZM282.83 331.433C266.012 331.433 252.309 345.127 252.309 361.981C252.309 378.835 265.991 392.529 282.83 392.529C299.669 392.529 313.351 378.835 313.351 361.981C313.351 345.127 299.669 331.433 282.83 331.433Z" fill="white"/>
<path d="M429.421 430.667V408.115H416.513C416.083 406.868 415.589 405.643 415.009 404.461L424.138 395.324L408.222 379.394L399.094 388.509C397.912 387.929 396.688 387.434 395.442 387.004V374.084H372.911V387.004C371.665 387.434 370.441 387.929 369.26 388.509L360.153 379.394L344.237 395.324L353.366 404.461C352.786 405.643 352.292 406.868 351.862 408.115H338.954V430.667H351.862C352.292 431.913 352.786 433.139 353.366 434.321L344.237 443.436L360.153 459.366L369.26 450.23C370.441 450.81 371.665 451.305 372.911 451.734V464.655H395.442V451.734C396.688 451.305 397.912 450.81 399.094 450.23L408.222 459.366L424.138 443.436L415.009 434.321C415.589 433.139 416.083 431.913 416.513 430.667H429.421ZM384.187 433.827C376.219 433.827 369.775 427.356 369.775 419.402C369.775 411.447 376.24 404.977 384.187 404.977C392.135 404.977 398.6 411.447 398.6 419.402C398.6 427.356 392.135 433.827 384.187 433.827Z" fill="url(#paint68_linear_1490_6868)"/>
<path d="M384.187 447.026C368.981 447.026 356.587 434.644 356.587 419.402C356.587 404.16 368.959 391.777 384.187 391.777C399.416 391.777 411.787 404.16 411.787 419.402C411.787 434.644 399.416 447.026 384.187 447.026ZM384.187 394.077C370.226 394.077 358.886 405.449 358.886 419.402C358.886 433.354 370.248 444.726 384.187 444.726C398.127 444.726 409.489 433.354 409.489 419.402C409.489 405.449 398.127 394.077 384.187 394.077Z" fill="white"/>
<path d="M384.187 440.943C372.309 440.943 362.666 431.268 362.666 419.402C362.666 407.535 372.331 397.861 384.187 397.861C396.043 397.861 405.709 407.535 405.709 419.402C405.709 431.268 396.043 440.943 384.187 440.943ZM384.187 400.14C373.577 400.14 364.942 408.782 364.942 419.402C364.942 430.022 373.577 438.664 384.187 438.664C394.797 438.664 403.432 430.022 403.432 419.402C403.432 408.782 394.797 400.14 384.187 400.14Z" fill="white"/>
<path d="M445.509 550.904C441.342 530.653 450.556 501.695 452.038 496.686C454.83 487.206 462.649 477.618 473.152 482.605C474.483 483.229 475.665 484.132 476.653 485.25C488.23 498.299 474.634 518.958 467.846 530.804C464.904 535.941 461.854 541.036 458.589 546.002C449.912 550.796 446.969 558.106 445.487 550.925L445.509 550.904Z" fill="url(#paint69_linear_1490_6868)"/>
<path d="M470.467 538.93C463.443 539.747 456.549 541.23 450.921 543.767C450.921 543.767 442.094 547.292 446.926 555.247C446.926 555.247 447.077 557.568 452.983 556.794C455.024 556.515 462.09 555.376 470.445 553.978V538.93H470.467Z" fill="url(#paint70_linear_1490_6868)"/>
<path d="M465.698 432.472C468.662 432.042 471.411 432.343 473.259 434.321C476.953 438.255 472.056 441.759 468.426 443.501C462.068 446.51 454.809 447.951 448.021 449.778C442.974 451.132 436.552 452.981 431.397 451.476C428.54 450.659 426.972 448.381 429.292 446.016C431.848 443.415 435.499 442.383 438.871 441.114C443.36 439.416 447.935 437.911 452.51 436.428C456.806 435.052 461.231 433.139 465.72 432.472H465.698Z" fill="url(#paint71_linear_1490_6868)"/>
<path d="M430.645 412.479L430.882 411.469C430.882 411.469 430.882 411.383 430.903 411.34L431.913 402.741C431.956 402.375 431.827 401.988 431.547 401.73L422.892 393.626C422.741 393.475 422.548 393.389 422.355 393.346C421.56 393.153 420.808 393.819 420.916 394.636L421.087 395.904C421.109 396.141 421.216 396.334 421.367 396.528L423.88 399.473C424.073 399.688 424.159 399.968 424.159 400.247C424.159 401.816 424.159 407.363 425.082 411.727C425.19 412.286 425.705 412.651 426.285 412.651L430.667 412.501L430.645 412.479Z" fill="url(#paint72_linear_1490_6868)"/>
<path d="M430.538 451.025C428.154 450.401 427.638 447.392 427.359 445.328C426.93 442.297 425.233 411.985 425.641 411.942L430.903 411.318C430.903 411.318 438.528 439.653 438.056 446.811C437.841 449.95 433.717 451.863 430.538 451.025Z" fill="url(#paint73_linear_1490_6868)"/>
<path d="M526.289 531.126C524.549 531.599 523.153 534.265 522.122 535.662C521.177 536.93 520.941 538.844 520.017 539.037C517.333 539.618 512.027 539.102 512.027 539.102L513.402 547.916C513.402 547.916 520.103 546.583 524.141 547.593C528.179 548.604 539.026 552.344 539.026 552.344C539.026 552.344 546.35 557.869 546.823 558.063C547.295 558.256 548.348 558.88 550.13 558.966C550.13 558.966 552.493 558.063 545.835 548.582C545.835 548.582 543.171 544.261 536.857 539.446C535.568 538.328 534.279 537.188 532.99 536.07C531.68 534.91 527.9 531.233 527.084 531.104C526.762 531.061 526.504 531.061 526.268 531.126H526.289Z" fill="url(#paint74_linear_1490_6868)"/>
<path d="M533.012 536.07C534.301 537.188 535.59 538.328 536.878 539.446C543.193 544.261 545.856 548.582 545.856 548.582C552.515 558.063 550.152 558.966 550.152 558.966C548.348 558.88 547.317 558.256 546.844 558.063C546.372 557.869 539.048 552.344 539.048 552.344H539.005C539.993 549.249 539.692 546.991 536.578 544.906C531.595 541.595 526.161 540.435 522.273 535.447C523.304 534.007 524.636 531.577 526.311 531.126C526.547 531.061 526.805 531.061 527.127 531.104C527.943 531.233 531.724 534.91 533.034 536.07H533.012Z" fill="url(#paint75_linear_1490_6868)"/>
<path d="M454.68 550.904C450.513 530.653 459.728 501.695 461.21 496.686C464.002 487.206 471.82 477.618 482.323 482.605C483.655 483.229 484.836 484.132 485.824 485.25C497.401 498.299 483.805 518.958 477.018 530.804C474.075 535.941 471.025 541.036 467.761 546.002C459.083 550.796 456.141 558.106 454.659 550.925L454.68 550.904Z" fill="url(#paint76_linear_1490_6868)"/>
<path d="M456.119 555.247C456.119 555.247 456.269 557.568 462.176 556.794C468.083 556.021 515.765 547.894 515.765 547.894L515.679 539.059C515.679 539.059 479.853 534.802 460.093 543.767C460.093 543.767 451.265 547.292 456.098 555.247H456.119Z" fill="url(#paint77_linear_1490_6868)"/>
<path d="M460.673 388.853C463.658 385.908 468.555 385.457 472.335 385.715C477.684 386.08 483.44 388.531 486.125 393.604C491 402.848 480.368 416.908 471.025 416.628C469.887 416.585 468.705 416.327 467.803 415.575C466.686 414.651 466.579 413.275 466.042 411.985C465.763 411.318 465.333 410.717 464.904 410.136C463.379 408.051 461.661 406.159 460.243 403.988C458.825 401.816 457.73 399.323 457.644 396.614C457.558 393.518 458.739 390.767 460.673 388.853Z" fill="url(#paint78_linear_1490_6868)"/>
<path d="M470.145 413.189C470.939 412.565 471.734 411.899 472.486 411.232C473.452 414.586 474.569 418.004 475.987 421.186C476.137 422.003 476.631 422.433 476.631 423.035C476.631 423.035 474.591 431.01 466.665 429.205C466.665 429.205 468.254 422.304 466.601 416.822C467.717 415.553 468.856 414.285 470.166 413.189H470.145Z" fill="url(#paint79_linear_1490_6868)"/>
<path d="M460.436 392.658C460.436 392.658 452.704 409.964 457.429 417.101C457.429 417.101 467.309 420.627 474.118 412.135C480.905 403.644 477.447 387.563 460.436 392.68V392.658Z" fill="url(#paint80_linear_1490_6868)"/>
<path d="M458.954 401L457.365 408.502L453.799 407.75L458.954 401Z" fill="#FFB5BE"/>
<path d="M459.233 465.407C459.298 463.644 459.62 460.957 458.975 459.302C457.472 455.411 455.474 450.982 455.474 446.424C455.474 436.17 475.9 421.122 475.986 421.186C476.588 421.616 477.125 422.089 477.597 422.605L477.64 422.648C477.812 422.82 477.962 423.013 478.113 423.207C478.177 423.293 478.22 423.336 478.285 423.422C478.499 423.701 478.693 423.981 478.886 424.282C478.907 424.325 478.929 424.346 478.95 424.368V424.411C479.187 424.755 479.38 425.099 479.552 425.464C480.475 427.227 481.012 429.226 481.249 431.183C481.313 431.72 481.356 432.279 481.378 432.816C481.506 434.73 481.463 436.664 481.313 438.449C481.27 439.051 481.206 439.631 481.141 440.19C480.518 445.457 480.604 450.66 480.991 455.927C481.356 459.839 482.022 463.709 482.967 467.535C483.16 468.18 483.332 468.825 483.525 469.449C484.084 471.276 484.707 473.103 485.287 474.952C485.501 475.64 485.673 476.134 485.716 476.564C486.833 479.897 487.907 483.229 488.272 486.69C488.337 487.378 489.496 488.668 488.895 489.033C488.594 489.227 487.005 488.775 486.64 488.775C482.065 488.689 477.49 488.625 472.893 488.539C470.767 488.496 459.04 489.635 454.508 490.022C452.253 490.216 455.711 487.485 456.355 485.314C457.3 482.025 458.438 478.155 458.438 478.005C458.438 473.791 459.104 469.621 459.255 465.407H459.233Z" fill="url(#paint81_linear_1490_6868)"/>
<path d="M474.462 406.159C474.462 406.159 474.462 487.141 490.334 480.757C490.334 480.757 490.249 406.331 486.919 395.518C483.59 384.704 461.467 392.078 461.467 392.078L474.462 406.159Z" fill="url(#paint82_linear_1490_6868)"/>
<path d="M473.903 405.708C473.903 405.708 477.855 402.633 479.036 405.579C480.024 408.094 477.662 412.909 472.894 413.167L473.903 405.686V405.708Z" fill="url(#paint83_linear_1490_6868)"/>
<path style="mix-blend-mode:multiply" d="M470.531 467.965C470.531 467.535 470.531 467.127 470.531 466.697C470.552 461.881 470.789 457.087 471.046 452.272C471.197 449.284 471.175 446.166 471.433 443.114H480.884C480.583 447.392 480.669 451.627 480.991 455.927C481.184 457.99 481.464 460.054 481.829 462.096C481.313 467.148 480.626 473.34 477.576 477.381C476.545 478.757 475.213 479.553 474.01 479.402C472.786 479.488 471.455 479.209 470.402 478.972C469.264 478.714 464.238 477.338 458.503 475.748C458.653 472.48 459.061 469.212 459.212 465.945C463.314 466.568 467.374 467.256 470.552 467.987L470.531 467.965Z" fill="url(#paint84_linear_1490_6868)"/>
<path d="M469.543 435.847C470.188 432.924 471.476 430.473 473.968 429.441C478.951 427.399 480.497 433.225 480.798 437.245C481.335 444.275 480.089 451.562 479.359 458.571C478.822 463.773 478.242 470.437 475.02 474.716C473.238 477.08 470.553 477.747 469.157 474.737C467.632 471.426 467.997 467.643 467.997 464.031C467.997 459.216 468.255 454.422 468.512 449.606C468.749 445.091 468.555 440.276 469.543 435.847Z" fill="url(#paint85_linear_1490_6868)"/>
<path d="M438.356 461.494L437.497 460.914C437.497 460.914 437.411 460.871 437.368 460.849L429.722 456.829C429.4 456.657 428.992 456.657 428.648 456.829L417.995 462.032C417.801 462.118 417.651 462.268 417.544 462.44C417.071 463.128 417.436 464.052 418.252 464.246L419.498 464.547C419.713 464.59 419.949 464.59 420.164 464.504L423.794 463.214C424.052 463.128 424.352 463.128 424.61 463.214C426.071 463.794 431.247 465.751 435.65 466.46C436.208 466.546 436.745 466.202 436.939 465.665L438.356 461.516V461.494Z" fill="url(#paint86_linear_1490_6868)"/>
<path d="M474.311 475.36C472.872 477.36 469.887 476.758 467.846 476.306C464.861 475.618 435.951 466.439 436.058 466.03L437.368 460.849C437.368 460.849 466.536 463.838 473.044 466.847C475.901 468.159 476.223 472.695 474.29 475.382L474.311 475.36Z" fill="url(#paint87_linear_1490_6868)"/>
<path d="M182.955 346.524C182.955 346.524 183.986 346.717 184.458 347.319C184.931 347.921 183.255 349.534 183.255 349.534L182.955 346.524Z" fill="url(#paint88_linear_1490_6868)"/>
<path d="M335.474 18.5742C335.474 18.5742 329.61 28.5277 325.014 29.6886C325.014 29.6886 335.774 28.7857 339.941 17.1339C344.087 5.48205 337.407 16.4675 337.149 16.7254C336.891 16.9834 335.495 18.5742 335.495 18.5742H335.474Z" fill="url(#paint89_linear_1490_6868)"/>
<path d="M338.889 14.2961C338.889 14.2961 337.02 25.7115 333.154 28.4417C333.154 28.4417 342.863 23.6907 342.519 11.3294C342.175 -1.03183 339.899 11.6304 339.77 11.9744C339.641 12.3183 338.889 14.2961 338.889 14.2961Z" fill="url(#paint90_linear_1490_6868)"/>
<path d="M549.55 440.663C552.729 440.577 555.886 440.319 559.044 439.739C560.891 415.575 564.607 365.958 564.306 359.208C563.898 350.222 555.392 328.853 555.392 328.853C555.392 328.853 544.717 347.061 544.18 350.695C543.643 354.328 543.643 367.441 543.643 367.441C542.999 389.627 543.815 422.003 544.395 439.846C546.092 440.212 547.81 440.47 549.572 440.663H549.55Z" fill="url(#paint91_linear_1490_6868)"/>
<path d="M553.395 437.116C553.416 438.234 553.459 439.373 553.481 440.491C553.867 440.469 554.254 440.384 554.619 440.341C554.49 436.428 554.34 432.494 554.211 428.581L553.846 415.188L553.782 408.502L553.867 401.795L554.576 348.136H554.276L553.073 401.795L552.922 408.502V415.231L553.159 428.667L553.395 437.094V437.116Z" fill="white"/>
<path d="M532.453 435.031C538.016 438.449 543.665 440.04 549.615 440.685C551.376 440.62 553.116 440.513 554.877 440.341L552.987 429.011C552.987 429.011 543.665 392.121 542.72 388.703C541.775 385.306 532.861 363.464 529.897 359.573C526.933 355.682 518.149 352.78 518.149 352.78C518.149 352.78 516.259 361.035 516.667 367.592C517.075 374.149 523.411 394.529 526.804 411.297C528.265 418.499 530.456 427.291 532.496 435.052L532.453 435.031Z" fill="url(#paint92_linear_1490_6868)"/>
<path d="M532.411 396.077L536.105 407.04C536.406 407.965 536.685 408.889 536.921 409.857L537.63 412.78L539.026 418.671L541.797 430.473L543.945 439.76C544.374 439.868 544.825 439.954 545.255 440.04C544.439 436.578 543.601 433.139 542.763 429.699L539.885 417.961L538.425 412.114L537.673 409.19C537.415 408.201 537.114 407.255 536.814 406.331L533.012 395.475L529.146 384.683L521.349 363.185L521.091 363.486L528.652 385.199L532.411 396.077Z" fill="white"/>
<path d="M563.017 438.836C565.659 438.083 568.151 436.729 570.642 435.31C573.886 425.894 580.157 384.468 580.157 384.468C582.434 369.118 579.9 353.188 579.9 353.188C579.9 353.188 580.329 351.748 575.991 357.466C571.652 363.206 566.626 370.258 563.383 382.21C560.139 394.185 555.758 423.185 554.533 430.323C554.061 433.096 554.125 436.836 554.362 440.362C557.261 440.083 560.161 439.61 563.017 438.814V438.836Z" fill="url(#paint93_linear_1490_6868)"/>
<path d="M562.609 438.922L569.955 401.602C570.191 400.312 570.471 399 570.75 397.732C570.836 397.323 570.922 396.893 571.007 396.485L576.463 370.924L575.733 370.473L569.976 395.862C569.891 396.27 569.783 396.679 569.697 397.087C569.418 398.355 569.117 399.667 568.838 400.978L560.784 439.352C561.407 439.223 562.008 439.115 562.631 438.943L562.609 438.922Z" fill="white"/>
<path d="M533.785 443.63C533.785 443.63 527.621 407.384 497.895 401.214C497.895 401.214 524.528 398.441 537.995 440.211L533.764 443.63H533.785Z" fill="white"/>
<path d="M570.857 440.685C570.857 440.685 575.046 404.504 594.033 398.463C594.033 398.463 577.086 395.582 568.194 437.266L570.857 440.706V440.685Z" fill="white"/>
<path d="M572.661 441.544C572.661 441.544 582.584 411.146 599.96 409.276C599.96 409.276 585.892 403.837 570.964 438.126L572.661 441.544Z" fill="white"/>
<path d="M531.079 438.062C531.079 438.062 528.738 428.194 500.322 410.136C500.322 410.136 526.633 424.862 535.547 439.868L531.079 438.062Z" fill="white"/>
<path d="M538.295 437.245C538.295 437.245 541.302 427.549 525.967 397.56C525.967 397.56 541.174 423.615 541.238 441.093L538.295 437.266V437.245Z" fill="white"/>
<path d="M568.988 493.763L577.129 439.395C577.365 437.847 576.162 436.449 574.594 436.449H528.974C527.406 436.449 526.203 437.847 526.439 439.395L534.58 493.763C534.773 495.031 535.847 495.956 537.114 495.956H566.454C567.721 495.956 568.817 495.031 568.988 493.763Z" fill="url(#paint94_linear_1490_6868)"/>
</g>
<defs>
<linearGradient id="paint0_linear_1490_6868" x1="598.588" y1="552.322" x2="54.0393" y2="106.431" gradientUnits="userSpaceOnUse">
<stop stop-color="#F31E61"/>
<stop offset="1" stop-color="#7094FB"/>
</linearGradient>
<linearGradient id="paint1_linear_1490_6868" x1="367.885" y1="72.8563" x2="331.242" y2="652.026" gradientUnits="userSpaceOnUse">
<stop offset="0.21" stop-color="#493BF1"/>
<stop offset="0.3" stop-color="#584BF2"/>
<stop offset="0.5" stop-color="#8076F5"/>
<stop offset="0.76" stop-color="#BFBAFA"/>
<stop offset="1" stop-color="white"/>
</linearGradient>
<linearGradient id="paint2_linear_1490_6868" x1="334.98" y1="587.902" x2="334.98" y2="42.9099" gradientUnits="userSpaceOnUse">
<stop stop-color="#39B8FA"/>
<stop offset="1" stop-color="#AACAFF"/>
</linearGradient>
<linearGradient id="paint3_linear_1490_6868" x1="337.171" y1="360.089" x2="337.171" y2="585.301" gradientUnits="userSpaceOnUse">
<stop stop-color="#39B8FA"/>
<stop offset="1" stop-color="#AACAFF"/>
</linearGradient>
<linearGradient id="paint4_linear_1490_6868" x1="342.412" y1="574.702" x2="342.412" y2="542.111" gradientUnits="userSpaceOnUse">
<stop stop-color="#39B8FA"/>
<stop offset="1" stop-color="#AACAFF"/>
</linearGradient>
<linearGradient id="paint5_linear_1490_6868" x1="309.787" y1="242.316" x2="343.083" y2="267.019" gradientUnits="userSpaceOnUse">
<stop stop-color="#F4F3F1"/>
<stop offset="1" stop-color="#FFB2BC"/>
</linearGradient>
<linearGradient id="paint6_linear_1490_6868" x1="332.335" y1="276.433" x2="310.836" y2="249.341" gradientUnits="userSpaceOnUse">
<stop stop-color="#071786"/>
<stop offset="0.15" stop-color="#05136B"/>
<stop offset="0.32" stop-color="#031054"/>
<stop offset="0.51" stop-color="#020D44"/>
<stop offset="0.72" stop-color="#020C3B"/>
<stop offset="1" stop-color="#020C38"/>
</linearGradient>
<linearGradient id="paint7_linear_1490_6868" x1="341.798" y1="176.732" x2="340.887" y2="254.295" gradientUnits="userSpaceOnUse">
<stop stop-color="#071786"/>
<stop offset="0.15" stop-color="#05136B"/>
<stop offset="0.32" stop-color="#031054"/>
<stop offset="0.51" stop-color="#020D44"/>
<stop offset="0.72" stop-color="#020C3B"/>
<stop offset="1" stop-color="#020C38"/>
</linearGradient>
<linearGradient id="paint8_linear_1490_6868" x1="319.524" y1="161.172" x2="371.426" y2="141.703" gradientUnits="userSpaceOnUse">
<stop stop-color="#071786"/>
<stop offset="0.11" stop-color="#06157E"/>
<stop offset="0.26" stop-color="#05136A"/>
<stop offset="0.45" stop-color="#030E4A"/>
<stop offset="0.54" stop-color="#020C38"/>
</linearGradient>
<linearGradient id="paint9_linear_1490_6868" x1="358.567" y1="83.6353" x2="329.411" y2="56.7798" gradientUnits="userSpaceOnUse">
<stop stop-color="#0038DC"/>
<stop offset="1" stop-color="#00DCFE"/>
</linearGradient>
<linearGradient id="paint10_linear_1490_6868" x1="328.054" y1="106.245" x2="291.372" y2="124.972" gradientUnits="userSpaceOnUse">
<stop stop-color="#F4F3F1"/>
<stop offset="1" stop-color="#FFB2BC"/>
</linearGradient>
<linearGradient id="paint11_linear_1490_6868" x1="337.543" y1="86.9407" x2="327.661" y2="109.317" gradientUnits="userSpaceOnUse">
<stop stop-color="#0038DC"/>
<stop offset="1" stop-color="#00DCFE"/>
</linearGradient>
<linearGradient id="paint12_linear_1490_6868" x1="402.039" y1="229.855" x2="440.307" y2="237.183" gradientUnits="userSpaceOnUse">
<stop stop-color="#F4F3F1"/>
<stop offset="1" stop-color="#FFB2BC"/>
</linearGradient>
<linearGradient id="paint13_linear_1490_6868" x1="434.351" y1="249.392" x2="406.294" y2="235.811" gradientUnits="userSpaceOnUse">
<stop stop-color="#071786"/>
<stop offset="0.15" stop-color="#05136B"/>
<stop offset="0.32" stop-color="#031054"/>
<stop offset="0.51" stop-color="#020D44"/>
<stop offset="0.72" stop-color="#020C3B"/>
<stop offset="1" stop-color="#020C38"/>
</linearGradient>
<linearGradient id="paint14_linear_1490_6868" x1="401.934" y1="171.316" x2="426.079" y2="220.54" gradientUnits="userSpaceOnUse">
<stop stop-color="#071786"/>
<stop offset="0.15" stop-color="#05136B"/>
<stop offset="0.32" stop-color="#031054"/>
<stop offset="0.51" stop-color="#020D44"/>
<stop offset="0.72" stop-color="#020C3B"/>
<stop offset="1" stop-color="#020C38"/>
</linearGradient>
<linearGradient id="paint15_linear_1490_6868" x1="396.624" y1="188.386" x2="359.294" y2="-1.12657" gradientUnits="userSpaceOnUse">
<stop stop-color="#071786"/>
<stop offset="0.15" stop-color="#05136B"/>
<stop offset="0.32" stop-color="#031054"/>
<stop offset="0.51" stop-color="#020D44"/>
<stop offset="0.72" stop-color="#020C3B"/>
<stop offset="1" stop-color="#020C38"/>
</linearGradient>
<linearGradient id="paint16_linear_1490_6868" x1="390.083" y1="97.6916" x2="313.824" y2="79.7611" gradientUnits="userSpaceOnUse">
<stop stop-color="#0038DC"/>
<stop offset="1" stop-color="#00DCFE"/>
</linearGradient>
<linearGradient id="paint17_linear_1490_6868" x1="358.349" y1="47.1878" x2="345.646" y2="37.1594" gradientUnits="userSpaceOnUse">
<stop stop-color="#F4F3F1"/>
<stop offset="1" stop-color="#FFB2BC"/>
</linearGradient>
<linearGradient id="paint18_linear_1490_6868" x1="364.556" y1="39.3197" x2="351.853" y2="29.3128" gradientUnits="userSpaceOnUse">
<stop stop-color="#F4F3F1"/>
<stop offset="1" stop-color="#FFB2BC"/>
</linearGradient>
<linearGradient id="paint19_linear_1490_6868" x1="350.396" y1="50.2473" x2="347.517" y2="39.513" gradientUnits="userSpaceOnUse">
<stop stop-color="#E7E6FF"/>
<stop offset="0.34" stop-color="#C9D2F8"/>
<stop offset="0.76" stop-color="#A9BCF0"/>
<stop offset="1" stop-color="#9EB5EE"/>
</linearGradient>
<linearGradient id="paint20_linear_1490_6868" x1="346.696" y1="48.9694" x2="344.202" y2="39.6676" gradientUnits="userSpaceOnUse">
<stop stop-color="#F9FBFC"/>
<stop offset="1" stop-color="#CDDBFF"/>
</linearGradient>
<linearGradient id="paint21_linear_1490_6868" x1="331.993" y1="31.2073" x2="356.866" y2="22.108" gradientUnits="userSpaceOnUse">
<stop stop-color="#F4F3F1"/>
<stop offset="1" stop-color="#FFB2BC"/>
</linearGradient>
<linearGradient id="paint22_linear_1490_6868" x1="341.316" y1="24.8946" x2="341.036" y2="-2.90211" gradientUnits="userSpaceOnUse">
<stop offset="0.3" stop-color="#4E1910"/>
<stop offset="0.63" stop-color="#783918"/>
<stop offset="0.79" stop-color="#8A471C"/>
</linearGradient>
<linearGradient id="paint23_linear_1490_6868" x1="353.178" y1="20.4672" x2="357.98" y2="18.7108" gradientUnits="userSpaceOnUse">
<stop stop-color="#F4F3F1"/>
<stop offset="1" stop-color="#FFB2BC"/>
</linearGradient>
<linearGradient id="paint24_linear_1490_6868" x1="361.955" y1="48.2379" x2="357.389" y2="31.2124" gradientUnits="userSpaceOnUse">
<stop stop-color="#F9FBFC"/>
<stop offset="0.31" stop-color="#F0F4FC"/>
<stop offset="0.8" stop-color="#D8E3FE"/>
<stop offset="1" stop-color="#CDDBFF"/>
</linearGradient>
<linearGradient id="paint25_linear_1490_6868" x1="407.608" y1="249.587" x2="352.794" y2="45.1975" gradientUnits="userSpaceOnUse">
<stop stop-color="#E7E6FF"/>
<stop offset="0.34" stop-color="#C9D2F8"/>
<stop offset="0.76" stop-color="#A9BCF0"/>
<stop offset="1" stop-color="#9EB5EE"/>
</linearGradient>
<linearGradient id="paint26_linear_1490_6868" x1="325.511" y1="122.211" x2="315.199" y2="111.239" gradientUnits="userSpaceOnUse">
<stop stop-color="#F9FBFC"/>
<stop offset="0.31" stop-color="#F0F4FC"/>
<stop offset="0.8" stop-color="#D8E3FE"/>
<stop offset="1" stop-color="#CDDBFF"/>
</linearGradient>
<linearGradient id="paint27_linear_1490_6868" x1="317.797" y1="205.541" x2="317.797" y2="54.7767" gradientUnits="userSpaceOnUse">
<stop stop-color="#E49E1C"/>
<stop offset="0.41" stop-color="#FFE900"/>
</linearGradient>
<linearGradient id="paint28_linear_1490_6868" x1="317.797" y1="255.481" x2="317.797" y2="188.042" gradientUnits="userSpaceOnUse">
<stop offset="0.21" stop-color="#493BF1"/>
<stop offset="0.4" stop-color="#514BF3"/>
<stop offset="0.77" stop-color="#6776F9"/>
<stop offset="1" stop-color="#7793FE"/>
</linearGradient>
<linearGradient id="paint29_linear_1490_6868" x1="317.797" y1="192.771" x2="317.797" y2="266.359" gradientUnits="userSpaceOnUse">
<stop stop-color="#071786"/>
<stop offset="0.11" stop-color="#06157E"/>
<stop offset="0.26" stop-color="#05136A"/>
<stop offset="0.45" stop-color="#030E4A"/>
<stop offset="0.54" stop-color="#020C38"/>
</linearGradient>
<linearGradient id="paint30_linear_1490_6868" x1="317.797" y1="192.771" x2="317.797" y2="266.359" gradientUnits="userSpaceOnUse">
<stop stop-color="#071786"/>
<stop offset="0.11" stop-color="#06157E"/>
<stop offset="0.26" stop-color="#05136A"/>
<stop offset="0.45" stop-color="#030E4A"/>
<stop offset="0.54" stop-color="#020C38"/>
</linearGradient>
<linearGradient id="paint31_linear_1490_6868" x1="317.797" y1="192.772" x2="317.797" y2="266.359" gradientUnits="userSpaceOnUse">
<stop stop-color="#071786"/>
<stop offset="0.11" stop-color="#06157E"/>
<stop offset="0.26" stop-color="#05136A"/>
<stop offset="0.45" stop-color="#030E4A"/>
<stop offset="0.54" stop-color="#020C38"/>
</linearGradient>
<linearGradient id="paint32_linear_1490_6868" x1="317.797" y1="192.771" x2="317.797" y2="266.359" gradientUnits="userSpaceOnUse">
<stop stop-color="#071786"/>
<stop offset="0.11" stop-color="#06157E"/>
<stop offset="0.26" stop-color="#05136A"/>
<stop offset="0.45" stop-color="#030E4A"/>
<stop offset="0.54" stop-color="#020C38"/>
</linearGradient>
<linearGradient id="paint33_linear_1490_6868" x1="401.391" y1="67.9673" x2="368.777" y2="64.0628" gradientUnits="userSpaceOnUse">
<stop stop-color="#0038DC"/>
<stop offset="1" stop-color="#00DCFE"/>
</linearGradient>
<linearGradient id="paint34_linear_1490_6868" x1="327.441" y1="90.0118" x2="351.748" y2="107.619" gradientUnits="userSpaceOnUse">
<stop stop-color="#F4F3F1"/>
<stop offset="1" stop-color="#FFB2BC"/>
</linearGradient>
<linearGradient id="paint35_linear_1490_6868" x1="390.626" y1="104.151" x2="359.1" y2="100.801" gradientUnits="userSpaceOnUse">
<stop stop-color="#0038DC"/>
<stop offset="1" stop-color="#00DCFE"/>
</linearGradient>
<linearGradient id="paint36_linear_1490_6868" x1="368.724" y1="121.856" x2="355.552" y2="114.533" gradientUnits="userSpaceOnUse">
<stop stop-color="#F9FBFC"/>
<stop offset="0.31" stop-color="#F0F4FC"/>
<stop offset="0.8" stop-color="#D8E3FE"/>
<stop offset="1" stop-color="#CDDBFF"/>
</linearGradient>
<linearGradient id="paint37_linear_1490_6868" x1="317.797" y1="295.058" x2="317.797" y2="213.173" gradientUnits="userSpaceOnUse">
<stop stop-color="#F9FBFC"/>
<stop offset="0.38" stop-color="#EBF1FC"/>
<stop offset="1" stop-color="#CDDBFF"/>
</linearGradient>
<linearGradient id="paint38_linear_1490_6868" x1="317.818" y1="147.411" x2="317.818" y2="563.91" gradientUnits="userSpaceOnUse">
<stop stop-color="#F9FBFC"/>
<stop offset="0.38" stop-color="#EBF1FC"/>
<stop offset="1" stop-color="#CDDBFF"/>
</linearGradient>
<linearGradient id="paint39_linear_1490_6868" x1="317.797" y1="570.037" x2="317.797" y2="253.567" gradientUnits="userSpaceOnUse">
<stop stop-color="#F9FBFC"/>
<stop offset="0.38" stop-color="#EBF1FC"/>
<stop offset="1" stop-color="#CDDBFF"/>
</linearGradient>
<linearGradient id="paint40_linear_1490_6868" x1="317.797" y1="252.621" x2="317.797" y2="282.009" gradientUnits="userSpaceOnUse">
<stop stop-color="#F9FBFC"/>
<stop offset="0.09" stop-color="#F1F5FC"/>
<stop offset="0.39" stop-color="#DDE6FD"/>
<stop offset="0.7" stop-color="#D1DDFE"/>
<stop offset="1" stop-color="#CDDBFF"/>
</linearGradient>
<linearGradient id="paint41_linear_1490_6868" x1="246.703" y1="378.04" x2="172.709" y2="378.04" gradientUnits="userSpaceOnUse">
<stop stop-color="#F9FBFC"/>
<stop offset="0.38" stop-color="#EBF1FC"/>
<stop offset="1" stop-color="#CDDBFF"/>
</linearGradient>
<linearGradient id="paint42_linear_1490_6868" x1="388.891" y1="378.04" x2="462.885" y2="378.04" gradientUnits="userSpaceOnUse">
<stop stop-color="#F9FBFC"/>
<stop offset="0.38" stop-color="#EBF1FC"/>
<stop offset="1" stop-color="#CDDBFF"/>
</linearGradient>
<linearGradient id="paint43_linear_1490_6868" x1="382.448" y1="235.402" x2="384.75" y2="488.259" gradientUnits="userSpaceOnUse">
<stop stop-color="#F9FBFC"/>
<stop offset="0.14" stop-color="#EBF1FC"/>
<stop offset="0.39" stop-color="#DAE4FE"/>
<stop offset="0.66" stop-color="#D0DDFE"/>
<stop offset="1" stop-color="#CDDBFF"/>
</linearGradient>
<linearGradient id="paint44_linear_1490_6868" x1="262.597" y1="628.877" x2="262.597" y2="521.946" gradientUnits="userSpaceOnUse">
<stop offset="0.26" stop-color="#F9FBFC"/>
<stop offset="0.54" stop-color="#EBF1FC"/>
<stop offset="1" stop-color="#CDDBFF"/>
</linearGradient>
<linearGradient id="paint45_linear_1490_6868" x1="382.984" y1="0.000435158" x2="382.984" y2="0.000435158" gradientUnits="userSpaceOnUse">
<stop offset="0.26" stop-color="#F9FBFC"/>
<stop offset="0.54" stop-color="#EBF1FC"/>
<stop offset="1" stop-color="#CDDBFF"/>
</linearGradient>
<linearGradient id="paint46_linear_1490_6868" x1="203.898" y1="348.113" x2="225.062" y2="322.281" gradientUnits="userSpaceOnUse">
<stop stop-color="#F4F3F1"/>
<stop offset="1" stop-color="#FFB2BC"/>
</linearGradient>
<linearGradient id="paint47_linear_1490_6868" x1="207.87" y1="529.557" x2="171.727" y2="550.403" gradientUnits="userSpaceOnUse">
<stop stop-color="#F4F3F1"/>
<stop offset="1" stop-color="#FFB2BC"/>
</linearGradient>
<linearGradient id="paint48_linear_1490_6868" x1="186.241" y1="562.384" x2="201.553" y2="538.448" gradientUnits="userSpaceOnUse">
<stop offset="0.21" stop-color="#493BF1"/>
<stop offset="0.4" stop-color="#514BF3"/>
<stop offset="0.77" stop-color="#6776F9"/>
<stop offset="1" stop-color="#7793FE"/>
</linearGradient>
<linearGradient id="paint49_linear_1490_6868" x1="185.017" y1="461.237" x2="176.883" y2="539.509" gradientUnits="userSpaceOnUse">
<stop stop-color="#071786"/>
<stop offset="0.15" stop-color="#05136B"/>
<stop offset="0.32" stop-color="#031054"/>
<stop offset="0.51" stop-color="#020D44"/>
<stop offset="0.72" stop-color="#020C3B"/>
<stop offset="1" stop-color="#020C38"/>
</linearGradient>
<linearGradient id="paint50_linear_1490_6868" x1="207.419" y1="457.131" x2="165.331" y2="420.471" gradientUnits="userSpaceOnUse">
<stop stop-color="#071786"/>
<stop offset="0.11" stop-color="#06157E"/>
<stop offset="0.26" stop-color="#05136A"/>
<stop offset="0.45" stop-color="#030E4A"/>
<stop offset="0.54" stop-color="#020C38"/>
</linearGradient>
<linearGradient id="paint51_linear_1490_6868" x1="177.542" y1="533.362" x2="143.548" y2="552.963" gradientUnits="userSpaceOnUse">
<stop stop-color="#F4F3F1"/>
<stop offset="1" stop-color="#FFB2BC"/>
</linearGradient>
<linearGradient id="paint52_linear_1490_6868" x1="161.433" y1="575.068" x2="168.383" y2="544.307" gradientUnits="userSpaceOnUse">
<stop offset="0.21" stop-color="#493BF1"/>
<stop offset="0.4" stop-color="#514BF3"/>
<stop offset="0.77" stop-color="#6776F9"/>
<stop offset="1" stop-color="#7793FE"/>
</linearGradient>
<linearGradient id="paint53_linear_1490_6868" x1="159.607" y1="470.803" x2="151.732" y2="535.273" gradientUnits="userSpaceOnUse">
<stop stop-color="#071786"/>
<stop offset="0.15" stop-color="#05136B"/>
<stop offset="0.32" stop-color="#031054"/>
<stop offset="0.51" stop-color="#020D44"/>
<stop offset="0.72" stop-color="#020C3B"/>
<stop offset="1" stop-color="#020C38"/>
</linearGradient>
<linearGradient id="paint54_linear_1490_6868" x1="160.617" y1="470.889" x2="160.617" y2="393.712" gradientUnits="userSpaceOnUse">
<stop stop-color="#071786"/>
<stop offset="0.15" stop-color="#05136B"/>
<stop offset="0.32" stop-color="#031054"/>
<stop offset="0.51" stop-color="#020D44"/>
<stop offset="0.72" stop-color="#020C3B"/>
<stop offset="1" stop-color="#020C38"/>
</linearGradient>
<linearGradient id="paint55_linear_1490_6868" x1="175.886" y1="378.645" x2="206.744" y2="345.492" gradientUnits="userSpaceOnUse">
<stop offset="0.32" stop-color="#493BF1"/>
<stop offset="0.48" stop-color="#514BF3"/>
<stop offset="0.8" stop-color="#6776F9"/>
<stop offset="1" stop-color="#7793FE"/>
</linearGradient>
<linearGradient id="paint56_linear_1490_6868" x1="132.528" y1="397.085" x2="201.642" y2="353.285" gradientUnits="userSpaceOnUse">
<stop offset="0.21" stop-color="#493BF1"/>
<stop offset="0.4" stop-color="#514BF3"/>
<stop offset="0.77" stop-color="#6776F9"/>
<stop offset="1" stop-color="#7793FE"/>
</linearGradient>
<linearGradient id="paint57_linear_1490_6868" x1="168.205" y1="361.879" x2="173.39" y2="375.506" gradientUnits="userSpaceOnUse">
<stop offset="0.21" stop-color="#493BF1"/>
<stop offset="0.4" stop-color="#514BF3"/>
<stop offset="0.77" stop-color="#6776F9"/>
<stop offset="1" stop-color="#7793FE"/>
</linearGradient>
<linearGradient id="paint58_linear_1490_6868" x1="160.725" y1="388.144" x2="172.793" y2="354.636" gradientUnits="userSpaceOnUse">
<stop stop-color="#F9FBFC"/>
<stop offset="0.09" stop-color="#F0F4FC"/>
<stop offset="0.37" stop-color="#DCE6FD"/>
<stop offset="0.65" stop-color="#D0DDFE"/>
<stop offset="0.94" stop-color="#CDDBFF"/>
</linearGradient>
<linearGradient id="paint59_linear_1490_6868" x1="169.649" y1="359.433" x2="174.834" y2="373.06" gradientUnits="userSpaceOnUse">
<stop stop-color="#F9FBFC"/>
<stop offset="0.09" stop-color="#F0F4FC"/>
<stop offset="0.37" stop-color="#DCE6FD"/>
<stop offset="0.65" stop-color="#D0DDFE"/>
<stop offset="0.94" stop-color="#CDDBFF"/>
</linearGradient>
<linearGradient id="paint60_linear_1490_6868" x1="162.829" y1="317.609" x2="156.938" y2="324.548" gradientUnits="userSpaceOnUse">
<stop stop-color="#F4F3F1"/>
<stop offset="1" stop-color="#FFB2BC"/>
</linearGradient>
<linearGradient id="paint61_linear_1490_6868" x1="175.093" y1="298.321" x2="153.703" y2="314.239" gradientUnits="userSpaceOnUse">
<stop stop-color="#F4F3F1"/>
<stop offset="1" stop-color="#FFB2BC"/>
</linearGradient>
<linearGradient id="paint62_linear_1490_6868" x1="166.458" y1="311.874" x2="142.884" y2="284.573" gradientUnits="userSpaceOnUse">
<stop offset="0.3" stop-color="#4E1910"/>
<stop offset="0.63" stop-color="#783918"/>
<stop offset="0.79" stop-color="#8A471C"/>
</linearGradient>
<linearGradient id="paint63_linear_1490_6868" x1="154.378" y1="310.252" x2="150.241" y2="313.331" gradientUnits="userSpaceOnUse">
<stop stop-color="#F4F3F1"/>
<stop offset="1" stop-color="#FFB2BC"/>
</linearGradient>
<linearGradient id="paint64_linear_1490_6868" x1="129.624" y1="357.724" x2="151.532" y2="355.621" gradientUnits="userSpaceOnUse">
<stop offset="0.21" stop-color="#493BF1"/>
<stop offset="0.4" stop-color="#514BF3"/>
<stop offset="0.77" stop-color="#6776F9"/>
<stop offset="1" stop-color="#7793FE"/>
</linearGradient>
<linearGradient id="paint65_linear_1490_6868" x1="162.378" y1="360.39" x2="184.694" y2="359.596" gradientUnits="userSpaceOnUse">
<stop stop-color="#F4F3F1"/>
<stop offset="1" stop-color="#FFB2BC"/>
</linearGradient>
<linearGradient id="paint66_linear_1490_6868" x1="156.278" y1="383.479" x2="150.792" y2="360.328" gradientUnits="userSpaceOnUse">
<stop offset="0.21" stop-color="#493BF1"/>
<stop offset="0.4" stop-color="#514BF3"/>
<stop offset="0.77" stop-color="#6776F9"/>
<stop offset="1" stop-color="#7793FE"/>
</linearGradient>
<linearGradient id="paint67_linear_1490_6868" x1="282.83" y1="474.995" x2="282.83" y2="271.754" gradientUnits="userSpaceOnUse">
<stop offset="0.21" stop-color="#493BF1"/>
<stop offset="0.4" stop-color="#514BF3"/>
<stop offset="0.77" stop-color="#6776F9"/>
<stop offset="1" stop-color="#7793FE"/>
</linearGradient>
<linearGradient id="paint68_linear_1490_6868" x1="384.187" y1="472.953" x2="384.187" y2="375.396" gradientUnits="userSpaceOnUse">
<stop offset="0.21" stop-color="#493BF1"/>
<stop offset="0.4" stop-color="#514BF3"/>
<stop offset="0.77" stop-color="#6776F9"/>
<stop offset="1" stop-color="#7793FE"/>
</linearGradient>
<linearGradient id="paint69_linear_1490_6868" x1="460.05" y1="517.969" x2="437.088" y2="513.956" gradientUnits="userSpaceOnUse">
<stop stop-color="#4E1910"/>
<stop offset="1" stop-color="#8A471C"/>
</linearGradient>
<linearGradient id="paint70_linear_1490_6868" x1="454.981" y1="547.034" x2="431.997" y2="543.021" gradientUnits="userSpaceOnUse">
<stop stop-color="#4E1910"/>
<stop offset="1" stop-color="#8A471C"/>
</linearGradient>
<linearGradient id="paint71_linear_1490_6868" x1="430.94" y1="469.637" x2="477.056" y2="456.416" gradientUnits="userSpaceOnUse">
<stop stop-color="#F4F3F1"/>
<stop offset="1" stop-color="#FFB2BC"/>
</linearGradient>
<linearGradient id="paint72_linear_1490_6868" x1="420.502" y1="395.168" x2="433.724" y2="410.743" gradientUnits="userSpaceOnUse">
<stop stop-color="#F4F3F1"/>
<stop offset="1" stop-color="#FFB2BC"/>
</linearGradient>
<linearGradient id="paint73_linear_1490_6868" x1="444.881" y1="441.021" x2="419.786" y2="420.659" gradientUnits="userSpaceOnUse">
<stop stop-color="#F4F3F1"/>
<stop offset="1" stop-color="#FFB2BC"/>
</linearGradient>
<linearGradient id="paint74_linear_1490_6868" x1="529.653" y1="531.278" x2="534.579" y2="562.145" gradientUnits="userSpaceOnUse">
<stop stop-color="#F4F3F1"/>
<stop offset="1" stop-color="#FFB2BC"/>
</linearGradient>
<linearGradient id="paint75_linear_1490_6868" x1="534.914" y1="530.41" x2="539.841" y2="561.276" gradientUnits="userSpaceOnUse">
<stop stop-color="#96433A"/>
<stop offset="1" stop-color="#ED9540"/>
</linearGradient>
<linearGradient id="paint76_linear_1490_6868" x1="483.719" y1="531.814" x2="455.365" y2="504.645" gradientUnits="userSpaceOnUse">
<stop stop-color="#4E1910"/>
<stop offset="1" stop-color="#8A471C"/>
</linearGradient>
<linearGradient id="paint77_linear_1490_6868" x1="485.974" y1="558.364" x2="482.51" y2="499.159" gradientUnits="userSpaceOnUse">
<stop stop-color="#4E1910"/>
<stop offset="1" stop-color="#8A471C"/>
</linearGradient>
<linearGradient id="paint78_linear_1490_6868" x1="479.166" y1="417.832" x2="468.968" y2="386.73" gradientUnits="userSpaceOnUse">
<stop stop-color="#4E1910"/>
<stop offset="1" stop-color="#8A471C"/>
</linearGradient>
<linearGradient id="paint79_linear_1490_6868" x1="470.424" y1="422.476" x2="467.433" y2="413.771" gradientUnits="userSpaceOnUse">
<stop stop-color="#F4F3F1"/>
<stop offset="0.22" stop-color="#F7DBDD"/>
<stop offset="0.5" stop-color="#FBC4CB"/>
<stop offset="0.77" stop-color="#FEB6BF"/>
<stop offset="1" stop-color="#FFB2BC"/>
</linearGradient>
<linearGradient id="paint80_linear_1490_6868" x1="475.138" y1="396.492" x2="454.77" y2="415.218" gradientUnits="userSpaceOnUse">
<stop stop-color="#F4F3F1"/>
<stop offset="1" stop-color="#FFB2BC"/>
</linearGradient>
<linearGradient id="paint81_linear_1490_6868" x1="472.636" y1="463.429" x2="477.778" y2="410.631" gradientUnits="userSpaceOnUse">
<stop stop-color="#FF5B50"/>
<stop offset="0.27" stop-color="#FE7264"/>
<stop offset="0.75" stop-color="#FE9783"/>
<stop offset="1" stop-color="#FEA590"/>
</linearGradient>
<linearGradient id="paint82_linear_1490_6868" x1="489.712" y1="451.003" x2="467.66" y2="383.834" gradientUnits="userSpaceOnUse">
<stop stop-color="#4E1910"/>
<stop offset="1" stop-color="#8A471C"/>
</linearGradient>
<linearGradient id="paint83_linear_1490_6868" x1="473.254" y1="409.215" x2="478.667" y2="410.906" gradientUnits="userSpaceOnUse">
<stop stop-color="#F4F3F1"/>
<stop offset="1" stop-color="#FFB2BC"/>
</linearGradient>
<linearGradient id="paint84_linear_1490_6868" x1="466.3" y1="427.162" x2="471.937" y2="480.712" gradientUnits="userSpaceOnUse">
<stop stop-color="#96433A"/>
<stop offset="1" stop-color="#ED9540"/>
</linearGradient>
<linearGradient id="paint85_linear_1490_6868" x1="480.779" y1="480.102" x2="484.892" y2="432.265" gradientUnits="userSpaceOnUse">
<stop stop-color="#F4F3F1"/>
<stop offset="1" stop-color="#FFB2BC"/>
</linearGradient>
<linearGradient id="paint86_linear_1490_6868" x1="417.62" y1="467.025" x2="436.887" y2="460.252" gradientUnits="userSpaceOnUse">
<stop stop-color="#F4F3F1"/>
<stop offset="1" stop-color="#FFB2BC"/>
</linearGradient>
<linearGradient id="paint87_linear_1490_6868" x1="469.117" y1="460.605" x2="441.102" y2="476.767" gradientUnits="userSpaceOnUse">
<stop stop-color="#F4F3F1"/>
<stop offset="1" stop-color="#FFB2BC"/>
</linearGradient>
<linearGradient id="paint88_linear_1490_6868" x1="188.26" y1="347.126" x2="184.2" y2="347.834" gradientUnits="userSpaceOnUse">
<stop stop-color="#F4F3F1"/>
<stop offset="1" stop-color="#FFB2BC"/>
</linearGradient>
<linearGradient id="paint89_linear_1490_6868" x1="333.197" y1="24.9591" x2="332.917" y2="-2.81611" gradientUnits="userSpaceOnUse">
<stop offset="0.3" stop-color="#4E1910"/>
<stop offset="0.63" stop-color="#783918"/>
<stop offset="0.79" stop-color="#8A471C"/>
</linearGradient>
<linearGradient id="paint90_linear_1490_6868" x1="337.901" y1="24.9161" x2="337.6" y2="-2.85913" gradientUnits="userSpaceOnUse">
<stop offset="0.3" stop-color="#4E1910"/>
<stop offset="0.63" stop-color="#783918"/>
<stop offset="0.79" stop-color="#8A471C"/>
</linearGradient>
<linearGradient id="paint91_linear_1490_6868" x1="553.846" y1="444.382" x2="553.846" y2="328.853" gradientUnits="userSpaceOnUse">
<stop offset="0.35" stop-color="#2241FB"/>
<stop offset="0.46" stop-color="#2048FB"/>
<stop offset="0.62" stop-color="#1C5DFB"/>
<stop offset="0.81" stop-color="#157EFB"/>
<stop offset="1" stop-color="#0EA5FB"/>
</linearGradient>
<linearGradient id="paint92_linear_1490_6868" x1="535.718" y1="448.08" x2="535.718" y2="352.758" gradientUnits="userSpaceOnUse">
<stop stop-color="#0E71FB"/>
<stop offset="0.23" stop-color="#156AF9"/>
<stop offset="0.56" stop-color="#2957F3"/>
<stop offset="0.97" stop-color="#4B39EA"/>
<stop offset="1" stop-color="#4E37EA"/>
</linearGradient>
<linearGradient id="paint93_linear_1490_6868" x1="567.706" y1="448.76" x2="567.727" y2="351.881" gradientUnits="userSpaceOnUse">
<stop stop-color="#225CFB"/>
<stop offset="0.21" stop-color="#1F63FB"/>
<stop offset="0.51" stop-color="#1A77FB"/>
<stop offset="0.89" stop-color="#1199FB"/>
<stop offset="1" stop-color="#0EA5FB"/>
</linearGradient>
<linearGradient id="paint94_linear_1490_6868" x1="551.784" y1="439.567" x2="551.784" y2="499.374" gradientUnits="userSpaceOnUse">
<stop stop-color="#F9FBFC"/>
<stop offset="0.38" stop-color="#EBF1FC"/>
<stop offset="1" stop-color="#CDDBFF"/>
</linearGradient>
<clipPath id="clip0_1490_6868">
<rect width="577" height="614" fill="white" transform="translate(52)"/>
</clipPath>
</defs>
</svg>
